<svg width="665" height="686" viewBox="0 0 665 686" fill="none" xmlns="http://www.w3.org/2000/svg">
<path d="M665 241H402V235.926C402 163.065 460.875 104 533.5 104C606.125 104 665 163.065 665 235.926V241Z" fill="#FFC800" fill-opacity="0.58"/>
<path d="M603 241H464V238.296C464 199.473 495.116 168 533.5 168C571.884 168 603 199.473 603 238.296V241Z" fill="#70D0D9"/>
<g filter="url(#filter0_d_174_2432)">
<rect x="51" y="20" width="229" height="259" rx="15" fill="white"/>
</g>
<g filter="url(#filter1_d_174_2432)">
<rect x="51" y="312" width="229" height="259" rx="15" fill="white"/>
</g>
<path d="M118.384 175.84V169.04L123.064 166.08H129.064L129.144 190.64H123.064V173H122.864L118.584 175.84H118.384ZM154.1 178.44C154.1 181.48 153.753 183.92 153.06 185.76C152.367 187.6 151.247 188.933 149.7 189.76C148.153 190.587 146.087 191 143.5 191C140.94 191 138.887 190.587 137.34 189.76C135.793 188.933 134.673 187.6 133.98 185.76C133.287 183.92 132.94 181.48 132.94 178.44C132.94 175.373 133.287 172.92 133.98 171.08C134.673 169.24 135.793 167.907 137.34 167.08C138.887 166.253 140.94 165.84 143.5 165.84C146.087 165.84 148.153 166.253 149.7 167.08C151.247 167.907 152.367 169.24 153.06 171.08C153.753 172.92 154.1 175.373 154.1 178.44ZM143.5 185.68C145.313 185.68 146.5 185.093 147.06 183.92C147.647 182.72 147.94 180.893 147.94 178.44C147.94 175.96 147.647 174.133 147.06 172.96C146.5 171.787 145.313 171.2 143.5 171.2C141.713 171.2 140.527 171.787 139.94 172.96C139.38 174.133 139.1 175.96 139.1 178.44C139.1 180.893 139.38 182.72 139.94 183.92C140.527 185.093 141.713 185.68 143.5 185.68ZM177.645 178.44C177.645 181.48 177.298 183.92 176.605 185.76C175.912 187.6 174.792 188.933 173.245 189.76C171.698 190.587 169.632 191 167.045 191C164.485 191 162.432 190.587 160.885 189.76C159.338 188.933 158.218 187.6 157.525 185.76C156.832 183.92 156.485 181.48 156.485 178.44C156.485 175.373 156.832 172.92 157.525 171.08C158.218 169.24 159.338 167.907 160.885 167.08C162.432 166.253 164.485 165.84 167.045 165.84C169.632 165.84 171.698 166.253 173.245 167.08C174.792 167.907 175.912 169.24 176.605 171.08C177.298 172.92 177.645 175.373 177.645 178.44ZM167.045 185.68C168.858 185.68 170.045 185.093 170.605 183.92C171.192 182.72 171.485 180.893 171.485 178.44C171.485 175.96 171.192 174.133 170.605 172.96C170.045 171.787 168.858 171.2 167.045 171.2C165.258 171.2 164.072 171.787 163.485 172.96C162.925 174.133 162.645 175.96 162.645 178.44C162.645 180.893 162.925 182.72 163.485 183.92C164.072 185.093 165.258 185.68 167.045 185.68ZM193.11 172.08C193.11 176.8 190.964 179.16 186.67 179.16C182.377 179.16 180.23 176.8 180.23 172.08C180.23 167.333 182.377 164.96 186.67 164.96C190.964 164.96 193.11 167.333 193.11 172.08ZM184.83 190.64L201.87 165.32H207.87L190.83 190.64H184.83ZM186.67 174.88C188.057 174.88 188.75 173.947 188.75 172.08C188.75 170.213 188.057 169.28 186.67 169.28C185.257 169.28 184.55 170.213 184.55 172.08C184.55 173.947 185.257 174.88 186.67 174.88ZM212.63 183.88C212.657 188.627 210.51 191 206.19 191C201.924 191 199.79 188.627 199.79 183.88C199.79 179.133 201.924 176.76 206.19 176.76C210.457 176.76 212.604 179.133 212.63 183.88ZM206.23 186.72C207.617 186.72 208.324 185.773 208.35 183.88C208.377 181.987 207.67 181.04 206.23 181.04C204.764 181.04 204.044 181.987 204.07 183.88C204.097 185.773 204.817 186.72 206.23 186.72Z" fill="#1C1C1C"/>
<path d="M129.165 476.6C129.938 476.973 130.845 477.267 131.885 477.48C132.952 477.693 134.018 477.8 135.085 477.8C137.112 477.8 138.552 477.413 139.405 476.64C140.258 475.84 140.765 474.507 140.925 472.64H140.885C140.325 472.907 139.578 473.12 138.645 473.28C137.712 473.44 136.658 473.52 135.485 473.52C132.898 473.52 130.925 472.907 129.565 471.68C128.205 470.427 127.525 468.587 127.525 466.16C127.525 464.4 127.805 462.92 128.365 461.72C128.925 460.493 129.885 459.573 131.245 458.96C132.605 458.32 134.472 458 136.845 458C139.458 458 141.485 458.453 142.925 459.36C144.392 460.267 145.418 461.64 146.005 463.48C146.592 465.32 146.885 467.64 146.885 470.44C146.885 473.373 146.458 475.773 145.605 477.64C144.752 479.48 143.538 480.84 141.965 481.72C140.418 482.573 138.605 483 136.525 483C134.765 483 133.272 482.853 132.045 482.56C130.818 482.267 129.805 481.947 129.005 481.6V476.68L129.165 476.6ZM136.845 462.88C135.378 462.88 134.392 463.12 133.885 463.6C133.378 464.08 133.125 464.867 133.125 465.96C133.125 467.107 133.418 467.907 134.005 468.36C134.592 468.813 135.552 469.04 136.885 469.04C137.738 469.04 138.525 468.947 139.245 468.76C139.992 468.547 140.565 468.307 140.965 468.04C141.018 466.013 140.725 464.653 140.085 463.96C139.445 463.24 138.365 462.88 136.845 462.88ZM150.003 472.4V458.28H167.363V463.44H155.523V467.36L155.603 467.48H159.883C162.816 467.48 164.949 468.08 166.283 469.28C167.616 470.48 168.283 472.387 168.283 475C168.283 477.773 167.416 479.8 165.683 481.08C163.949 482.36 161.256 483 157.603 483C155.869 483 154.296 482.92 152.883 482.76C151.469 482.573 150.203 482.347 149.083 482.08V477.2L149.163 477.12C149.749 477.28 150.443 477.413 151.243 477.52C152.069 477.627 152.909 477.72 153.763 477.8C154.616 477.853 155.389 477.88 156.083 477.88C157.736 477.88 159.003 477.8 159.883 477.64C160.763 477.48 161.363 477.2 161.683 476.8C162.029 476.373 162.203 475.787 162.203 475.04C162.203 474.107 161.976 473.44 161.523 473.04C161.096 472.613 160.229 472.4 158.923 472.4H150.003ZM183.369 464.08C183.369 468.8 181.222 471.16 176.929 471.16C172.636 471.16 170.489 468.8 170.489 464.08C170.489 459.333 172.636 456.96 176.929 456.96C181.222 456.96 183.369 459.333 183.369 464.08ZM175.089 482.64L192.129 457.32H198.129L181.089 482.64H175.089ZM176.929 466.88C178.316 466.88 179.009 465.947 179.009 464.08C179.009 462.213 178.316 461.28 176.929 461.28C175.516 461.28 174.809 462.213 174.809 464.08C174.809 465.947 175.516 466.88 176.929 466.88ZM202.889 475.88C202.916 480.627 200.769 483 196.449 483C192.182 483 190.049 480.627 190.049 475.88C190.049 471.133 192.182 468.76 196.449 468.76C200.716 468.76 202.862 471.133 202.889 475.88ZM196.489 478.72C197.876 478.72 198.582 477.773 198.609 475.88C198.636 473.987 197.929 473.04 196.489 473.04C195.022 473.04 194.302 473.987 194.329 475.88C194.356 477.773 195.076 478.72 196.489 478.72Z" fill="#1C1C1C"/>
<g filter="url(#filter2_d_174_2432)">
<rect x="317" y="53" width="229" height="259" rx="15" fill="white"/>
</g>
<g filter="url(#filter3_d_174_2432)">
<rect x="317" y="345" width="229" height="259" rx="15" fill="white"/>
</g>
<path d="M93.0696 219H91.6605C91.5772 218.595 91.4313 218.239 91.223 217.932C91.0185 217.625 90.7685 217.367 90.473 217.159C90.1813 216.947 89.8575 216.788 89.5014 216.682C89.1454 216.576 88.7741 216.523 88.3878 216.523C87.6832 216.523 87.045 216.701 86.473 217.057C85.9048 217.413 85.4522 217.938 85.1151 218.631C84.7817 219.324 84.6151 220.174 84.6151 221.182C84.6151 222.189 84.7817 223.04 85.1151 223.733C85.4522 224.426 85.9048 224.951 86.473 225.307C87.045 225.663 87.6832 225.841 88.3878 225.841C88.7741 225.841 89.1454 225.788 89.5014 225.682C89.8575 225.576 90.1813 225.419 90.473 225.21C90.7685 224.998 91.0185 224.739 91.223 224.432C91.4313 224.121 91.5772 223.765 91.6605 223.364H93.0696C92.9635 223.958 92.7704 224.491 92.4901 224.96C92.2098 225.43 91.8613 225.83 91.4446 226.159C91.0279 226.485 90.5601 226.733 90.0412 226.903C89.526 227.074 88.9749 227.159 88.3878 227.159C87.3954 227.159 86.5128 226.917 85.7401 226.432C84.9673 225.947 84.3594 225.258 83.9162 224.364C83.473 223.47 83.2514 222.409 83.2514 221.182C83.2514 219.955 83.473 218.894 83.9162 218C84.3594 217.106 84.9673 216.417 85.7401 215.932C86.5128 215.447 87.3954 215.205 88.3878 215.205C88.9749 215.205 89.526 215.29 90.0412 215.46C90.5601 215.631 91.0279 215.881 91.4446 216.21C91.8613 216.536 92.2098 216.934 92.4901 217.403C92.7704 217.869 92.9635 218.402 93.0696 219ZM100.665 223.432V218.273H102.006V227H100.665V225.523H100.574C100.369 225.966 100.051 226.343 99.6193 226.653C99.1875 226.96 98.642 227.114 97.983 227.114C97.4375 227.114 96.9527 226.994 96.5284 226.756C96.1042 226.513 95.7708 226.15 95.5284 225.665C95.286 225.176 95.1648 224.561 95.1648 223.818V218.273H96.5057V223.727C96.5057 224.364 96.6837 224.871 97.0398 225.25C97.3996 225.629 97.858 225.818 98.4148 225.818C98.7481 225.818 99.0871 225.733 99.4318 225.562C99.7803 225.392 100.072 225.131 100.307 224.778C100.545 224.426 100.665 223.977 100.665 223.432ZM110.643 220.227L109.439 220.568C109.363 220.367 109.251 220.172 109.104 219.983C108.96 219.79 108.763 219.631 108.513 219.506C108.263 219.381 107.943 219.318 107.553 219.318C107.018 219.318 106.573 219.441 106.217 219.688C105.865 219.93 105.689 220.239 105.689 220.614C105.689 220.947 105.81 221.21 106.053 221.403C106.295 221.597 106.674 221.758 107.189 221.886L108.484 222.205C109.265 222.394 109.846 222.684 110.229 223.074C110.611 223.46 110.803 223.958 110.803 224.568C110.803 225.068 110.659 225.515 110.371 225.909C110.087 226.303 109.689 226.614 109.178 226.841C108.666 227.068 108.071 227.182 107.393 227.182C106.503 227.182 105.767 226.989 105.183 226.602C104.6 226.216 104.231 225.652 104.075 224.909L105.348 224.591C105.469 225.061 105.698 225.413 106.036 225.648C106.376 225.883 106.821 226 107.371 226C107.996 226 108.492 225.867 108.859 225.602C109.231 225.333 109.416 225.011 109.416 224.636C109.416 224.333 109.31 224.08 109.098 223.875C108.886 223.667 108.56 223.511 108.121 223.409L106.666 223.068C105.867 222.879 105.28 222.585 104.905 222.188C104.534 221.786 104.348 221.284 104.348 220.682C104.348 220.189 104.486 219.754 104.763 219.375C105.043 218.996 105.424 218.699 105.905 218.483C106.39 218.267 106.939 218.159 107.553 218.159C108.416 218.159 109.094 218.348 109.587 218.727C110.083 219.106 110.435 219.606 110.643 220.227ZM116.616 218.273V219.409H112.094V218.273H116.616ZM113.412 216.182H114.753V224.5C114.753 224.879 114.808 225.163 114.918 225.352C115.031 225.538 115.175 225.663 115.349 225.727C115.527 225.788 115.715 225.818 115.912 225.818C116.06 225.818 116.181 225.811 116.276 225.795C116.37 225.777 116.446 225.761 116.503 225.75L116.776 226.955C116.685 226.989 116.558 227.023 116.395 227.057C116.232 227.095 116.026 227.114 115.776 227.114C115.397 227.114 115.026 227.032 114.662 226.869C114.302 226.706 114.003 226.458 113.764 226.125C113.529 225.792 113.412 225.371 113.412 224.864V216.182ZM122.085 227.182C121.297 227.182 120.606 226.994 120.011 226.619C119.42 226.244 118.958 225.72 118.625 225.045C118.295 224.371 118.131 223.583 118.131 222.682C118.131 221.773 118.295 220.979 118.625 220.301C118.958 219.623 119.42 219.097 120.011 218.722C120.606 218.347 121.297 218.159 122.085 218.159C122.873 218.159 123.563 218.347 124.153 218.722C124.748 219.097 125.21 219.623 125.54 220.301C125.873 220.979 126.04 221.773 126.04 222.682C126.04 223.583 125.873 224.371 125.54 225.045C125.21 225.72 124.748 226.244 124.153 226.619C123.563 226.994 122.873 227.182 122.085 227.182ZM122.085 225.977C122.684 225.977 123.176 225.824 123.562 225.517C123.949 225.21 124.235 224.807 124.42 224.307C124.606 223.807 124.699 223.265 124.699 222.682C124.699 222.098 124.606 221.555 124.42 221.051C124.235 220.547 123.949 220.14 123.562 219.83C123.176 219.519 122.684 219.364 122.085 219.364C121.487 219.364 120.994 219.519 120.608 219.83C120.222 220.14 119.936 220.547 119.75 221.051C119.564 221.555 119.472 222.098 119.472 222.682C119.472 223.265 119.564 223.807 119.75 224.307C119.936 224.807 120.222 225.21 120.608 225.517C120.994 225.824 121.487 225.977 122.085 225.977ZM128.087 227V218.273H129.382V219.636H129.496C129.678 219.17 129.971 218.809 130.376 218.551C130.782 218.29 131.268 218.159 131.837 218.159C132.412 218.159 132.892 218.29 133.274 218.551C133.661 218.809 133.962 219.17 134.178 219.636H134.268C134.492 219.186 134.827 218.828 135.274 218.562C135.721 218.294 136.257 218.159 136.882 218.159C137.662 218.159 138.301 218.403 138.797 218.892C139.293 219.377 139.541 220.133 139.541 221.159V227H138.2V221.159C138.2 220.515 138.024 220.055 137.672 219.778C137.32 219.502 136.905 219.364 136.428 219.364C135.814 219.364 135.339 219.549 135.001 219.92C134.664 220.288 134.496 220.754 134.496 221.318V227H133.132V221.023C133.132 220.527 132.971 220.127 132.649 219.824C132.327 219.517 131.912 219.364 131.405 219.364C131.056 219.364 130.731 219.456 130.428 219.642C130.128 219.828 129.886 220.085 129.7 220.415C129.518 220.741 129.428 221.117 129.428 221.545V227H128.087ZM145.652 227.182C144.811 227.182 144.086 226.996 143.476 226.625C142.87 226.25 142.402 225.727 142.072 225.057C141.747 224.383 141.584 223.598 141.584 222.705C141.584 221.811 141.747 221.023 142.072 220.341C142.402 219.655 142.86 219.121 143.447 218.739C144.038 218.352 144.728 218.159 145.516 218.159C145.97 218.159 146.419 218.235 146.862 218.386C147.305 218.538 147.709 218.784 148.072 219.125C148.436 219.462 148.726 219.909 148.942 220.466C149.158 221.023 149.266 221.708 149.266 222.523V223.091H142.538V221.932H147.902C147.902 221.439 147.804 221 147.607 220.614C147.413 220.227 147.137 219.922 146.777 219.699C146.421 219.475 146 219.364 145.516 219.364C144.982 219.364 144.519 219.496 144.129 219.761C143.743 220.023 143.446 220.364 143.237 220.784C143.029 221.205 142.925 221.655 142.925 222.136V222.909C142.925 223.568 143.038 224.127 143.266 224.585C143.497 225.04 143.817 225.386 144.226 225.625C144.635 225.86 145.11 225.977 145.652 225.977C146.004 225.977 146.322 225.928 146.607 225.83C146.894 225.727 147.143 225.576 147.351 225.375C147.559 225.17 147.72 224.917 147.834 224.614L149.129 224.977C148.993 225.417 148.764 225.803 148.442 226.136C148.12 226.466 147.722 226.723 147.249 226.909C146.775 227.091 146.243 227.182 145.652 227.182ZM151.305 227V218.273H152.601V219.591H152.692C152.851 219.159 153.139 218.809 153.555 218.54C153.972 218.271 154.442 218.136 154.964 218.136C155.063 218.136 155.186 218.138 155.334 218.142C155.482 218.146 155.593 218.152 155.669 218.159V219.523C155.624 219.511 155.519 219.494 155.357 219.472C155.197 219.445 155.029 219.432 154.851 219.432C154.427 219.432 154.048 219.521 153.714 219.699C153.385 219.873 153.124 220.116 152.93 220.426C152.741 220.733 152.646 221.083 152.646 221.477V227H151.305ZM168.304 218.273C168.236 217.697 167.959 217.25 167.474 216.932C166.99 216.614 166.395 216.455 165.69 216.455C165.175 216.455 164.724 216.538 164.338 216.705C163.955 216.871 163.656 217.1 163.44 217.392C163.228 217.684 163.122 218.015 163.122 218.386C163.122 218.697 163.196 218.964 163.344 219.188C163.495 219.407 163.688 219.591 163.923 219.739C164.158 219.883 164.404 220.002 164.662 220.097C164.92 220.187 165.156 220.261 165.372 220.318L166.554 220.636C166.857 220.716 167.194 220.826 167.565 220.966C167.94 221.106 168.298 221.297 168.639 221.54C168.984 221.778 169.268 222.085 169.491 222.46C169.715 222.835 169.827 223.295 169.827 223.841C169.827 224.47 169.662 225.038 169.332 225.545C169.007 226.053 168.529 226.456 167.901 226.756C167.276 227.055 166.516 227.205 165.622 227.205C164.789 227.205 164.067 227.07 163.457 226.801C162.851 226.532 162.374 226.157 162.026 225.676C161.681 225.195 161.486 224.636 161.44 224H162.895C162.933 224.439 163.08 224.803 163.338 225.091C163.599 225.375 163.929 225.587 164.327 225.727C164.728 225.864 165.16 225.932 165.622 225.932C166.16 225.932 166.643 225.845 167.071 225.67C167.499 225.492 167.838 225.246 168.088 224.932C168.338 224.614 168.463 224.242 168.463 223.818C168.463 223.432 168.355 223.117 168.139 222.875C167.923 222.633 167.639 222.436 167.287 222.284C166.935 222.133 166.554 222 166.145 221.886L164.713 221.477C163.804 221.216 163.084 220.843 162.554 220.358C162.024 219.873 161.759 219.239 161.759 218.455C161.759 217.803 161.935 217.235 162.287 216.75C162.643 216.261 163.12 215.883 163.719 215.614C164.321 215.341 164.993 215.205 165.736 215.205C166.486 215.205 167.152 215.339 167.736 215.608C168.319 215.873 168.781 216.237 169.122 216.699C169.467 217.161 169.649 217.686 169.668 218.273H168.304ZM174.53 227.205C173.977 227.205 173.475 227.1 173.024 226.892C172.573 226.68 172.215 226.375 171.95 225.977C171.685 225.576 171.553 225.091 171.553 224.523C171.553 224.023 171.651 223.617 171.848 223.307C172.045 222.992 172.308 222.746 172.638 222.568C172.967 222.39 173.331 222.258 173.729 222.17C174.13 222.08 174.534 222.008 174.939 221.955C175.469 221.886 175.899 221.835 176.229 221.801C176.562 221.763 176.804 221.701 176.956 221.614C177.111 221.527 177.189 221.375 177.189 221.159V221.114C177.189 220.553 177.036 220.117 176.729 219.807C176.426 219.496 175.965 219.341 175.348 219.341C174.708 219.341 174.206 219.481 173.842 219.761C173.479 220.042 173.223 220.341 173.075 220.659L171.803 220.205C172.03 219.674 172.333 219.261 172.712 218.966C173.094 218.667 173.511 218.458 173.962 218.341C174.416 218.22 174.863 218.159 175.303 218.159C175.583 218.159 175.905 218.193 176.268 218.261C176.636 218.326 176.99 218.46 177.331 218.665C177.676 218.869 177.962 219.178 178.189 219.591C178.416 220.004 178.53 220.557 178.53 221.25V227H177.189V225.818H177.121C177.03 226.008 176.878 226.21 176.666 226.426C176.454 226.642 176.172 226.826 175.82 226.977C175.467 227.129 175.037 227.205 174.53 227.205ZM174.734 226C175.265 226 175.712 225.896 176.075 225.688C176.443 225.479 176.719 225.21 176.905 224.881C177.094 224.551 177.189 224.205 177.189 223.841V222.614C177.132 222.682 177.007 222.744 176.814 222.801C176.625 222.854 176.405 222.902 176.155 222.943C175.909 222.981 175.668 223.015 175.433 223.045C175.202 223.072 175.015 223.095 174.871 223.114C174.522 223.159 174.196 223.233 173.893 223.335C173.594 223.434 173.352 223.583 173.166 223.784C172.984 223.981 172.893 224.25 172.893 224.591C172.893 225.057 173.066 225.409 173.411 225.648C173.759 225.883 174.2 226 174.734 226ZM184.773 218.273V219.409H180.25V218.273H184.773ZM181.568 216.182H182.909V224.5C182.909 224.879 182.964 225.163 183.074 225.352C183.188 225.538 183.331 225.663 183.506 225.727C183.684 225.788 183.871 225.818 184.068 225.818C184.216 225.818 184.337 225.811 184.432 225.795C184.527 225.777 184.602 225.761 184.659 225.75L184.932 226.955C184.841 226.989 184.714 227.023 184.551 227.057C184.388 227.095 184.182 227.114 183.932 227.114C183.553 227.114 183.182 227.032 182.818 226.869C182.458 226.706 182.159 226.458 181.92 226.125C181.686 225.792 181.568 225.371 181.568 224.864V216.182ZM186.79 227V218.273H188.131V227H186.79ZM187.472 216.818C187.21 216.818 186.985 216.729 186.795 216.551C186.61 216.373 186.517 216.159 186.517 215.909C186.517 215.659 186.61 215.445 186.795 215.267C186.985 215.089 187.21 215 187.472 215C187.733 215 187.956 215.089 188.142 215.267C188.331 215.445 188.426 215.659 188.426 215.909C188.426 216.159 188.331 216.373 188.142 216.551C187.956 216.729 187.733 216.818 187.472 216.818ZM196.768 220.227L195.564 220.568C195.488 220.367 195.376 220.172 195.229 219.983C195.085 219.79 194.888 219.631 194.638 219.506C194.388 219.381 194.068 219.318 193.678 219.318C193.143 219.318 192.698 219.441 192.342 219.688C191.99 219.93 191.814 220.239 191.814 220.614C191.814 220.947 191.935 221.21 192.178 221.403C192.42 221.597 192.799 221.758 193.314 221.886L194.609 222.205C195.39 222.394 195.971 222.684 196.354 223.074C196.736 223.46 196.928 223.958 196.928 224.568C196.928 225.068 196.784 225.515 196.496 225.909C196.212 226.303 195.814 226.614 195.303 226.841C194.791 227.068 194.196 227.182 193.518 227.182C192.628 227.182 191.892 226.989 191.308 226.602C190.725 226.216 190.356 225.652 190.2 224.909L191.473 224.591C191.594 225.061 191.823 225.413 192.161 225.648C192.501 225.883 192.946 226 193.496 226C194.121 226 194.617 225.867 194.984 225.602C195.356 225.333 195.541 225.011 195.541 224.636C195.541 224.333 195.435 224.08 195.223 223.875C195.011 223.667 194.685 223.511 194.246 223.409L192.791 223.068C191.992 222.879 191.405 222.585 191.03 222.188C190.659 221.786 190.473 221.284 190.473 220.682C190.473 220.189 190.611 219.754 190.888 219.375C191.168 218.996 191.549 218.699 192.03 218.483C192.515 218.267 193.064 218.159 193.678 218.159C194.541 218.159 195.219 218.348 195.712 218.727C196.208 219.106 196.56 219.606 196.768 220.227ZM202.832 218.273V219.409H198.128V218.273H202.832ZM199.537 227V217.068C199.537 216.568 199.654 216.152 199.889 215.818C200.124 215.485 200.429 215.235 200.804 215.068C201.179 214.902 201.575 214.818 201.991 214.818C202.321 214.818 202.59 214.845 202.798 214.898C203.007 214.951 203.162 215 203.264 215.045L202.878 216.205C202.81 216.182 202.715 216.153 202.594 216.119C202.476 216.085 202.321 216.068 202.128 216.068C201.685 216.068 201.365 216.18 201.168 216.403C200.974 216.627 200.878 216.955 200.878 217.386V227H199.537ZM207.03 227.205C206.477 227.205 205.975 227.1 205.524 226.892C205.073 226.68 204.715 226.375 204.45 225.977C204.185 225.576 204.053 225.091 204.053 224.523C204.053 224.023 204.151 223.617 204.348 223.307C204.545 222.992 204.808 222.746 205.138 222.568C205.467 222.39 205.831 222.258 206.229 222.17C206.63 222.08 207.034 222.008 207.439 221.955C207.969 221.886 208.399 221.835 208.729 221.801C209.062 221.763 209.304 221.701 209.456 221.614C209.611 221.527 209.689 221.375 209.689 221.159V221.114C209.689 220.553 209.536 220.117 209.229 219.807C208.926 219.496 208.465 219.341 207.848 219.341C207.208 219.341 206.706 219.481 206.342 219.761C205.979 220.042 205.723 220.341 205.575 220.659L204.303 220.205C204.53 219.674 204.833 219.261 205.212 218.966C205.594 218.667 206.011 218.458 206.462 218.341C206.916 218.22 207.363 218.159 207.803 218.159C208.083 218.159 208.405 218.193 208.768 218.261C209.136 218.326 209.49 218.46 209.831 218.665C210.176 218.869 210.462 219.178 210.689 219.591C210.916 220.004 211.03 220.557 211.03 221.25V227H209.689V225.818H209.621C209.53 226.008 209.378 226.21 209.166 226.426C208.954 226.642 208.672 226.826 208.32 226.977C207.967 227.129 207.537 227.205 207.03 227.205ZM207.234 226C207.765 226 208.212 225.896 208.575 225.688C208.943 225.479 209.219 225.21 209.405 224.881C209.594 224.551 209.689 224.205 209.689 223.841V222.614C209.632 222.682 209.507 222.744 209.314 222.801C209.125 222.854 208.905 222.902 208.655 222.943C208.409 222.981 208.168 223.015 207.933 223.045C207.702 223.072 207.515 223.095 207.371 223.114C207.022 223.159 206.696 223.233 206.393 223.335C206.094 223.434 205.852 223.583 205.666 223.784C205.484 223.981 205.393 224.25 205.393 224.591C205.393 225.057 205.566 225.409 205.911 225.648C206.259 225.883 206.7 226 207.234 226ZM217.023 227.182C216.205 227.182 215.5 226.989 214.909 226.602C214.318 226.216 213.864 225.684 213.545 225.006C213.227 224.328 213.068 223.553 213.068 222.682C213.068 221.795 213.231 221.013 213.557 220.335C213.886 219.653 214.345 219.121 214.932 218.739C215.523 218.352 216.212 218.159 217 218.159C217.614 218.159 218.167 218.273 218.659 218.5C219.152 218.727 219.555 219.045 219.869 219.455C220.184 219.864 220.379 220.341 220.455 220.886H219.114C219.011 220.489 218.784 220.136 218.432 219.83C218.083 219.519 217.614 219.364 217.023 219.364C216.5 219.364 216.042 219.5 215.648 219.773C215.258 220.042 214.953 220.422 214.733 220.915C214.517 221.403 214.409 221.977 214.409 222.636C214.409 223.311 214.515 223.898 214.727 224.398C214.943 224.898 215.246 225.286 215.636 225.562C216.03 225.839 216.492 225.977 217.023 225.977C217.371 225.977 217.688 225.917 217.972 225.795C218.256 225.674 218.496 225.5 218.693 225.273C218.89 225.045 219.03 224.773 219.114 224.455H220.455C220.379 224.97 220.191 225.434 219.892 225.847C219.597 226.256 219.205 226.581 218.716 226.824C218.231 227.062 217.667 227.182 217.023 227.182ZM226.21 218.273V219.409H221.688V218.273H226.21ZM223.006 216.182H224.347V224.5C224.347 224.879 224.402 225.163 224.511 225.352C224.625 225.538 224.769 225.663 224.943 225.727C225.121 225.788 225.309 225.818 225.506 225.818C225.653 225.818 225.775 225.811 225.869 225.795C225.964 225.777 226.04 225.761 226.097 225.75L226.369 226.955C226.278 226.989 226.152 227.023 225.989 227.057C225.826 227.095 225.619 227.114 225.369 227.114C224.991 227.114 224.619 227.032 224.256 226.869C223.896 226.706 223.597 226.458 223.358 226.125C223.123 225.792 223.006 225.371 223.006 224.864V216.182ZM228.227 227V218.273H229.568V227H228.227ZM228.909 216.818C228.648 216.818 228.422 216.729 228.233 216.551C228.047 216.373 227.955 216.159 227.955 215.909C227.955 215.659 228.047 215.445 228.233 215.267C228.422 215.089 228.648 215 228.909 215C229.17 215 229.394 215.089 229.58 215.267C229.769 215.445 229.864 215.659 229.864 215.909C229.864 216.159 229.769 216.373 229.58 216.551C229.394 216.729 229.17 216.818 228.909 216.818ZM235.57 227.182C234.782 227.182 234.09 226.994 233.496 226.619C232.905 226.244 232.443 225.72 232.109 225.045C231.78 224.371 231.615 223.583 231.615 222.682C231.615 221.773 231.78 220.979 232.109 220.301C232.443 219.623 232.905 219.097 233.496 218.722C234.09 218.347 234.782 218.159 235.57 218.159C236.357 218.159 237.047 218.347 237.638 218.722C238.232 219.097 238.695 219.623 239.024 220.301C239.357 220.979 239.524 221.773 239.524 222.682C239.524 223.583 239.357 224.371 239.024 225.045C238.695 225.72 238.232 226.244 237.638 226.619C237.047 226.994 236.357 227.182 235.57 227.182ZM235.57 225.977C236.168 225.977 236.661 225.824 237.047 225.517C237.433 225.21 237.719 224.807 237.905 224.307C238.09 223.807 238.183 223.265 238.183 222.682C238.183 222.098 238.09 221.555 237.905 221.051C237.719 220.547 237.433 220.14 237.047 219.83C236.661 219.519 236.168 219.364 235.57 219.364C234.971 219.364 234.479 219.519 234.092 219.83C233.706 220.14 233.42 220.547 233.234 221.051C233.049 221.555 232.956 222.098 232.956 222.682C232.956 223.265 233.049 223.807 233.234 224.307C233.42 224.807 233.706 225.21 234.092 225.517C234.479 225.824 234.971 225.977 235.57 225.977ZM242.912 221.75V227H241.571V218.273H242.866V219.636H242.98C243.185 219.193 243.495 218.837 243.912 218.568C244.329 218.295 244.866 218.159 245.526 218.159C246.116 218.159 246.634 218.28 247.077 218.523C247.52 218.761 247.865 219.125 248.111 219.614C248.357 220.098 248.48 220.712 248.48 221.455V227H247.139V221.545C247.139 220.86 246.961 220.326 246.605 219.943C246.249 219.557 245.76 219.364 245.139 219.364C244.711 219.364 244.329 219.456 243.991 219.642C243.658 219.828 243.395 220.098 243.202 220.455C243.009 220.811 242.912 221.242 242.912 221.75Z" fill="#989898"/>
<path d="M121.679 510.273C121.611 509.697 121.334 509.25 120.849 508.932C120.365 508.614 119.77 508.455 119.065 508.455C118.55 508.455 118.099 508.538 117.713 508.705C117.33 508.871 117.031 509.1 116.815 509.392C116.603 509.684 116.497 510.015 116.497 510.386C116.497 510.697 116.571 510.964 116.719 511.188C116.87 511.407 117.063 511.591 117.298 511.739C117.533 511.883 117.779 512.002 118.037 512.097C118.295 512.187 118.531 512.261 118.747 512.318L119.929 512.636C120.232 512.716 120.569 512.826 120.94 512.966C121.315 513.106 121.673 513.297 122.014 513.54C122.359 513.778 122.643 514.085 122.866 514.46C123.09 514.835 123.202 515.295 123.202 515.841C123.202 516.47 123.037 517.038 122.707 517.545C122.382 518.053 121.904 518.456 121.276 518.756C120.651 519.055 119.891 519.205 118.997 519.205C118.164 519.205 117.442 519.07 116.832 518.801C116.226 518.532 115.749 518.157 115.401 517.676C115.056 517.195 114.861 516.636 114.815 516H116.27C116.308 516.439 116.455 516.803 116.713 517.091C116.974 517.375 117.304 517.587 117.702 517.727C118.103 517.864 118.535 517.932 118.997 517.932C119.535 517.932 120.018 517.845 120.446 517.67C120.874 517.492 121.213 517.246 121.463 516.932C121.713 516.614 121.838 516.242 121.838 515.818C121.838 515.432 121.73 515.117 121.514 514.875C121.298 514.633 121.014 514.436 120.662 514.284C120.31 514.133 119.929 514 119.52 513.886L118.088 513.477C117.179 513.216 116.459 512.843 115.929 512.358C115.399 511.873 115.134 511.239 115.134 510.455C115.134 509.803 115.31 509.235 115.662 508.75C116.018 508.261 116.495 507.883 117.094 507.614C117.696 507.341 118.368 507.205 119.111 507.205C119.861 507.205 120.527 507.339 121.111 507.608C121.694 507.873 122.156 508.237 122.497 508.699C122.842 509.161 123.024 509.686 123.043 510.273H121.679ZM130.837 515.432V510.273H132.178V519H130.837V517.523H130.746C130.541 517.966 130.223 518.343 129.791 518.653C129.359 518.96 128.814 519.114 128.155 519.114C127.609 519.114 127.125 518.994 126.7 518.756C126.276 518.513 125.943 518.15 125.7 517.665C125.458 517.176 125.337 516.561 125.337 515.818V510.273H126.678V515.727C126.678 516.364 126.856 516.871 127.212 517.25C127.571 517.629 128.03 517.818 128.587 517.818C128.92 517.818 129.259 517.733 129.604 517.562C129.952 517.392 130.244 517.131 130.479 516.778C130.717 516.426 130.837 515.977 130.837 515.432ZM138.179 519.182C137.361 519.182 136.656 518.989 136.065 518.602C135.474 518.216 135.02 517.684 134.702 517.006C134.384 516.328 134.224 515.553 134.224 514.682C134.224 513.795 134.387 513.013 134.713 512.335C135.043 511.653 135.501 511.121 136.088 510.739C136.679 510.352 137.368 510.159 138.156 510.159C138.77 510.159 139.323 510.273 139.815 510.5C140.308 510.727 140.711 511.045 141.026 511.455C141.34 511.864 141.535 512.341 141.611 512.886H140.27C140.168 512.489 139.94 512.136 139.588 511.83C139.24 511.519 138.77 511.364 138.179 511.364C137.656 511.364 137.198 511.5 136.804 511.773C136.414 512.042 136.109 512.422 135.889 512.915C135.673 513.403 135.565 513.977 135.565 514.636C135.565 515.311 135.671 515.898 135.884 516.398C136.099 516.898 136.402 517.286 136.793 517.562C137.187 517.839 137.649 517.977 138.179 517.977C138.527 517.977 138.844 517.917 139.128 517.795C139.412 517.674 139.652 517.5 139.849 517.273C140.046 517.045 140.187 516.773 140.27 516.455H141.611C141.535 516.97 141.348 517.434 141.048 517.847C140.753 518.256 140.361 518.581 139.872 518.824C139.387 519.062 138.823 519.182 138.179 519.182ZM147.116 519.182C146.298 519.182 145.594 518.989 145.003 518.602C144.412 518.216 143.957 517.684 143.639 517.006C143.321 516.328 143.162 515.553 143.162 514.682C143.162 513.795 143.325 513.013 143.651 512.335C143.98 511.653 144.438 511.121 145.026 510.739C145.616 510.352 146.306 510.159 147.094 510.159C147.707 510.159 148.26 510.273 148.753 510.5C149.245 510.727 149.649 511.045 149.963 511.455C150.277 511.864 150.473 512.341 150.548 512.886H149.207C149.105 512.489 148.878 512.136 148.526 511.83C148.177 511.519 147.707 511.364 147.116 511.364C146.594 511.364 146.135 511.5 145.741 511.773C145.351 512.042 145.046 512.422 144.827 512.915C144.611 513.403 144.503 513.977 144.503 514.636C144.503 515.311 144.609 515.898 144.821 516.398C145.037 516.898 145.34 517.286 145.73 517.562C146.124 517.839 146.586 517.977 147.116 517.977C147.465 517.977 147.781 517.917 148.065 517.795C148.349 517.674 148.59 517.5 148.787 517.273C148.984 517.045 149.124 516.773 149.207 516.455H150.548C150.473 516.97 150.285 517.434 149.986 517.847C149.69 518.256 149.298 518.581 148.81 518.824C148.325 519.062 147.76 519.182 147.116 519.182ZM156.168 519.182C155.327 519.182 154.601 518.996 153.991 518.625C153.385 518.25 152.918 517.727 152.588 517.057C152.262 516.383 152.099 515.598 152.099 514.705C152.099 513.811 152.262 513.023 152.588 512.341C152.918 511.655 153.376 511.121 153.963 510.739C154.554 510.352 155.243 510.159 156.031 510.159C156.486 510.159 156.935 510.235 157.378 510.386C157.821 510.538 158.224 510.784 158.588 511.125C158.952 511.462 159.241 511.909 159.457 512.466C159.673 513.023 159.781 513.708 159.781 514.523V515.091H153.054V513.932H158.418C158.418 513.439 158.319 513 158.122 512.614C157.929 512.227 157.652 511.922 157.293 511.699C156.937 511.475 156.516 511.364 156.031 511.364C155.497 511.364 155.035 511.496 154.645 511.761C154.259 512.023 153.961 512.364 153.753 512.784C153.545 513.205 153.44 513.655 153.44 514.136V514.909C153.44 515.568 153.554 516.127 153.781 516.585C154.012 517.04 154.332 517.386 154.741 517.625C155.151 517.86 155.626 517.977 156.168 517.977C156.52 517.977 156.838 517.928 157.122 517.83C157.41 517.727 157.658 517.576 157.866 517.375C158.075 517.17 158.236 516.917 158.349 516.614L159.645 516.977C159.509 517.417 159.279 517.803 158.957 518.136C158.635 518.466 158.238 518.723 157.764 518.909C157.291 519.091 156.759 519.182 156.168 519.182ZM168.003 512.227L166.798 512.568C166.723 512.367 166.611 512.172 166.463 511.983C166.319 511.79 166.122 511.631 165.872 511.506C165.622 511.381 165.302 511.318 164.912 511.318C164.378 511.318 163.933 511.441 163.577 511.688C163.224 511.93 163.048 512.239 163.048 512.614C163.048 512.947 163.17 513.21 163.412 513.403C163.654 513.597 164.033 513.758 164.548 513.886L165.844 514.205C166.624 514.394 167.205 514.684 167.588 515.074C167.971 515.46 168.162 515.958 168.162 516.568C168.162 517.068 168.018 517.515 167.73 517.909C167.446 518.303 167.048 518.614 166.537 518.841C166.026 519.068 165.431 519.182 164.753 519.182C163.863 519.182 163.126 518.989 162.543 518.602C161.959 518.216 161.59 517.652 161.435 516.909L162.707 516.591C162.829 517.061 163.058 517.413 163.395 517.648C163.736 517.883 164.181 518 164.73 518C165.355 518 165.851 517.867 166.219 517.602C166.59 517.333 166.776 517.011 166.776 516.636C166.776 516.333 166.67 516.08 166.457 515.875C166.245 515.667 165.92 515.511 165.48 515.409L164.026 515.068C163.226 514.879 162.639 514.585 162.264 514.188C161.893 513.786 161.707 513.284 161.707 512.682C161.707 512.189 161.846 511.754 162.122 511.375C162.402 510.996 162.783 510.699 163.264 510.483C163.749 510.267 164.298 510.159 164.912 510.159C165.776 510.159 166.454 510.348 166.946 510.727C167.442 511.106 167.795 511.606 168.003 512.227ZM176.362 512.227L175.158 512.568C175.082 512.367 174.97 512.172 174.822 511.983C174.679 511.79 174.482 511.631 174.232 511.506C173.982 511.381 173.661 511.318 173.271 511.318C172.737 511.318 172.292 511.441 171.936 511.688C171.584 511.93 171.408 512.239 171.408 512.614C171.408 512.947 171.529 513.21 171.771 513.403C172.014 513.597 172.393 513.758 172.908 513.886L174.203 514.205C174.983 514.394 175.565 514.684 175.947 515.074C176.33 515.46 176.521 515.958 176.521 516.568C176.521 517.068 176.377 517.515 176.089 517.909C175.805 518.303 175.408 518.614 174.896 518.841C174.385 519.068 173.79 519.182 173.112 519.182C172.222 519.182 171.485 518.989 170.902 518.602C170.319 518.216 169.949 517.652 169.794 516.909L171.067 516.591C171.188 517.061 171.417 517.413 171.754 517.648C172.095 517.883 172.54 518 173.089 518C173.714 518 174.211 517.867 174.578 517.602C174.949 517.333 175.135 517.011 175.135 516.636C175.135 516.333 175.029 516.08 174.817 515.875C174.605 515.667 174.279 515.511 173.839 515.409L172.385 515.068C171.586 514.879 170.999 514.585 170.624 514.188C170.252 513.786 170.067 513.284 170.067 512.682C170.067 512.189 170.205 511.754 170.482 511.375C170.762 510.996 171.143 510.699 171.624 510.483C172.108 510.267 172.658 510.159 173.271 510.159C174.135 510.159 174.813 510.348 175.305 510.727C175.802 511.106 176.154 511.606 176.362 512.227ZM183.222 519V507.364H187.153C188.063 507.364 188.809 507.519 189.392 507.83C189.975 508.136 190.407 508.559 190.688 509.097C190.968 509.634 191.108 510.246 191.108 510.932C191.108 511.617 190.968 512.225 190.688 512.756C190.407 513.286 189.977 513.703 189.398 514.006C188.818 514.305 188.078 514.455 187.176 514.455H183.994V513.182H187.131C187.752 513.182 188.252 513.091 188.631 512.909C189.013 512.727 189.29 512.47 189.46 512.136C189.634 511.799 189.722 511.398 189.722 510.932C189.722 510.466 189.634 510.059 189.46 509.71C189.286 509.362 189.008 509.093 188.625 508.903C188.242 508.71 187.737 508.614 187.108 508.614H184.631V519H183.222ZM188.699 513.773L191.562 519H189.926L187.108 513.773H188.699ZM195.842 519.205C195.289 519.205 194.787 519.1 194.337 518.892C193.886 518.68 193.528 518.375 193.263 517.977C192.998 517.576 192.865 517.091 192.865 516.523C192.865 516.023 192.964 515.617 193.161 515.307C193.357 514.992 193.621 514.746 193.95 514.568C194.28 514.39 194.643 514.258 195.041 514.17C195.443 514.08 195.846 514.008 196.251 513.955C196.782 513.886 197.212 513.835 197.541 513.801C197.875 513.763 198.117 513.701 198.268 513.614C198.424 513.527 198.501 513.375 198.501 513.159V513.114C198.501 512.553 198.348 512.117 198.041 511.807C197.738 511.496 197.278 511.341 196.661 511.341C196.02 511.341 195.518 511.481 195.155 511.761C194.791 512.042 194.536 512.341 194.388 512.659L193.115 512.205C193.342 511.674 193.645 511.261 194.024 510.966C194.407 510.667 194.823 510.458 195.274 510.341C195.729 510.22 196.176 510.159 196.615 510.159C196.895 510.159 197.217 510.193 197.581 510.261C197.948 510.326 198.303 510.46 198.643 510.665C198.988 510.869 199.274 511.178 199.501 511.591C199.729 512.004 199.842 512.557 199.842 513.25V519H198.501V517.818H198.433C198.342 518.008 198.191 518.21 197.979 518.426C197.767 518.642 197.484 518.826 197.132 518.977C196.78 519.129 196.35 519.205 195.842 519.205ZM196.047 518C196.577 518 197.024 517.896 197.388 517.688C197.755 517.479 198.032 517.21 198.217 516.881C198.407 516.551 198.501 516.205 198.501 515.841V514.614C198.445 514.682 198.32 514.744 198.126 514.801C197.937 514.854 197.717 514.902 197.467 514.943C197.221 514.981 196.981 515.015 196.746 515.045C196.515 515.072 196.327 515.095 196.183 515.114C195.835 515.159 195.509 515.233 195.206 515.335C194.907 515.434 194.664 515.583 194.479 515.784C194.297 515.981 194.206 516.25 194.206 516.591C194.206 517.057 194.378 517.409 194.723 517.648C195.071 517.883 195.513 518 196.047 518ZM206.085 510.273V511.409H201.562V510.273H206.085ZM202.881 508.182H204.222V516.5C204.222 516.879 204.277 517.163 204.386 517.352C204.5 517.538 204.644 517.663 204.818 517.727C204.996 517.788 205.184 517.818 205.381 517.818C205.528 517.818 205.65 517.811 205.744 517.795C205.839 517.777 205.915 517.761 205.972 517.75L206.244 518.955C206.153 518.989 206.027 519.023 205.864 519.057C205.701 519.095 205.494 519.114 205.244 519.114C204.866 519.114 204.494 519.032 204.131 518.869C203.771 518.706 203.472 518.458 203.233 518.125C202.998 517.792 202.881 517.371 202.881 516.864V508.182ZM211.668 519.182C210.827 519.182 210.101 518.996 209.491 518.625C208.885 518.25 208.418 517.727 208.088 517.057C207.762 516.383 207.599 515.598 207.599 514.705C207.599 513.811 207.762 513.023 208.088 512.341C208.418 511.655 208.876 511.121 209.463 510.739C210.054 510.352 210.743 510.159 211.531 510.159C211.986 510.159 212.435 510.235 212.878 510.386C213.321 510.538 213.724 510.784 214.088 511.125C214.452 511.462 214.741 511.909 214.957 512.466C215.173 513.023 215.281 513.708 215.281 514.523V515.091H208.554V513.932H213.918C213.918 513.439 213.819 513 213.622 512.614C213.429 512.227 213.152 511.922 212.793 511.699C212.437 511.475 212.016 511.364 211.531 511.364C210.997 511.364 210.535 511.496 210.145 511.761C209.759 512.023 209.461 512.364 209.253 512.784C209.045 513.205 208.94 513.655 208.94 514.136V514.909C208.94 515.568 209.054 516.127 209.281 516.585C209.512 517.04 209.832 517.386 210.241 517.625C210.651 517.86 211.126 517.977 211.668 517.977C212.02 517.977 212.338 517.928 212.622 517.83C212.91 517.727 213.158 517.576 213.366 517.375C213.575 517.17 213.736 516.917 213.849 516.614L215.145 516.977C215.009 517.417 214.779 517.803 214.457 518.136C214.135 518.466 213.738 518.723 213.264 518.909C212.791 519.091 212.259 519.182 211.668 519.182Z" fill="#989898"/>
<path d="M395.165 217.6C395.938 217.973 396.845 218.267 397.885 218.48C398.952 218.693 400.018 218.8 401.085 218.8C403.112 218.8 404.552 218.413 405.405 217.64C406.258 216.84 406.765 215.507 406.925 213.64H406.885C406.325 213.907 405.578 214.12 404.645 214.28C403.712 214.44 402.658 214.52 401.485 214.52C398.898 214.52 396.925 213.907 395.565 212.68C394.205 211.427 393.525 209.587 393.525 207.16C393.525 205.4 393.805 203.92 394.365 202.72C394.925 201.493 395.885 200.573 397.245 199.96C398.605 199.32 400.472 199 402.845 199C405.458 199 407.485 199.453 408.925 200.36C410.392 201.267 411.418 202.64 412.005 204.48C412.592 206.32 412.885 208.64 412.885 211.44C412.885 214.373 412.458 216.773 411.605 218.64C410.752 220.48 409.538 221.84 407.965 222.72C406.418 223.573 404.605 224 402.525 224C400.765 224 399.272 223.853 398.045 223.56C396.818 223.267 395.805 222.947 395.005 222.6V217.68L395.165 217.6ZM402.845 203.88C401.378 203.88 400.392 204.12 399.885 204.6C399.378 205.08 399.125 205.867 399.125 206.96C399.125 208.107 399.418 208.907 400.005 209.36C400.592 209.813 401.552 210.04 402.885 210.04C403.738 210.04 404.525 209.947 405.245 209.76C405.992 209.547 406.565 209.307 406.965 209.04C407.018 207.013 406.725 205.653 406.085 204.96C405.445 204.24 404.365 203.88 402.845 203.88ZM416.003 213.4V199.28H433.363V204.44H421.523V208.36L421.603 208.48H425.883C428.816 208.48 430.949 209.08 432.283 210.28C433.616 211.48 434.283 213.387 434.283 216C434.283 218.773 433.416 220.8 431.683 222.08C429.949 223.36 427.256 224 423.603 224C421.869 224 420.296 223.92 418.883 223.76C417.469 223.573 416.203 223.347 415.083 223.08V218.2L415.163 218.12C415.749 218.28 416.443 218.413 417.243 218.52C418.069 218.627 418.909 218.72 419.763 218.8C420.616 218.853 421.389 218.88 422.083 218.88C423.736 218.88 425.003 218.8 425.883 218.64C426.763 218.48 427.363 218.2 427.683 217.8C428.029 217.373 428.203 216.787 428.203 216.04C428.203 215.107 427.976 214.44 427.523 214.04C427.096 213.613 426.229 213.4 424.923 213.4H416.003ZM449.369 205.08C449.369 209.8 447.222 212.16 442.929 212.16C438.636 212.16 436.489 209.8 436.489 205.08C436.489 200.333 438.636 197.96 442.929 197.96C447.222 197.96 449.369 200.333 449.369 205.08ZM441.089 223.64L458.129 198.32H464.129L447.089 223.64H441.089ZM442.929 207.88C444.316 207.88 445.009 206.947 445.009 205.08C445.009 203.213 444.316 202.28 442.929 202.28C441.516 202.28 440.809 203.213 440.809 205.08C440.809 206.947 441.516 207.88 442.929 207.88ZM468.889 216.88C468.916 221.627 466.769 224 462.449 224C458.182 224 456.049 221.627 456.049 216.88C456.049 212.133 458.182 209.76 462.449 209.76C466.716 209.76 468.862 212.133 468.889 216.88ZM462.489 219.72C463.876 219.72 464.582 218.773 464.609 216.88C464.636 214.987 463.929 214.04 462.489 214.04C461.022 214.04 460.302 214.987 460.329 216.88C460.356 218.773 461.076 219.72 462.489 219.72Z" fill="#1C1C1C"/>
<path d="M404.927 506.44L414.207 491.12H423.367V506.88H427.567V511.6H423.447V515.72H417.447L417.327 511.6H404.927V506.44ZM417.767 506.88V494.72L411.007 506.88H417.767ZM436.675 509.96C436.728 510.547 436.768 511.053 436.795 511.48C436.821 511.88 436.835 512.307 436.835 512.76C436.835 513.187 436.821 513.627 436.795 514.08C436.768 514.507 436.728 515 436.675 515.56C436.008 515.667 435.341 515.76 434.675 515.84C434.008 515.92 433.341 515.96 432.675 515.96C432.035 515.96 431.395 515.92 430.755 515.84C430.115 515.76 429.461 515.667 428.795 515.56C428.715 515.027 428.661 514.547 428.635 514.12C428.608 513.667 428.595 513.227 428.595 512.8C428.595 512.4 428.608 511.973 428.635 511.52C428.661 511.067 428.715 510.547 428.795 509.96C430.128 509.72 431.448 509.6 432.755 509.6C434.061 509.6 435.368 509.72 436.675 509.96ZM439.587 505.4V491.28H456.947V496.44H445.107V500.36L445.187 500.48H449.467C452.401 500.48 454.534 501.08 455.867 502.28C457.201 503.48 457.867 505.387 457.867 508C457.867 510.773 457.001 512.8 455.267 514.08C453.534 515.36 450.841 516 447.187 516C445.454 516 443.881 515.92 442.467 515.76C441.054 515.573 439.787 515.347 438.667 515.08V510.2L438.747 510.12C439.334 510.28 440.027 510.413 440.827 510.52C441.654 510.627 442.494 510.72 443.347 510.8C444.201 510.853 444.974 510.88 445.667 510.88C447.321 510.88 448.587 510.8 449.467 510.64C450.347 510.48 450.947 510.2 451.267 509.8C451.614 509.373 451.787 508.787 451.787 508.04C451.787 507.107 451.561 506.44 451.107 506.04C450.681 505.613 449.814 505.4 448.507 505.4H439.587Z" fill="#1C1C1C"/>
<path d="M164.503 85.2237L168.217 81.5098C172.399 77.328 177.874 75.5934 183.668 75.31C185.921 75.1997 187.048 75.1446 187.952 76.0482C188.855 76.9518 188.8 78.0786 188.69 80.3322C188.406 86.1263 186.672 91.6011 182.49 95.7828L178.776 99.4968C175.718 102.555 174.848 103.425 175.49 106.743C176.124 109.277 176.737 111.731 174.894 113.574C172.659 115.809 170.62 115.809 168.385 113.574L150.426 95.615C148.191 93.3797 148.191 91.3408 150.426 89.1055C152.269 87.2627 154.723 87.8761 157.257 88.5097C160.575 89.1518 161.445 88.2822 164.503 85.2237Z" stroke="#70D0D9" stroke-width="2.56" stroke-linejoin="round"/>
<path d="M177.49 86.5H177.513" stroke="#70D0D9" stroke-width="4" stroke-linecap="round" stroke-linejoin="round"/>
<path d="M141.25 122.75L153.75 110.25" stroke="#70D0D9" stroke-width="2.56" stroke-linecap="round"/>
<path d="M156.25 122.75L161.25 117.75" stroke="#70D0D9" stroke-width="2.56" stroke-linecap="round"/>
<path d="M141.25 107.75L146.25 102.75" stroke="#70D0D9" stroke-width="2.56" stroke-linecap="round"/>
<path d="M370.068 248.364V260H368.659V248.364H370.068ZM374.053 254.75V260H372.712V251.273H374.007V252.636H374.121C374.325 252.193 374.636 251.837 375.053 251.568C375.469 251.295 376.007 251.159 376.666 251.159C377.257 251.159 377.774 251.28 378.217 251.523C378.661 251.761 379.005 252.125 379.251 252.614C379.498 253.098 379.621 253.712 379.621 254.455V260H378.28V254.545C378.28 253.86 378.102 253.326 377.746 252.943C377.39 252.557 376.901 252.364 376.28 252.364C375.852 252.364 375.469 252.456 375.132 252.642C374.799 252.828 374.536 253.098 374.342 253.455C374.149 253.811 374.053 254.242 374.053 254.75ZM385.616 260.182C384.798 260.182 384.094 259.989 383.503 259.602C382.912 259.216 382.457 258.684 382.139 258.006C381.821 257.328 381.662 256.553 381.662 255.682C381.662 254.795 381.825 254.013 382.151 253.335C382.48 252.653 382.938 252.121 383.526 251.739C384.116 251.352 384.806 251.159 385.594 251.159C386.207 251.159 386.76 251.273 387.253 251.5C387.745 251.727 388.149 252.045 388.463 252.455C388.777 252.864 388.973 253.341 389.048 253.886H387.707C387.605 253.489 387.378 253.136 387.026 252.83C386.677 252.519 386.207 252.364 385.616 252.364C385.094 252.364 384.635 252.5 384.241 252.773C383.851 253.042 383.546 253.422 383.327 253.915C383.111 254.403 383.003 254.977 383.003 255.636C383.003 256.311 383.109 256.898 383.321 257.398C383.537 257.898 383.84 258.286 384.23 258.562C384.624 258.839 385.086 258.977 385.616 258.977C385.965 258.977 386.281 258.917 386.565 258.795C386.849 258.674 387.09 258.5 387.287 258.273C387.484 258.045 387.624 257.773 387.707 257.455H389.048C388.973 257.97 388.785 258.434 388.486 258.847C388.19 259.256 387.798 259.581 387.31 259.824C386.825 260.062 386.26 260.182 385.616 260.182ZM391.009 260V251.273H392.304V252.591H392.395C392.554 252.159 392.842 251.809 393.259 251.54C393.675 251.271 394.145 251.136 394.668 251.136C394.766 251.136 394.889 251.138 395.037 251.142C395.185 251.146 395.296 251.152 395.372 251.159V252.523C395.327 252.511 395.223 252.494 395.06 252.472C394.901 252.445 394.732 252.432 394.554 252.432C394.13 252.432 393.751 252.521 393.418 252.699C393.088 252.873 392.827 253.116 392.634 253.426C392.444 253.733 392.349 254.083 392.349 254.477V260H391.009ZM400.355 260.182C399.514 260.182 398.789 259.996 398.179 259.625C397.573 259.25 397.105 258.727 396.776 258.057C396.45 257.383 396.287 256.598 396.287 255.705C396.287 254.811 396.45 254.023 396.776 253.341C397.105 252.655 397.563 252.121 398.151 251.739C398.741 251.352 399.431 251.159 400.219 251.159C400.673 251.159 401.122 251.235 401.565 251.386C402.009 251.538 402.412 251.784 402.776 252.125C403.139 252.462 403.429 252.909 403.645 253.466C403.861 254.023 403.969 254.708 403.969 255.523V256.091H397.241V254.932H402.605C402.605 254.439 402.507 254 402.31 253.614C402.116 253.227 401.84 252.922 401.48 252.699C401.124 252.475 400.704 252.364 400.219 252.364C399.685 252.364 399.223 252.496 398.832 252.761C398.446 253.023 398.149 253.364 397.94 253.784C397.732 254.205 397.628 254.655 397.628 255.136V255.909C397.628 256.568 397.741 257.127 397.969 257.585C398.2 258.04 398.52 258.386 398.929 258.625C399.338 258.86 399.813 258.977 400.355 258.977C400.707 258.977 401.026 258.928 401.31 258.83C401.598 258.727 401.846 258.576 402.054 258.375C402.262 258.17 402.423 257.917 402.537 257.614L403.832 257.977C403.696 258.417 403.467 258.803 403.145 259.136C402.823 259.466 402.425 259.723 401.952 259.909C401.478 260.091 400.946 260.182 400.355 260.182ZM408.577 260.205C408.024 260.205 407.522 260.1 407.071 259.892C406.62 259.68 406.262 259.375 405.997 258.977C405.732 258.576 405.599 258.091 405.599 257.523C405.599 257.023 405.698 256.617 405.895 256.307C406.092 255.992 406.355 255.746 406.685 255.568C407.014 255.39 407.378 255.258 407.776 255.17C408.177 255.08 408.58 255.008 408.986 254.955C409.516 254.886 409.946 254.835 410.276 254.801C410.609 254.763 410.851 254.701 411.003 254.614C411.158 254.527 411.236 254.375 411.236 254.159V254.114C411.236 253.553 411.082 253.117 410.776 252.807C410.473 252.496 410.012 252.341 409.395 252.341C408.755 252.341 408.253 252.481 407.889 252.761C407.526 253.042 407.27 253.341 407.122 253.659L405.849 253.205C406.077 252.674 406.38 252.261 406.759 251.966C407.141 251.667 407.558 251.458 408.009 251.341C408.463 251.22 408.91 251.159 409.349 251.159C409.63 251.159 409.952 251.193 410.315 251.261C410.683 251.326 411.037 251.46 411.378 251.665C411.723 251.869 412.009 252.178 412.236 252.591C412.463 253.004 412.577 253.557 412.577 254.25V260H411.236V258.818H411.168C411.077 259.008 410.925 259.21 410.713 259.426C410.501 259.642 410.219 259.826 409.866 259.977C409.514 260.129 409.084 260.205 408.577 260.205ZM408.781 259C409.312 259 409.759 258.896 410.122 258.688C410.49 258.479 410.766 258.21 410.952 257.881C411.141 257.551 411.236 257.205 411.236 256.841V255.614C411.179 255.682 411.054 255.744 410.861 255.801C410.671 255.854 410.452 255.902 410.202 255.943C409.955 255.981 409.715 256.015 409.48 256.045C409.249 256.072 409.062 256.095 408.918 256.114C408.569 256.159 408.243 256.233 407.94 256.335C407.641 256.434 407.399 256.583 407.213 256.784C407.031 256.981 406.94 257.25 406.94 257.591C406.94 258.057 407.113 258.409 407.457 258.648C407.806 258.883 408.247 259 408.781 259ZM421.206 253.227L420.001 253.568C419.926 253.367 419.814 253.172 419.666 252.983C419.522 252.79 419.325 252.631 419.075 252.506C418.825 252.381 418.505 252.318 418.115 252.318C417.581 252.318 417.136 252.441 416.78 252.688C416.428 252.93 416.251 253.239 416.251 253.614C416.251 253.947 416.373 254.21 416.615 254.403C416.857 254.597 417.236 254.758 417.751 254.886L419.047 255.205C419.827 255.394 420.409 255.684 420.791 256.074C421.174 256.46 421.365 256.958 421.365 257.568C421.365 258.068 421.221 258.515 420.933 258.909C420.649 259.303 420.251 259.614 419.74 259.841C419.229 260.068 418.634 260.182 417.956 260.182C417.066 260.182 416.329 259.989 415.746 259.602C415.162 259.216 414.793 258.652 414.638 257.909L415.911 257.591C416.032 258.061 416.261 258.413 416.598 258.648C416.939 258.883 417.384 259 417.933 259C418.558 259 419.054 258.867 419.422 258.602C419.793 258.333 419.979 258.011 419.979 257.636C419.979 257.333 419.873 257.08 419.661 256.875C419.448 256.667 419.123 256.511 418.683 256.409L417.229 256.068C416.429 255.879 415.842 255.585 415.467 255.188C415.096 254.786 414.911 254.284 414.911 253.682C414.911 253.189 415.049 252.754 415.325 252.375C415.606 251.996 415.986 251.699 416.467 251.483C416.952 251.267 417.501 251.159 418.115 251.159C418.979 251.159 419.657 251.348 420.149 251.727C420.645 252.106 420.998 252.606 421.206 253.227ZM427.043 260.182C426.202 260.182 425.476 259.996 424.866 259.625C424.26 259.25 423.793 258.727 423.463 258.057C423.137 257.383 422.974 256.598 422.974 255.705C422.974 254.811 423.137 254.023 423.463 253.341C423.793 252.655 424.251 252.121 424.838 251.739C425.429 251.352 426.118 251.159 426.906 251.159C427.361 251.159 427.81 251.235 428.253 251.386C428.696 251.538 429.099 251.784 429.463 252.125C429.827 252.462 430.116 252.909 430.332 253.466C430.548 254.023 430.656 254.708 430.656 255.523V256.091H423.929V254.932H429.293C429.293 254.439 429.194 254 428.997 253.614C428.804 253.227 428.527 252.922 428.168 252.699C427.812 252.475 427.391 252.364 426.906 252.364C426.372 252.364 425.91 252.496 425.52 252.761C425.134 253.023 424.836 253.364 424.628 253.784C424.42 254.205 424.315 254.655 424.315 255.136V255.909C424.315 256.568 424.429 257.127 424.656 257.585C424.887 258.04 425.207 258.386 425.616 258.625C426.026 258.86 426.501 258.977 427.043 258.977C427.395 258.977 427.713 258.928 427.997 258.83C428.285 258.727 428.533 258.576 428.741 258.375C428.95 258.17 429.111 257.917 429.224 257.614L430.52 257.977C430.384 258.417 430.154 258.803 429.832 259.136C429.51 259.466 429.113 259.723 428.639 259.909C428.166 260.091 427.634 260.182 427.043 260.182ZM438.787 248.364V260H437.378V248.364H438.787ZM442.771 254.75V260H441.43V251.273H442.726V252.636H442.839C443.044 252.193 443.355 251.837 443.771 251.568C444.188 251.295 444.726 251.159 445.385 251.159C445.976 251.159 446.493 251.28 446.936 251.523C447.379 251.761 447.724 252.125 447.97 252.614C448.216 253.098 448.339 253.712 448.339 254.455V260H446.999V254.545C446.999 253.86 446.821 253.326 446.464 252.943C446.108 252.557 445.62 252.364 444.999 252.364C444.571 252.364 444.188 252.456 443.851 252.642C443.518 252.828 443.254 253.098 443.061 253.455C442.868 253.811 442.771 254.242 442.771 254.75ZM461.835 251.273C461.767 250.697 461.491 250.25 461.006 249.932C460.521 249.614 459.926 249.455 459.222 249.455C458.706 249.455 458.256 249.538 457.869 249.705C457.487 249.871 457.188 250.1 456.972 250.392C456.759 250.684 456.653 251.015 456.653 251.386C456.653 251.697 456.727 251.964 456.875 252.188C457.027 252.407 457.22 252.591 457.455 252.739C457.689 252.883 457.936 253.002 458.193 253.097C458.451 253.187 458.688 253.261 458.903 253.318L460.085 253.636C460.388 253.716 460.725 253.826 461.097 253.966C461.472 254.106 461.83 254.297 462.17 254.54C462.515 254.778 462.799 255.085 463.023 255.46C463.246 255.835 463.358 256.295 463.358 256.841C463.358 257.47 463.193 258.038 462.864 258.545C462.538 259.053 462.061 259.456 461.432 259.756C460.807 260.055 460.047 260.205 459.153 260.205C458.32 260.205 457.598 260.07 456.989 259.801C456.383 259.532 455.905 259.157 455.557 258.676C455.212 258.195 455.017 257.636 454.972 257H456.426C456.464 257.439 456.612 257.803 456.869 258.091C457.131 258.375 457.46 258.587 457.858 258.727C458.259 258.864 458.691 258.932 459.153 258.932C459.691 258.932 460.174 258.845 460.602 258.67C461.03 258.492 461.369 258.246 461.619 257.932C461.869 257.614 461.994 257.242 461.994 256.818C461.994 256.432 461.886 256.117 461.67 255.875C461.455 255.633 461.17 255.436 460.818 255.284C460.466 255.133 460.085 255 459.676 254.886L458.244 254.477C457.335 254.216 456.616 253.843 456.085 253.358C455.555 252.873 455.29 252.239 455.29 251.455C455.29 250.803 455.466 250.235 455.818 249.75C456.174 249.261 456.652 248.883 457.25 248.614C457.852 248.341 458.525 248.205 459.267 248.205C460.017 248.205 460.684 248.339 461.267 248.608C461.85 248.873 462.313 249.237 462.653 249.699C462.998 250.161 463.18 250.686 463.199 251.273H461.835ZM468.061 260.205C467.508 260.205 467.006 260.1 466.555 259.892C466.105 259.68 465.747 259.375 465.482 258.977C465.216 258.576 465.084 258.091 465.084 257.523C465.084 257.023 465.182 256.617 465.379 256.307C465.576 255.992 465.839 255.746 466.169 255.568C466.499 255.39 466.862 255.258 467.26 255.17C467.661 255.08 468.065 255.008 468.47 254.955C469 254.886 469.43 254.835 469.76 254.801C470.093 254.763 470.336 254.701 470.487 254.614C470.643 254.527 470.72 254.375 470.72 254.159V254.114C470.72 253.553 470.567 253.117 470.26 252.807C469.957 252.496 469.497 252.341 468.879 252.341C468.239 252.341 467.737 252.481 467.374 252.761C467.01 253.042 466.754 253.341 466.607 253.659L465.334 253.205C465.561 252.674 465.864 252.261 466.243 251.966C466.625 251.667 467.042 251.458 467.493 251.341C467.947 251.22 468.394 251.159 468.834 251.159C469.114 251.159 469.436 251.193 469.8 251.261C470.167 251.326 470.521 251.46 470.862 251.665C471.207 251.869 471.493 252.178 471.72 252.591C471.947 253.004 472.061 253.557 472.061 254.25V260H470.72V258.818H470.652C470.561 259.008 470.41 259.21 470.197 259.426C469.985 259.642 469.703 259.826 469.351 259.977C468.999 260.129 468.569 260.205 468.061 260.205ZM468.266 259C468.796 259 469.243 258.896 469.607 258.688C469.974 258.479 470.25 258.21 470.436 257.881C470.625 257.551 470.72 257.205 470.72 256.841V255.614C470.663 255.682 470.538 255.744 470.345 255.801C470.156 255.854 469.936 255.902 469.686 255.943C469.44 255.981 469.199 256.015 468.964 256.045C468.733 256.072 468.546 256.095 468.402 256.114C468.054 256.159 467.728 256.233 467.425 256.335C467.125 256.434 466.883 256.583 466.697 256.784C466.516 256.981 466.425 257.25 466.425 257.591C466.425 258.057 466.597 258.409 466.942 258.648C467.29 258.883 467.732 259 468.266 259ZM475.849 248.364V260H474.509V248.364H475.849ZM481.964 260.182C481.124 260.182 480.398 259.996 479.788 259.625C479.182 259.25 478.714 258.727 478.385 258.057C478.059 257.383 477.896 256.598 477.896 255.705C477.896 254.811 478.059 254.023 478.385 253.341C478.714 252.655 479.173 252.121 479.76 251.739C480.351 251.352 481.04 251.159 481.828 251.159C482.283 251.159 482.732 251.235 483.175 251.386C483.618 251.538 484.021 251.784 484.385 252.125C484.749 252.462 485.038 252.909 485.254 253.466C485.47 254.023 485.578 254.708 485.578 255.523V256.091H478.851V254.932H484.214C484.214 254.439 484.116 254 483.919 253.614C483.726 253.227 483.449 252.922 483.089 252.699C482.733 252.475 482.313 252.364 481.828 252.364C481.294 252.364 480.832 252.496 480.442 252.761C480.055 253.023 479.758 253.364 479.55 253.784C479.341 254.205 479.237 254.655 479.237 255.136V255.909C479.237 256.568 479.351 257.127 479.578 257.585C479.809 258.04 480.129 258.386 480.538 258.625C480.947 258.86 481.423 258.977 481.964 258.977C482.317 258.977 482.635 258.928 482.919 258.83C483.207 258.727 483.455 258.576 483.663 258.375C483.872 258.17 484.033 257.917 484.146 257.614L485.442 257.977C485.305 258.417 485.076 258.803 484.754 259.136C484.432 259.466 484.035 259.723 483.561 259.909C483.088 260.091 482.555 260.182 481.964 260.182ZM493.8 253.227L492.595 253.568C492.519 253.367 492.408 253.172 492.26 252.983C492.116 252.79 491.919 252.631 491.669 252.506C491.419 252.381 491.099 252.318 490.709 252.318C490.175 252.318 489.73 252.441 489.374 252.688C489.021 252.93 488.845 253.239 488.845 253.614C488.845 253.947 488.966 254.21 489.209 254.403C489.451 254.597 489.83 254.758 490.345 254.886L491.641 255.205C492.421 255.394 493.002 255.684 493.385 256.074C493.768 256.46 493.959 256.958 493.959 257.568C493.959 258.068 493.815 258.515 493.527 258.909C493.243 259.303 492.845 259.614 492.334 259.841C491.822 260.068 491.228 260.182 490.55 260.182C489.66 260.182 488.923 259.989 488.339 259.602C487.756 259.216 487.387 258.652 487.232 257.909L488.504 257.591C488.625 258.061 488.855 258.413 489.192 258.648C489.533 258.883 489.978 259 490.527 259C491.152 259 491.648 258.867 492.016 258.602C492.387 258.333 492.572 258.011 492.572 257.636C492.572 257.333 492.466 257.08 492.254 256.875C492.042 256.667 491.716 256.511 491.277 256.409L489.822 256.068C489.023 255.879 488.436 255.585 488.061 255.188C487.69 254.786 487.504 254.284 487.504 253.682C487.504 253.189 487.643 252.754 487.919 252.375C488.199 251.996 488.58 251.699 489.061 251.483C489.546 251.267 490.095 251.159 490.709 251.159C491.572 251.159 492.25 251.348 492.743 251.727C493.239 252.106 493.591 252.606 493.8 253.227Z" fill="#989898"/>
<path d="M408.425 552V540.364H412.357C413.266 540.364 414.012 540.519 414.595 540.83C415.179 541.136 415.61 541.559 415.891 542.097C416.171 542.634 416.311 543.246 416.311 543.932C416.311 544.617 416.171 545.225 415.891 545.756C415.61 546.286 415.18 546.703 414.601 547.006C414.021 547.305 413.281 547.455 412.379 547.455H409.197V546.182H412.334C412.955 546.182 413.455 546.091 413.834 545.909C414.216 545.727 414.493 545.47 414.663 545.136C414.838 544.799 414.925 544.398 414.925 543.932C414.925 543.466 414.838 543.059 414.663 542.71C414.489 542.362 414.211 542.093 413.828 541.903C413.446 541.71 412.94 541.614 412.311 541.614H409.834V552H408.425ZM413.902 546.773L416.766 552H415.129L412.311 546.773H413.902ZM421.045 552.205C420.492 552.205 419.991 552.1 419.54 551.892C419.089 551.68 418.731 551.375 418.466 550.977C418.201 550.576 418.068 550.091 418.068 549.523C418.068 549.023 418.167 548.617 418.364 548.307C418.561 547.992 418.824 547.746 419.153 547.568C419.483 547.39 419.847 547.258 420.244 547.17C420.646 547.08 421.049 547.008 421.455 546.955C421.985 546.886 422.415 546.835 422.744 546.801C423.078 546.763 423.32 546.701 423.472 546.614C423.627 546.527 423.705 546.375 423.705 546.159V546.114C423.705 545.553 423.551 545.117 423.244 544.807C422.941 544.496 422.481 544.341 421.864 544.341C421.223 544.341 420.722 544.481 420.358 544.761C419.994 545.042 419.739 545.341 419.591 545.659L418.318 545.205C418.545 544.674 418.848 544.261 419.227 543.966C419.61 543.667 420.027 543.458 420.477 543.341C420.932 543.22 421.379 543.159 421.818 543.159C422.098 543.159 422.42 543.193 422.784 543.261C423.152 543.326 423.506 543.46 423.847 543.665C424.191 543.869 424.477 544.178 424.705 544.591C424.932 545.004 425.045 545.557 425.045 546.25V552H423.705V550.818H423.636C423.545 551.008 423.394 551.21 423.182 551.426C422.97 551.642 422.688 551.826 422.335 551.977C421.983 552.129 421.553 552.205 421.045 552.205ZM421.25 551C421.78 551 422.227 550.896 422.591 550.688C422.958 550.479 423.235 550.21 423.42 549.881C423.61 549.551 423.705 549.205 423.705 548.841V547.614C423.648 547.682 423.523 547.744 423.33 547.801C423.14 547.854 422.92 547.902 422.67 547.943C422.424 547.981 422.184 548.015 421.949 548.045C421.718 548.072 421.53 548.095 421.386 548.114C421.038 548.159 420.712 548.233 420.409 548.335C420.11 548.434 419.867 548.583 419.682 548.784C419.5 548.981 419.409 549.25 419.409 549.591C419.409 550.057 419.581 550.409 419.926 550.648C420.275 550.883 420.716 551 421.25 551ZM431.288 543.273V544.409H426.766V543.273H431.288ZM428.084 541.182H429.425V549.5C429.425 549.879 429.48 550.163 429.589 550.352C429.703 550.538 429.847 550.663 430.021 550.727C430.199 550.788 430.387 550.818 430.584 550.818C430.732 550.818 430.853 550.811 430.947 550.795C431.042 550.777 431.118 550.761 431.175 550.75L431.447 551.955C431.357 551.989 431.23 552.023 431.067 552.057C430.904 552.095 430.697 552.114 430.447 552.114C430.069 552.114 429.697 552.032 429.334 551.869C428.974 551.706 428.675 551.458 428.436 551.125C428.201 550.792 428.084 550.371 428.084 549.864V541.182ZM433.305 552V543.273H434.646V552H433.305ZM433.987 541.818C433.726 541.818 433.5 541.729 433.311 541.551C433.125 541.373 433.033 541.159 433.033 540.909C433.033 540.659 433.125 540.445 433.311 540.267C433.5 540.089 433.726 540 433.987 540C434.249 540 434.472 540.089 434.658 540.267C434.847 540.445 434.942 540.659 434.942 540.909C434.942 541.159 434.847 541.373 434.658 541.551C434.472 541.729 434.249 541.818 433.987 541.818ZM438.443 546.75V552H437.102V543.273H438.398V544.636H438.511C438.716 544.193 439.027 543.837 439.443 543.568C439.86 543.295 440.398 543.159 441.057 543.159C441.648 543.159 442.165 543.28 442.608 543.523C443.051 543.761 443.396 544.125 443.642 544.614C443.888 545.098 444.011 545.712 444.011 546.455V552H442.67V546.545C442.67 545.86 442.492 545.326 442.136 544.943C441.78 544.557 441.292 544.364 440.67 544.364C440.242 544.364 439.86 544.456 439.523 544.642C439.189 544.828 438.926 545.098 438.733 545.455C438.54 545.811 438.443 546.242 438.443 546.75ZM449.984 555.455C449.337 555.455 448.78 555.371 448.314 555.205C447.848 555.042 447.46 554.826 447.149 554.557C446.842 554.292 446.598 554.008 446.416 553.705L447.484 552.955C447.606 553.114 447.759 553.295 447.945 553.5C448.13 553.708 448.384 553.888 448.706 554.04C449.032 554.195 449.458 554.273 449.984 554.273C450.689 554.273 451.27 554.102 451.729 553.761C452.187 553.42 452.416 552.886 452.416 552.159V550.386H452.303C452.204 550.545 452.064 550.742 451.882 550.977C451.704 551.208 451.446 551.415 451.109 551.597C450.776 551.775 450.325 551.864 449.757 551.864C449.053 551.864 448.42 551.697 447.859 551.364C447.303 551.03 446.861 550.545 446.536 549.909C446.214 549.273 446.053 548.5 446.053 547.591C446.053 546.697 446.21 545.919 446.524 545.256C446.839 544.589 447.276 544.074 447.837 543.71C448.397 543.343 449.045 543.159 449.78 543.159C450.348 543.159 450.799 543.254 451.132 543.443C451.469 543.629 451.727 543.841 451.905 544.08C452.087 544.314 452.227 544.508 452.325 544.659H452.462V543.273H453.757V552.25C453.757 553 453.587 553.61 453.246 554.08C452.909 554.553 452.454 554.9 451.882 555.119C451.314 555.343 450.681 555.455 449.984 555.455ZM449.939 550.659C450.477 550.659 450.931 550.536 451.303 550.29C451.674 550.044 451.956 549.689 452.149 549.227C452.342 548.765 452.439 548.212 452.439 547.568C452.439 546.939 452.344 546.384 452.155 545.903C451.965 545.422 451.685 545.045 451.314 544.773C450.943 544.5 450.484 544.364 449.939 544.364C449.371 544.364 448.897 544.508 448.518 544.795C448.143 545.083 447.861 545.47 447.672 545.955C447.486 546.439 447.393 546.977 447.393 547.568C447.393 548.174 447.488 548.71 447.678 549.176C447.871 549.638 448.155 550.002 448.53 550.267C448.909 550.528 449.378 550.659 449.939 550.659Z" fill="#989898"/>
<path d="M452 134.25V118H435.75" stroke="#70D0D9" stroke-width="2.25" stroke-linecap="round" stroke-linejoin="round"/>
<path d="M451.5 118.5L435.75 134.25C432.882 137.118 431.448 138.552 429.687 138.711C429.396 138.737 429.104 138.737 428.813 138.711C427.052 138.552 425.618 137.118 422.75 134.25C419.882 131.382 418.447 129.948 416.687 129.789C416.396 129.763 416.104 129.763 415.813 129.789C414.053 129.948 412.618 131.382 409.75 134.25L400 144" stroke="#70D0D9" stroke-width="2.56" stroke-linecap="round" stroke-linejoin="round"/>
<line x1="399.28" y1="160.72" x2="453.72" y2="160.72" stroke="#70D0D9" stroke-width="2.56" stroke-linecap="round" stroke-linejoin="round"/>
<path d="M190 377.875H183.028C181.525 377.875 180.773 377.875 180.065 377.66C179.356 377.446 178.731 377.029 177.481 376.195C175.605 374.945 173.466 373.519 172.403 373.197C171.34 372.875 170.213 372.875 167.958 372.875C164.893 372.875 162.917 372.875 161.539 373.446C160.16 374.017 159.076 375.101 156.909 377.268L155.001 379.176C154.512 379.665 154.268 379.909 154.117 380.15C153.558 381.044 153.62 382.193 154.272 383.021C154.448 383.245 154.717 383.461 155.255 383.895C157.245 385.496 160.113 385.336 161.915 383.524L165 380.42H167.5L182.5 395.509C183.881 396.898 183.881 399.15 182.5 400.539C181.119 401.928 178.881 401.928 177.5 400.539L176.25 399.281M176.25 399.281L168.75 391.737M176.25 399.281C177.631 400.67 177.631 402.922 176.25 404.311C174.869 405.7 172.631 405.7 171.25 404.311L168.75 401.796M168.75 401.796C170.131 403.185 170.131 405.437 168.75 406.826C167.369 408.215 165.131 408.215 163.75 406.826L160 403.053M168.75 401.796L163.75 396.796M160 403.053L158.75 401.796M160 403.053C161.381 404.442 161.381 406.694 160 408.083C158.619 409.472 156.381 409.472 155 408.083L147.941 400.877C146.49 399.396 145.765 398.656 144.836 398.265C143.907 397.875 142.87 397.875 140.797 397.875H140" stroke="#70D0D9" stroke-width="2.56" stroke-linecap="round" stroke-linejoin="round"/>
<path d="M190 397.875H183.75" stroke="#70D0D9" stroke-width="2.56" stroke-linecap="round" stroke-linejoin="round"/>
<path d="M156.25 377.875H140" stroke="#70D0D9" stroke-width="2.56" stroke-linecap="round" stroke-linejoin="round"/>
<path d="M435.175 406.323L439.428 414.899C440.008 416.093 441.554 417.238 442.859 417.458L450.567 418.749C455.497 419.577 456.657 423.183 453.104 426.74L447.112 432.782C446.097 433.806 445.541 435.779 445.855 437.192L447.571 444.672C448.924 450.592 445.807 452.883 440.612 449.788L433.387 445.476C432.082 444.696 429.931 444.696 428.602 445.476L421.377 449.788C416.206 452.883 413.065 450.568 414.418 444.672L416.134 437.192C416.448 435.779 415.892 433.806 414.877 432.782L408.884 426.74C405.356 423.183 406.492 419.577 411.422 418.749L419.13 417.458C420.411 417.238 421.957 416.093 422.537 414.899L426.79 406.323C429.11 401.67 432.879 401.67 435.175 406.323Z" stroke="#70D0D9" stroke-width="2.56" stroke-linecap="round" stroke-linejoin="round"/>
<defs>
<filter id="filter0_d_174_2432" x="0.799999" y="0.799999" width="329.4" height="359.4" filterUnits="userSpaceOnUse" color-interpolation-filters="sRGB">
<feFlood flood-opacity="0" result="BackgroundImageFix"/>
<feColorMatrix in="SourceAlpha" type="matrix" values="0 0 0 0 0 0 0 0 0 0 0 0 0 0 0 0 0 0 127 0" result="hardAlpha"/>
<feMorphology radius="12" operator="erode" in="SourceAlpha" result="effect1_dropShadow_174_2432"/>
<feOffset dy="31"/>
<feGaussianBlur stdDeviation="31.1"/>
<feComposite in2="hardAlpha" operator="out"/>
<feColorMatrix type="matrix" values="0 0 0 0 0 0 0 0 0 0 0 0 0 0 0 0 0 0 0.08 0"/>
<feBlend mode="normal" in2="BackgroundImageFix" result="effect1_dropShadow_174_2432"/>
<feBlend mode="normal" in="SourceGraphic" in2="effect1_dropShadow_174_2432" result="shape"/>
</filter>
<filter id="filter1_d_174_2432" x="0.799999" y="292.8" width="329.4" height="359.4" filterUnits="userSpaceOnUse" color-interpolation-filters="sRGB">
<feFlood flood-opacity="0" result="BackgroundImageFix"/>
<feColorMatrix in="SourceAlpha" type="matrix" values="0 0 0 0 0 0 0 0 0 0 0 0 0 0 0 0 0 0 127 0" result="hardAlpha"/>
<feMorphology radius="12" operator="erode" in="SourceAlpha" result="effect1_dropShadow_174_2432"/>
<feOffset dy="31"/>
<feGaussianBlur stdDeviation="31.1"/>
<feComposite in2="hardAlpha" operator="out"/>
<feColorMatrix type="matrix" values="0 0 0 0 0 0 0 0 0 0 0 0 0 0 0 0 0 0 0.08 0"/>
<feBlend mode="normal" in2="BackgroundImageFix" result="effect1_dropShadow_174_2432"/>
<feBlend mode="normal" in="SourceGraphic" in2="effect1_dropShadow_174_2432" result="shape"/>
</filter>
<filter id="filter2_d_174_2432" x="266.8" y="33.8" width="329.4" height="359.4" filterUnits="userSpaceOnUse" color-interpolation-filters="sRGB">
<feFlood flood-opacity="0" result="BackgroundImageFix"/>
<feColorMatrix in="SourceAlpha" type="matrix" values="0 0 0 0 0 0 0 0 0 0 0 0 0 0 0 0 0 0 127 0" result="hardAlpha"/>
<feMorphology radius="12" operator="erode" in="SourceAlpha" result="effect1_dropShadow_174_2432"/>
<feOffset dy="31"/>
<feGaussianBlur stdDeviation="31.1"/>
<feComposite in2="hardAlpha" operator="out"/>
<feColorMatrix type="matrix" values="0 0 0 0 0 0 0 0 0 0 0 0 0 0 0 0 0 0 0.08 0"/>
<feBlend mode="normal" in2="BackgroundImageFix" result="effect1_dropShadow_174_2432"/>
<feBlend mode="normal" in="SourceGraphic" in2="effect1_dropShadow_174_2432" result="shape"/>
</filter>
<filter id="filter3_d_174_2432" x="266.8" y="325.8" width="329.4" height="359.4" filterUnits="userSpaceOnUse" color-interpolation-filters="sRGB">
<feFlood flood-opacity="0" result="BackgroundImageFix"/>
<feColorMatrix in="SourceAlpha" type="matrix" values="0 0 0 0 0 0 0 0 0 0 0 0 0 0 0 0 0 0 127 0" result="hardAlpha"/>
<feMorphology radius="12" operator="erode" in="SourceAlpha" result="effect1_dropShadow_174_2432"/>
<feOffset dy="31"/>
<feGaussianBlur stdDeviation="31.1"/>
<feComposite in2="hardAlpha" operator="out"/>
<feColorMatrix type="matrix" values="0 0 0 0 0 0 0 0 0 0 0 0 0 0 0 0 0 0 0.08 0"/>
<feBlend mode="normal" in2="BackgroundImageFix" result="effect1_dropShadow_174_2432"/>
<feBlend mode="normal" in="SourceGraphic" in2="effect1_dropShadow_174_2432" result="shape"/>
</filter>
</defs>
</svg>
