<?xml version="1.0" encoding="utf-8"?>
<!-- Generator: Adobe Illustrator 24.3.0, SVG Export Plug-In . SVG Version: 6.00 Build 0)  -->
<svg version="1.1" id="Layer_1" xmlns="http://www.w3.org/2000/svg" xmlns:xlink="http://www.w3.org/1999/xlink" x="0px" y="0px"
	 viewBox="0 0 216 216" style="enable-background:new 0 0 216 216;" xml:space="preserve">
<style type="text/css">
	.st0{fill-rule:evenodd;clip-rule:evenodd;fill:#5FAA44;}
	.st1{fill-rule:evenodd;clip-rule:evenodd;fill:#FFFFFF;}
	.st2{fill-rule:evenodd;clip-rule:evenodd;fill:#AFD4A1;}
</style>
<g>
	<polygon class="st0" points="-0.29,0 216.29,0 216.29,216 -0.29,216 -0.29,0 	"/>
	<path class="st1" d="M-0.29,40.76c7.58,6.23,16.34,15.98,23.73,23.36c8,7.98,15.19,15.09,23.2,23.06l34.81,34.59
		c4.57,4.58,5.08,7.06,2.75,10.67c-5.6,8.66-11.48,2.22-16.49-2.75C57.57,119.63,5.43,66.09-0.29,63.07v42.14
		c4.85,3.41,10.15,9.61,14.69,14.13c5.12,5.09,9.39,9.33,14.49,14.42c9.27,9.24,18.82,19.76,28.42,28.27
		c4.75,4.21,12.7,7.06,18.69,10.26c6.33,3.38,11.77,6.44,18.01,9.67c8.13,4.21,53.59,33.28,39.15,3.7L99.2,121.41L39.48,61.99
		C33.13,55.66,4.23,26-0.29,23.06V40.76L-0.29,40.76z"/>
	<polygon class="st2" points="178.38,130.09 136.23,130.12 142.03,155.55 172.73,155.65 178.38,130.09 	"/>
	<path class="st2" d="M71.44,0H64.1c5.08,18.8,22.16,46.73,31.63,61.01c13.47,20.31,25.15,33.11,41.1,50.51
		C115.52,84.2,78.74,29.71,71.44,0L71.44,0z M157.24,0v115.98v0h-0.02h-0.48c-1.17-0.01-2.64-0.07-4.52-0.09
		C143.01,75.06,131.27,47.2,126.24,0H157.24L157.24,0z M101.03,0h-20.3c6.37,27.34,41.66,93.71,65.48,113.59
		C127.77,82.18,110.93,40.44,101.03,0L101.03,0z"/>
	<path class="st2" d="M216.29,62.72c-12.99,19.33-24.46,31.89-39.95,48.8c11.21-14.38,26.72-36.29,39.95-58.15V62.72L216.29,62.72z
		 M155.92,0v115.98v0h0.02h0.48c1.17-0.01,2.64-0.07,4.52-0.09C170.15,75.06,181.89,47.2,186.92,0H155.92L155.92,0z M212.14,0h4.15
		v40.51c-14.06,28.44-34.06,60.32-49.34,73.08C185.39,82.18,202.23,40.44,212.14,0L212.14,0z"/>
</g>
</svg>
