<svg width="77" height="77" viewBox="0 0 77 77" fill="none" xmlns="http://www.w3.org/2000/svg">
<rect width="77" height="77" rx="15" fill="#FFC800" fill-opacity="0.08"/>
<path d="M25.3148 46C24.4706 44.0302 24 41.8388 24 39.5294C24 30.9528 30.4919 24 38.5 24C46.5082 24 53 30.9528 53 39.5294C53 41.8388 52.5293 44.0302 51.6852 46" stroke="#70D0D9" stroke-width="2" stroke-linecap="round"/>
<path d="M39 16V18" stroke="#70D0D9" stroke-width="2" stroke-linecap="round" stroke-linejoin="round"/>
<path d="M61 38H59" stroke="#70D0D9" stroke-width="2" stroke-linecap="round" stroke-linejoin="round"/>
<path d="M18 38H16" stroke="#70D0D9" stroke-width="2" stroke-linecap="round" stroke-linejoin="round"/>
<path d="M54 23L52 25" stroke="#70D0D9" stroke-width="2" stroke-linecap="round" stroke-linejoin="round"/>
<path d="M25 25L23 23" stroke="#70D0D9" stroke-width="2" stroke-linecap="round" stroke-linejoin="round"/>
<path d="M44.3882 54.995C46.7688 54.2667 47.7235 52.2059 47.9921 50.1329C48.0722 49.5137 47.5336 49 46.8739 49L30.1569 49.0004C29.4746 49.0004 28.9266 49.5482 29.008 50.1889C29.2711 52.2578 29.9351 53.7691 32.4579 54.995M44.3882 54.995C44.3882 54.995 32.8732 54.995 32.4579 54.995M44.3882 54.995C44.1019 59.3293 42.7785 61.0459 38.4739 60.9978C33.8695 61.0782 32.8103 58.9565 32.4579 54.995" stroke="#70D0D9" stroke-width="2" stroke-linecap="round" stroke-linejoin="round"/>
</svg>
