<?xml version="1.0" encoding="utf-8"?>
<!-- Generator: Adobe Illustrator 24.3.0, SVG Export Plug-In . SVG Version: 6.00 Build 0)  -->
<svg version="1.1" id="Layer_1" xmlns="http://www.w3.org/2000/svg" xmlns:xlink="http://www.w3.org/1999/xlink" x="0px" y="0px"
	 viewBox="0 0 216 216" style="enable-background:new 0 0 216 216;" xml:space="preserve">
<style type="text/css">
	.st0{fill:#001E36;}
	.st1{fill:#30A8FF;}
</style>
<g>
	<path class="st0" d="M178.85,216H37.15c-21.93,0-39.71-17.78-39.71-39.71V39.71C-2.56,17.78,15.22,0,37.15,0h141.69
		c21.93,0,39.71,17.78,39.71,39.71v136.58C218.56,198.22,200.78,216,178.85,216z"/>
	<g>
		<path class="st1" d="M84.17,55.34H48.13v96.03h20.23v-29.99h15.81c9.12,0,17.37-3.7,23.35-9.67c5.97-5.98,9.67-14.23,9.67-23.35
			C117.18,70.12,102.4,55.34,84.17,55.34z M92.63,99.37c-2.82,2.82-6.71,4.56-11.02,4.56H68.36V72.77h13.25
			c8.6,0,15.58,6.98,15.58,15.58C97.19,92.65,95.44,96.55,92.63,99.37z"/>
	</g>
	<path class="st1" d="M180.31,129.83c0,6.37-2.97,12.46-7.66,16.71c-5.29,4.79-12.63,6.83-19.61,7.37c-0.84,0.06-1.67,0.1-2.51,0.12
		c-7.76,0.16-15.91-1.49-22.96-4.75c-0.07-0.03-0.15-0.07-0.22-0.1c0.01-5.65,0.02-11.31,0.03-16.96c0,0.31,5.61,1.67,6.3,1.89
		c6.4,2.1,14.04,3.67,20.78,2.81c1.42-0.18,2.89-0.54,3.99-1.45c4.16-3.45-0.06-7.75-3.45-9.4c-3.67-1.79-7.63-2.92-11.39-4.53
		c-3.56-1.53-6.95-3.52-9.78-6.15c-9.37-8.73-9.01-23.4,0.54-31.89c5.41-4.8,12.71-6.33,19.77-6.64c7.3-0.32,14.67,0.98,21.42,3.76
		c0.26,0.11,0.53,0.23,0.68,0.47c0.12,0.2,0.13,0.46,0.13,0.69c0.01,5.77,0.01,11.55,0.02,17.32c-1.1-0.94-2.61-1.33-3.91-1.9
		c-1.41-0.62-2.86-1.16-4.33-1.64c-5.21-1.67-11.97-3.21-17.31-1.38c-1.96,0.67-3.43,2.07-3.43,4.25c0,3.36,3.3,4.98,5.99,6.21
		c3.34,1.52,6.9,2.45,10.23,3.99C172.28,112.64,180.31,119.52,180.31,129.83z"/>
</g>
</svg>
