<?xml version="1.0" encoding="utf-8"?>
<!-- Generator: Adobe Illustrator 24.3.0, SVG Export Plug-In . SVG Version: 6.00 Build 0)  -->
<svg version="1.1" id="Layer_1" xmlns="http://www.w3.org/2000/svg" xmlns:xlink="http://www.w3.org/1999/xlink" x="0px" y="0px"
	 viewBox="0 0 319.58 216" style="enable-background:new 0 0 319.58 216;" xml:space="preserve">
<style type="text/css">
	.st0{fill:#D9589F;}
	.st1{fill:#524FA0;}
	.st2{fill:#00A89C;}
</style>
<g>
	<path class="st0" d="M129.47,1.59c-0.36,1.77,1.29,3.14,0.3,4.79c-1.47,3.93-3.44,8.25-1.63,12.52c1.63-0.01,3-2.67,4.52-1.19
		c-1.24,0.9-0.22,2.79-0.96,3.93c-0.31,5.8-0.49,13.13,0.58,19.17c1.96,6.42,1.5,11.09,1.69,17.52c-5.98,6.5-11.95,12.12-15.27,19.6
		l-32.08,0.72c-0.39-0.62-1.02-0.75-1.51-0.36c-5.66,0.43-12.22-0.5-17.62-0.07c1.95-5.07,3.03-10.39,6.26-14.96
		c3.28-10.13,10.12-18.65,15.69-27.8c11.05-13.25,22.97-28.65,39.02-34.75L129.47,1.59"/>
	<path class="st0" d="M206.73,1.41c2.71,6.28-5.04,11.03-1.33,17.3c1.5-0.14,2.37-1.41,3.49-2.18c1.03,1.75,0.31,4.29-0.43,6.06
		c-0.17,7.07,0.3,16.28,2,23.71l0.63,0.62c-0.45,4.05,1.23,8.06-0.11,11.86c-5.23,5.11-10.58,10.85-14.67,17.2l-0.36,1.53
		l-51.21,0.79c-2.15-1.36,1.62-1.91,0.34-3.67c1.74-1.4,1.22-3.8,2.58-5.46c1.23-3.16,2.58-6.34,3.93-9.5
		c3.43-8.49,9.26-16.13,14.21-23.88c10.96-12.09,20.24-26.21,35.14-33.17c1.25-1.04,3.12-1.56,4.76-2.19L206.73,1.41"/>
	<path class="st0" d="M283.03,6.03c-1.13,0.89,0.03,2.91-1.48,3.68c-1.1,2.79-0.32,5.31-0.41,8.46c1.64,0.99,2.62-1.54,4.13-1.81
		c1.15,2.14-0.71,3.67-0.57,5.81c-1.64,11.38,3.51,22.94,2.88,35.44c-5.22,6.25-12.44,12-15.88,19.99l-26.31,0.52
		c-0.11,0.63-0.38-1.51-1.25,0.01c-7.67,0.46-16.11-0.46-23.65,0c-0.16-3.53,2.57-6.59,3.29-10.13c1.36-3.42,3.2-6.6,5.05-10.03
		c2.2-5.95,5.8-11.42,9.52-16.76c11.04-15.64,24.08-31.68,40.73-40.31c0.88,0.12,1.63-0.27,2.13-0.9
		C283.35,1.11,283.76,3.88,283.03,6.03"/>
	<path class="st1" d="M78.83,152.81c1.14,1.52-0.47,3.3-0.83,4.95c-0.57,4.92-1.77,10.73,3.53,13.59c4.18,1.47,8.83,1.29,12.33-1.27
		c1,0.37,0.26,0.88,0.01,1.51c-1.25,0.01-1.62,1.78-3,1.8c-8.98,7.92-16.93,15.96-24.9,25.13c-1.85,3.54-5.59,7.37-8.07,11.06
		c-3.11,2.43-6.32,8.52-11.64,5.67c-5.06-2.47-8.88-7.1-11.71-11.75c1.5-13.14-1.55-28.88,3.86-40.79
		c-0.77-1.88,1.35-2.67,0.83-4.56c0.61-1.65,0.97-3.41,1.71-4.95L78.83,152.81"/>
	<path class="st1" d="M155.59,153.02c0.07,6.06-4.75,15.07,3.46,18.39c4.55,1.59,8.8-0.85,12.45-1.02
		c-9.34,9.06-20.21,16.76-28.28,27.06c-0.86,2.03-2.72,4.32-4.08,6.48c-3.48,4.21-6.71,8.15-10.82,11.6
		c-6.8-0.05-12.53-5.8-16.49-11.7c-0.31-18.18,0.02-34.2,6.14-50.42L155.59,153.02"/>
	<path class="st1" d="M231.83,152.47c0.06,5.17-3.9,11.78,0.17,16.66c3.83,4.25,10.59,2.03,14.86,0.86l0.38,0.24
		c-1.62,0.9-2.74,3.06-4.49,3.72l0.01,0.63c-2.13,1.55-4.25,3.45-6.36,4.86c-7.72,8.04-17.19,16.84-23,26.74
		c-4.11,3.83-7.31,11.31-13.89,8.6c-4.3-3.1-10.38-6.45-11.94-11.98c0.71-4.3-0.35-9.34,0.73-13.39c-2.01-0.99,1.49-2.04-0.66-3.03
		c1.26-0.51,0.37-1.51-0.01-2.14c0.28-8.34,1.46-16.17,3.4-23.76c1.87-0.52,0.09-2.53,1.46-3.3c0.11-1.77,0.98-3.04,1.47-4.56
		L231.83,152.47"/>
	<polyline class="st2" points="61.5,92.98 10.07,92.98 5.82,101.75 23.28,101.75 7.71,134.64 34.13,134.64 30.59,125.69 
		41.69,101.42 57.25,101.42 61.5,92.98 	"/>
	<path class="st2" d="M85.33,92.98H70.71l-32.56,41.65h21.71l-2.6-6.25c0,0-1.17-1.18,0.95-3.71c2.13-2.53,15.57-20.23,15.57-20.23
		l7.79,18.37H68.82l-4.49,5.74h19.82l2.83,6.07h15.58L85.33,92.98"/>
	<path class="st2" d="M106.09,134.64l3.3-6.41h10.14c0,0,2.36,0,3.55-2.69c1.17-2.7,14.63-32.55,14.63-32.55h15.1l-16.75,37.6
		c0,0-2.59,4.06-6.61,4.06C125.44,134.64,106.09,134.64,106.09,134.64"/>
	<polyline class="st2" points="174.28,92.98 159.41,92.98 141.02,134.64 155.88,134.64 174.28,92.98 	"/>
	<polyline class="st2" points="161.77,134.64 194.81,92.98 203.77,92.98 207.31,105.12 217.21,92.98 231.84,92.98 242.46,134.64 
		227.13,134.64 220.99,110.35 212.03,121.15 215.57,134.64 198.58,134.64 192.67,111.36 180.41,126.87 183.71,134.64 161.77,134.64 
			"/>
	<polyline class="st2" points="271.95,128.56 276.2,122.83 289.17,122.83 281.39,104.45 264.17,126.87 267.47,134.64 245.76,134.64 
		278.56,92.98 293.19,92.98 309.94,134.64 293.89,134.64 291.3,128.56 271.95,128.56 	"/>
	<rect y="77.43" class="st2" width="319.58" height="7.15"/>
	<rect y="145.99" class="st2" width="319.58" height="7.15"/>
</g>
</svg>
