<?xml version="1.0" encoding="utf-8"?>
<!-- Generator: Adobe Illustrator 24.3.0, SVG Export Plug-In . SVG Version: 6.00 Build 0)  -->
<svg version="1.1" id="Layer_1" xmlns="http://www.w3.org/2000/svg" xmlns:xlink="http://www.w3.org/1999/xlink" x="0px" y="0px"
	 viewBox="0 0 364.83 154.65" style="enable-background:new 0 0 364.83 154.65;" xml:space="preserve">
<style type="text/css">
	.st0{fill:#CCCCCC;}
</style>
<g>
	<g>
		<g>
			<path class="st0" d="M333.68,50.5l9.39-14.99h10.12l-9.86,15.52l10.25,15.92h-10.12l-9.79-15.39v15.39h-9.53V19.72l9.53-0.86
				L333.68,50.5z M311.06,49.77c0-4.16-1.72-7.46-6.15-7.46s-6.15,3.3-6.15,7.46v2.91c0,4.16,1.72,7.46,6.15,7.46
				s6.15-3.3,6.15-7.46V49.77z M289.23,52.02v-1.58c0-9.05,5.16-15.59,15.68-15.59s15.68,6.54,15.68,15.59v1.58
				c0,9.05-5.16,15.59-15.68,15.59C294.39,67.61,289.23,61.07,289.23,52.02z M276.53,49.77c0-4.16-1.72-7.46-6.15-7.46
				c-4.43,0-6.15,3.3-6.15,7.46v2.91c0,4.16,1.72,7.46,6.15,7.46c4.43,0,6.15-3.3,6.15-7.46V49.77z M254.71,52.02v-1.58
				c0-9.05,5.16-15.59,15.68-15.59c10.52,0,15.68,6.54,15.68,15.59v1.58c0,9.05-5.16,15.59-15.68,15.59
				C259.87,67.61,254.71,61.07,254.71,52.02z M242.01,50.04c0-4.43-1.72-7.73-6.28-7.73c-3.9,0-6.02,2.77-6.02,7.26v3.3
				c0,4.49,2.12,7.27,6.02,7.27c4.56,0,6.28-3.3,6.28-7.73V50.04z M251.53,52.22c0,8.78-4.23,15.39-12.97,15.39
				c-4.76,0-8.07-2.38-9.39-5.41v4.76h-9V19.72l9.52-0.86v21c1.39-2.77,4.43-5.02,8.87-5.02c8.73,0,12.96,6.6,12.96,15.39
				L251.53,52.22L251.53,52.22z M196.17,48.32h11.51v-0.79c0-3.43-1.39-6.14-5.56-6.14C197.82,41.39,196.17,44.09,196.17,48.32
				 M186.64,52.42v-2.77c0-8.91,5.09-14.79,15.48-14.79c9.79,0,14.09,5.94,14.09,14.66v5.02h-20.04c0.2,4.3,2.12,6.21,7.41,6.21
				c3.57,0,7.34-0.73,10.12-1.92l1.72,6.54c-2.51,1.32-7.67,2.31-12.24,2.31C191.14,67.67,186.64,61.66,186.64,52.42 M176.26,34.85
				c3.7,0,7.21,0.79,9.13,2.11l-2.12,6.74c-1.46-0.73-3.84-1.45-6.35-1.45c-5.16,0-7.41,2.97-7.41,8.06v1.85
				c0,5.08,2.25,8.06,7.41,8.06c2.51,0,4.89-0.73,6.35-1.45l2.12,6.74c-1.92,1.32-5.42,2.11-9.13,2.11
				c-11.18,0-16.27-6.01-16.27-15.65V50.5C159.99,40.86,165.08,34.85,176.26,34.85 M134.85,52.35c0,4.69,1.72,7.79,6.15,7.79
				c3.9,0,5.89-2.84,5.89-7.33v-3.17c0-4.49-1.98-7.33-5.89-7.33c-4.43,0-6.15,3.1-6.15,7.79V52.35z M125.33,50.24
				c0-8.78,4.17-15.39,12.9-15.39c4.76,0,7.67,2.44,9.06,5.48v-4.82h9.13v31.44h-9.13v-4.76c-1.32,3.04-4.3,5.42-9.06,5.42
				c-8.73,0-12.9-6.6-12.9-15.39V50.24L125.33,50.24z M120.57,26.46c-2.98,0-3.84,1.32-3.84,4.23v4.82h7.94l-0.79,7.79h-7.14v23.64
				h-9.52V43.3h-6.42v-7.79h6.42v-4.69c0-7.86,3.17-12.02,12.04-12.02c1.92,0,4.17,0.13,5.56,0.33v7.33H120.57z"/>
		</g>
		<path class="st0" d="M84.76,0H4.95C2.22,0,0,2.22,0,4.95v79.81c0,2.73,2.22,4.95,4.95,4.95h42.96V54.97H36.22V41.43h11.69v-9.98
			c0-11.59,7.08-17.9,17.41-17.9c4.95,0,9.21,0.37,10.45,0.53v12.11l-7.17,0c-5.62,0-6.71,2.67-6.71,6.59v8.64H75.3l-1.75,13.54
			H61.9v34.74h22.86c2.73,0,4.95-2.22,4.95-4.95V4.95C89.71,2.22,87.49,0,84.76,0z"/>
		<g>
			<g>
				<path class="st0" d="M359.75,66.48v-3.7h1.57c0.4,0,0.68,0.03,0.86,0.1c0.18,0.07,0.32,0.18,0.43,0.35
					c0.11,0.17,0.16,0.36,0.16,0.58c0,0.28-0.08,0.51-0.24,0.69c-0.16,0.18-0.41,0.3-0.73,0.34c0.16,0.09,0.3,0.2,0.4,0.31
					c0.11,0.11,0.25,0.31,0.43,0.6l0.45,0.72h-0.89l-0.54-0.81c-0.19-0.29-0.32-0.47-0.39-0.54c-0.07-0.07-0.15-0.13-0.22-0.15
					c-0.08-0.03-0.2-0.04-0.38-0.04h-0.15v1.54H359.75z M360.49,64.34h0.55c0.36,0,0.58-0.02,0.67-0.05
					c0.09-0.03,0.16-0.08,0.21-0.16c0.05-0.07,0.08-0.17,0.08-0.28c0-0.12-0.03-0.23-0.1-0.3c-0.07-0.08-0.16-0.13-0.28-0.15
					c-0.06-0.01-0.24-0.01-0.55-0.01h-0.58V64.34z"/>
			</g>
		</g>
		<g>
			<path class="st0" d="M361.28,68.1c-1.96,0-3.56-1.6-3.56-3.56c0-1.96,1.6-3.56,3.56-3.56c1.96,0,3.56,1.6,3.56,3.56
				C364.83,66.5,363.24,68.1,361.28,68.1z M361.28,61.76c-1.53,0-2.78,1.25-2.78,2.78c0,1.53,1.25,2.78,2.78,2.78
				c1.53,0,2.78-1.25,2.78-2.78C364.06,63.01,362.81,61.76,361.28,61.76z"/>
		</g>
		<g>
			<polygon class="st0" points="71.38,103.42 79.7,120.29 98.31,122.99 84.84,136.12 88.02,154.65 71.38,145.9 54.73,154.65 
				57.91,136.12 44.44,122.99 63.05,120.29 			"/>
			<polygon class="st0" points="130.6,103.42 138.92,120.29 157.53,122.99 144.07,136.12 147.24,154.65 130.6,145.9 113.95,154.65 
				117.13,136.12 103.67,122.99 122.28,120.29 			"/>
			<polygon class="st0" points="189.82,103.42 198.15,120.29 216.76,122.99 203.29,136.12 206.47,154.65 189.82,145.9 
				173.18,154.65 176.36,136.12 162.89,122.99 181.5,120.29 			"/>
			<polygon class="st0" points="249.05,103.42 257.37,120.29 275.98,122.99 262.51,136.12 265.69,154.65 249.05,145.9 232.4,154.65 
				235.58,136.12 222.11,122.99 240.72,120.29 			"/>
			<polygon class="st0" points="308.27,103.42 316.59,120.29 335.2,122.99 321.73,136.12 324.91,154.65 308.27,145.9 291.62,154.65 
				294.8,136.12 281.34,122.99 299.95,120.29 			"/>
		</g>
	</g>
</g>
</svg>
