<?xml version="1.0" encoding="utf-8"?>
<!-- Generator: Adobe Illustrator 24.3.0, SVG Export Plug-In . SVG Version: 6.00 Build 0)  -->
<svg version="1.1" id="Layer_1" xmlns="http://www.w3.org/2000/svg" xmlns:xlink="http://www.w3.org/1999/xlink" x="0px" y="0px"
	 viewBox="0 0 347.95 154.65" style="enable-background:new 0 0 347.95 154.65;" xml:space="preserve">
<style type="text/css">
	.st0{fill:#CCCCCC;}
</style>
<g>
	<g>
		<path class="st0" d="M65.28,40.42c6.58,0,13.16,0.01,19.73-0.01c0.51,0,0.72,0.12,0.78,0.65c1.08,9.46,0.05,18.58-4.41,27.13
			c-3.67,7.03-9.26,12.12-16.25,15.77c-6.89,3.6-14.23,5.27-21.96,4.82c-16.45-0.96-29.01-8.52-37.46-22.69
			c-3.28-5.51-5.09-11.55-5.57-17.95C-0.88,34.5,3.5,22.78,13.1,13.1C19.84,6.29,28.06,2.11,37.55,0.62
			c13.28-2.08,25.25,1.07,35.85,9.34c0.57,0.45,1.11,0.94,1.67,1.4c0.24,0.2,0.27,0.35,0.03,0.59c-2.73,2.79-5.45,5.58-8.16,8.38
			c-0.33,0.34-0.46,0.04-0.64-0.12c-2.91-2.53-6.15-4.49-9.75-5.87c-15.97-6.14-34.18,1.5-41,17.19
			c-5.29,12.17-2.74,26.05,6.66,35.54c5.41,5.47,12.01,8.58,19.7,9.35c2.86,0.29,5.72,0.23,8.55-0.29c5.45-1,10.44-3.06,14.72-6.65
			c4.6-3.86,7.24-8.82,8.18-14.72c0.09-0.55,0.13-1.11,0.23-1.66c0.08-0.47-0.04-0.64-0.56-0.64c-3.13,0.02-6.27,0-9.4-0.01
			c-6.08-0.03-12.16-0.07-18.23-0.08c-0.46,0-0.6-0.1-0.59-0.58c0.02-3.57,0.02-7.13,0-10.7c0-0.54,0.12-0.69,0.68-0.69
			C52.08,40.43,58.68,40.42,65.28,40.42z"/>
		<path class="st0" d="M257.32,37.85c0.07-1.38,0.14-2.66,0.18-3.94c0.01-0.42,0.14-0.56,0.58-0.55c3.55,0.02,7.1,0.02,10.64,0
			c0.45,0,0.54,0.15,0.54,0.57c-0.01,17.94,0.09,35.88-0.06,53.81c-0.06,7.6-2.72,14.32-8.3,19.69c-2.05,1.97-4.4,3.55-7.04,4.61
			c-2.02,0.81-4.18,1.19-6.33,1.52c-4.69,0.71-9.35,0.62-13.92-0.75c-6.55-1.97-11.31-6.15-14.77-11.94
			c-0.56-0.94-1.08-1.91-1.55-2.9c-0.14-0.29-0.11-0.42,0.2-0.55c3.35-1.44,6.69-2.89,10.02-4.36c0.44-0.19,0.48,0.08,0.61,0.33
			c1.54,2.97,3.49,5.59,6.28,7.51c2.45,1.69,5.15,2.34,8.13,2.11c1.95-0.15,3.88-0.33,5.73-1.02c4.63-1.72,7.37-5.11,8.65-9.78
			c0.85-3.1,0.89-6.26,0.7-9.44c-0.01-0.16-0.06-0.32-0.09-0.52c-0.42,0.16-0.69,0.48-1.01,0.73c-3.37,2.7-7.11,4.62-11.42,5.31
			c-3.27,0.52-6.49,0.28-9.66-0.65c-3.9-1.14-7.58-2.84-10.58-5.58c-5.35-4.88-8.89-10.9-10.11-18.12
			c-0.86-5.09-0.05-9.99,2.06-14.68c2.95-6.55,7.53-11.63,13.88-15.02c8.14-4.35,16.04-3.75,23.66,1.37
			c0.52,0.35,1.02,0.72,1.51,1.09C256.32,37.04,256.78,37.42,257.32,37.85z M258.62,60.11c0.02-4.52-1.48-9.06-5.07-12.78
			c-5.83-6.02-14.77-6.13-20.77-0.31c-6.72,6.52-7.18,17.89-1.02,25.14c5.97,7.02,16.07,7.18,22.22,0.32
			C256.98,69.15,258.42,65.16,258.62,60.11z"/>
		<path class="st0" d="M209.79,60.14c0,15.9-12.93,28.71-28.96,28.7c-15.75-0.01-28.61-12.96-28.6-28.81
			c0.01-15.85,12.94-28.72,28.84-28.7C196.94,31.36,209.79,44.24,209.79,60.14z M164.83,59.36c0.03,5.16,1.37,9.05,4.16,12.43
			c5.8,7.01,16.01,7.7,22.67,1.54c6.9-6.38,7.56-17.58,1.46-24.73c-5.12-6.01-13.44-7.53-19.94-3.53
			C167.59,48.5,165.06,53.71,164.83,59.36z"/>
		<path class="st0" d="M147.55,60.07c0.08,15.66-12.83,28.71-28.46,28.77c-16.15,0.07-29.1-12.75-29.11-28.8
			c-0.01-15.79,12.86-28.66,28.7-28.7C134.6,31.28,147.47,44.1,147.55,60.07z M135.06,60.99c-0.03-4.83-1.21-8.48-3.64-11.73
			c-6.04-8.08-17.68-8.57-24.35-1.02c-5.68,6.43-6,16.18-0.77,22.99c5.05,6.57,13.92,8.28,20.77,3.87
			C132.44,71.65,134.87,66.5,135.06,60.99z"/>
		<path class="st0" d="M295.82,60.33c0.04-13.03,8.1-24.18,20.02-27.62c9.53-2.75,19.86-0.2,26.73,9.34
			c2.29,3.19,3.97,6.68,5.32,10.36c0.14,0.39-0.01,0.48-0.31,0.61c-7.55,3.18-15.09,6.38-22.64,9.56c-4.75,2-9.5,3.99-14.26,5.96
			c-0.43,0.18-0.5,0.29-0.29,0.73c2.69,5.69,8.47,8.85,14.72,8.09c3.56-0.44,6.81-1.57,9.57-3.91c1.21-1.03,2.25-2.2,3.04-3.59
			c0.17-0.3,0.29-0.37,0.6-0.16c2.91,1.95,5.82,3.9,8.74,5.82c0.37,0.25,0.25,0.41,0.07,0.67c-4.56,6.39-10.64,10.46-18.4,11.77
			c-15.31,2.58-29.6-7.51-32.45-22.82C295.96,63.4,295.8,61.64,295.82,60.33z M324.08,42.67c-2.33,0-3.93,0.31-5.51,0.76
			c-3.39,0.98-6.19,2.74-8.05,5.83c-1.78,2.96-2.45,6.21-2.53,9.62c-0.01,0.58,0.29,0.33,0.54,0.22
			c8.22-3.44,16.45-6.89,24.68-10.32c0.46-0.19,0.43-0.35,0.19-0.7C331.02,44.53,327.68,42.75,324.08,42.67z"/>
		<path class="st0" d="M290.37,44.92c0,13.73,0,27.46,0.01,41.19c0,0.58-0.16,0.71-0.72,0.7c-3.76-0.02-7.51-0.02-11.27,0
			c-0.45,0-0.59-0.1-0.59-0.58c0.01-27.58,0.01-55.17,0-82.75c0-0.48,0.14-0.58,0.59-0.58c3.76,0.02,7.51,0.02,11.27,0
			c0.56,0,0.72,0.13,0.72,0.7C290.36,17.37,290.37,31.15,290.37,44.92z"/>
		<path class="st0" d="M52.36,127.21c2.93-0.56,5.75-1.11,8.57-1.65c2.2-0.42,4.39-0.85,6.59-1.25c0.42-0.08,0.58-0.33,0.75-0.64
			c2.35-4.26,4.7-8.52,7.05-12.78c0.1-0.18,0.2-0.36,0.35-0.61c0.3,0.53,0.56,0.99,0.81,1.45c2.2,3.99,4.4,7.98,6.59,11.97
			c0.19,0.35,0.42,0.54,0.84,0.62c4.99,0.94,9.97,1.91,14.95,2.87c0.03,0.29-0.21,0.4-0.35,0.55c-3.31,3.55-6.62,7.09-9.95,10.63
			c-0.31,0.33-0.44,0.64-0.38,1.1c0.54,4.15,1.06,8.3,1.58,12.45c0.11,0.86,0.21,1.72,0.31,2.59c-0.29,0.12-0.46-0.07-0.65-0.16
			c-4.33-2.03-8.67-4.05-12.99-6.11c-0.56-0.27-1-0.25-1.55,0.02c-4.32,2.06-8.65,4.08-12.98,6.11c-0.17,0.08-0.34,0.14-0.63,0.26
			c0.11-0.98,0.21-1.86,0.32-2.75c0.48-3.86,0.91-7.74,1.49-11.59c0.17-1.13-0.16-1.83-0.9-2.6c-3.17-3.31-6.28-6.68-9.41-10.02
			C52.64,127.55,52.54,127.42,52.36,127.21z"/>
		<path class="st0" d="M111.06,154.64c0.17-1.35,0.31-2.58,0.47-3.81c0.48-3.8,0.95-7.6,1.44-11.41c0.06-0.43-0.07-0.73-0.36-1.04
			c-3.33-3.53-6.64-7.08-9.95-10.62c-0.14-0.15-0.27-0.3-0.49-0.54c1.16-0.23,2.24-0.45,3.32-0.66c3.95-0.76,7.89-1.52,11.84-2.25
			c0.42-0.08,0.58-0.32,0.76-0.64c2.35-4.26,4.7-8.52,7.05-12.78c0.1-0.18,0.2-0.36,0.35-0.61c0.3,0.53,0.56,0.98,0.81,1.45
			c2.2,3.99,4.4,7.98,6.59,11.97c0.19,0.35,0.42,0.55,0.83,0.62c4.99,0.94,9.97,1.91,14.96,2.87c0.04,0.29-0.21,0.39-0.35,0.55
			c-3.32,3.56-6.65,7.13-9.99,10.67c-0.3,0.32-0.4,0.63-0.34,1.05c0.53,4.15,1.05,8.3,1.58,12.45c0.11,0.87,0.21,1.75,0.32,2.74
			c-0.73-0.34-1.34-0.62-1.96-0.91c-3.92-1.84-7.84-3.67-11.75-5.53c-0.52-0.25-0.93-0.23-1.44,0.01
			c-4.32,2.05-8.65,4.08-12.99,6.11C111.57,154.42,111.38,154.5,111.06,154.64z"/>
		<path class="st0" d="M189.18,154.54c-0.31,0.04-0.49-0.11-0.69-0.21c-4.39-2.05-8.78-4.11-13.16-6.18c-0.39-0.19-0.7-0.19-1.1,0
			c-4.38,2.07-8.77,4.12-13.16,6.18c-0.2,0.09-0.39,0.25-0.7,0.21c0.15-1.23,0.3-2.46,0.45-3.69c0.48-3.8,0.95-7.6,1.44-11.4
			c0.05-0.43-0.05-0.73-0.35-1.05c-3.33-3.53-6.64-7.08-9.95-10.63c-0.15-0.16-0.36-0.28-0.41-0.57c1.95-0.38,3.9-0.76,5.84-1.13
			c3.09-0.59,6.18-1.19,9.28-1.76c0.39-0.07,0.54-0.32,0.7-0.62c2.35-4.26,4.7-8.52,7.05-12.79c0.1-0.18,0.2-0.36,0.31-0.54
			c0.24,0.1,0.28,0.32,0.37,0.48c2.36,4.28,4.73,8.56,7.08,12.84c0.21,0.38,0.45,0.56,0.89,0.65c4.9,0.93,9.8,1.88,14.7,2.83
			c0.07,0.01,0.15,0.04,0.23,0.06c-0.03,0.28-0.25,0.4-0.4,0.56c-3.31,3.55-6.62,7.09-9.95,10.63c-0.3,0.32-0.41,0.62-0.35,1.05
			c0.49,3.8,0.96,7.6,1.44,11.4C188.89,152.08,189.03,153.31,189.18,154.54z"/>
		<path class="st0" d="M209.19,154.54c0.1-0.86,0.19-1.72,0.3-2.57c0.52-4.15,1.04-8.3,1.58-12.45c0.06-0.47-0.05-0.81-0.38-1.16
			c-3.32-3.52-6.61-7.05-9.91-10.58c-0.15-0.16-0.36-0.28-0.42-0.58c1.75-0.34,3.49-0.68,5.23-1.01c3.29-0.63,6.59-1.27,9.89-1.88
			c0.39-0.07,0.54-0.31,0.71-0.61c2.36-4.28,4.72-8.56,7.08-12.84c0.09-0.16,0.18-0.32,0.28-0.49c0.24,0.09,0.27,0.31,0.37,0.47
			c2.36,4.28,4.73,8.56,7.08,12.84c0.21,0.38,0.44,0.57,0.88,0.65c4.92,0.93,9.84,1.89,14.76,2.83c0.06,0.01,0.11,0.04,0.17,0.06
			c-0.02,0.27-0.24,0.38-0.39,0.54c-3.33,3.56-6.65,7.12-9.99,10.67c-0.26,0.28-0.37,0.55-0.32,0.94c0.45,3.47,0.88,6.95,1.31,10.42
			c0.2,1.58,0.39,3.16,0.59,4.74c-0.31,0.06-0.49-0.1-0.69-0.2c-4.37-2.05-8.74-4.09-13.1-6.15c-0.43-0.2-0.77-0.22-1.21-0.01
			c-4.36,2.07-8.73,4.11-13.1,6.16C209.69,154.42,209.5,154.57,209.19,154.54z"/>
		<path class="st0" d="M250.65,127.2c4.39-0.84,8.74-1.68,13.09-2.52c0.1-0.02,0.2-0.06,0.3-0.06c1.72,0.03,2.55-0.98,3.3-2.42
			c1.98-3.82,4.13-7.56,6.21-11.33c0.1-0.18,0.16-0.38,0.38-0.53c0.87,1.58,1.75,3.15,2.62,4.73c1.59,2.88,3.18,5.77,4.76,8.66
			c0.2,0.36,0.44,0.53,0.85,0.61c4.98,0.94,9.96,1.91,14.95,2.87c0,0.29-0.23,0.4-0.38,0.56c-3.33,3.56-6.65,7.12-9.99,10.67
			c-0.28,0.3-0.38,0.59-0.33,0.99c0.48,3.78,0.95,7.56,1.43,11.34c0.14,1.09,0.28,2.18,0.42,3.27c0.02,0.16,0.06,0.39-0.02,0.48
			c-0.16,0.15-0.34-0.04-0.5-0.11c-4.35-2.04-8.71-4.07-13.04-6.14c-0.58-0.28-1.03-0.27-1.61,0.01c-4.32,2.06-8.65,4.08-12.99,6.11
			c-0.16,0.08-0.35,0.26-0.51,0.16c-0.19-0.13-0.06-0.38-0.04-0.57c0.6-4.81,1.21-9.62,1.82-14.43c0.06-0.46-0.03-0.81-0.37-1.16
			c-3.32-3.51-6.61-7.05-9.91-10.58C250.94,127.63,250.73,127.5,250.65,127.2z"/>
	</g>
</g>
</svg>
