<?xml version="1.0" encoding="utf-8"?>
<!-- Generator: Adobe Illustrator 24.3.0, SVG Export Plug-In . SVG Version: 6.00 Build 0)  -->
<svg version="1.1" id="Layer_1" xmlns="http://www.w3.org/2000/svg" xmlns:xlink="http://www.w3.org/1999/xlink" x="0px" y="0px"
	 viewBox="0 0 531.21 154.65" style="enable-background:new 0 0 531.21 154.65;" xml:space="preserve">
<style type="text/css">
	.st0{fill:#CCCCCC;}
</style>
<g>
	<g>
		<g>
			<path class="st0" d="M71.59,16.79H34.1c-9.54,0-17.31,7.76-17.31,17.31v37.48c0,9.54,7.76,17.31,17.31,17.31h37.48
				c9.54,0,17.31-7.76,17.31-17.31V34.1C88.89,24.56,81.13,16.79,71.59,16.79z M52.84,75.12c-12.29,0-22.28-9.99-22.28-22.28
				c0-12.29,9.99-22.28,22.28-22.28s22.28,9.99,22.28,22.28C75.12,65.13,65.13,75.12,52.84,75.12z M76.08,34.64
				c-2.96,0-5.35-2.4-5.35-5.35c0-2.96,2.4-5.36,5.35-5.36c2.96,0,5.35,2.4,5.35,5.36C81.44,32.25,79.04,34.64,76.08,34.64z"/>
			<path class="st0" d="M88.48,0H17.21C7.75,0,0,7.75,0,17.21v71.26c0,9.47,7.75,17.21,17.21,17.21h71.26
				c9.47,0,17.21-7.75,17.21-17.21V17.21C105.69,7.75,97.94,0,88.48,0z M96.35,71.59c0,13.66-11.11,24.77-24.77,24.77H34.1
				c-13.66,0-24.77-11.11-24.77-24.77V34.1c0-13.66,11.11-24.77,24.77-24.77h37.48c13.66,0,24.77,11.11,24.77,24.77V71.59z"/>
			<path class="st0" d="M52.84,38.02c-8.17,0-14.82,6.65-14.82,14.82s6.65,14.82,14.82,14.82c8.17,0,14.82-6.65,14.82-14.82
				S61.02,38.02,52.84,38.02z"/>
		</g>
		<g>
			<path class="st0" d="M182.48,23.54c-0.09,0.08-0.19,0.3-0.32,0.64c-0.13,0.34-0.19,0.94-0.19,1.8c0,1.2,0.17,2.36,0.51,3.47V72
				c0,4.37-0.43,8.57-1.28,12.6c-0.86,4.03-2.34,7.61-4.44,10.73c-2.1,3.13-4.97,5.61-8.61,7.46c-3.64,1.84-8.29,2.76-13.95,2.76
				h-1.67c-4.88,0-8.85-0.66-11.89-1.99c-3.04-1.33-5.42-3.02-7.13-5.08c-1.71-2.06-2.87-4.31-3.47-6.75c-0.6-2.44-0.9-4.77-0.9-7
				c0-1.88,0.24-3.71,0.71-5.46c0.47-1.76,1.15-3.3,2.06-4.63c0.9-1.33,1.99-2.4,3.28-3.22c1.28-0.81,2.74-1.22,4.37-1.22
				c1.54,0,2.53,0.41,2.96,1.22c0.43,0.82,0.64,1.65,0.64,2.51c0,1.89-0.39,3.45-1.16,4.69c-0.77,1.24-1.61,2.34-2.51,3.28
				c-0.9,0.94-1.73,1.89-2.51,2.83c-0.77,0.95-1.16,2.1-1.16,3.47c0,4.11,1.37,7.07,4.11,8.87c2.74,1.8,6.17,2.7,10.28,2.7
				c3.6,0,6.73-0.73,9.38-2.18c2.65-1.46,4.86-3.3,6.62-5.53c1.76-2.23,3.06-4.65,3.92-7.26c0.86-2.61,1.28-5.08,1.28-7.39
				l-1.93,0.13c-3.08,0-5.76-0.71-8.03-2.12c-2.27-1.41-4.16-3.19-5.66-5.33c-1.5-2.14-2.61-4.46-3.34-6.94
				c-0.73-2.48-1.09-4.8-1.09-6.94v-4.5c0-1.63,0.21-3.53,0.64-5.72c0.43-2.18,1.03-4.45,1.8-6.81c0.77-2.36,1.71-4.67,2.83-6.94
				c1.11-2.27,2.31-4.31,3.6-6.11c1.29-1.8,2.65-3.25,4.11-4.37c1.46-1.11,2.96-1.67,4.5-1.67c0.6,0,1.29,0.13,2.06,0.39l9,0.64
				c0.6,0.09,1.18,0.3,1.74,0.64C182.2,22.08,182.48,22.68,182.48,23.54z M171.42,38.96c0.17-0.68,0.34-1.33,0.52-1.93
				c0.17-0.6,0.26-1.28,0.26-2.06c0-1.11-0.28-2.12-0.84-3.02c-0.56-0.9-1.56-1.35-3.02-1.35c-1.89,0-3.43,0.77-4.63,2.31
				c-1.2,1.54-2.12,3.39-2.77,5.53c-0.64,2.14-1.09,4.37-1.35,6.68c-0.26,2.31-0.39,4.2-0.39,5.66c0,1.11,0.09,2.72,0.26,4.82
				c0.17,2.1,0.58,4.18,1.22,6.24c0.64,2.06,1.54,3.85,2.7,5.4c1.16,1.54,2.72,2.31,4.69,2.31c0.17,0,0.66-0.04,1.48-0.13
				c0.81-0.09,1.43-0.22,1.86-0.39V38.96z"/>
			<path class="st0" d="M211.91,72.38c-1.29,1.8-2.34,3.79-3.15,5.98c-0.81,2.18-1.52,4.46-2.12,6.81c-0.6,2.36-1.09,4.72-1.48,7.07
				c-0.39,2.36-0.79,4.61-1.22,6.75c-0.17,0.52-0.84,0.86-1.99,1.03c-1.16,0.17-1.99,0.26-2.51,0.26c-1.54,0-2.81-0.08-3.79-0.26
				c-0.99-0.17-1.74-0.58-2.25-1.22c-0.51-0.64-0.9-1.63-1.16-2.96c-0.26-1.33-0.47-3.11-0.64-5.34l1.67-38.18
				c0-1.11,0.6-1.67,1.8-1.67c0.43,0,1.03,0.07,1.8,0.19c0.77,0.13,1.59,0.32,2.44,0.58c0.86,0.26,1.59,0.58,2.19,0.96
				c0.6,0.39,0.9,0.84,0.9,1.35v26.09c0.09-0.08,0.21-0.43,0.39-1.03c0.6-1.54,1.33-3.45,2.19-5.72c0.86-2.27,1.8-4.44,2.83-6.49
				c1.03-2.06,2.12-3.81,3.28-5.27c1.15-1.46,2.33-2.19,3.53-2.19c1.54,0,2.72,0.37,3.54,1.09c0.81,0.73,1.43,1.65,1.86,2.76
				c0.43,1.12,0.68,2.31,0.77,3.6c0.08,1.29,0.13,2.53,0.13,3.73c0,0.86-0.08,2.27-0.26,4.24c-0.17,1.97-0.26,4.93-0.26,8.87
				c0,2.23,0.21,4.24,0.64,6.04c0.43,1.8,1.29,2.7,2.57,2.7c0.94,0,1.8-0.43,2.57-1.28c0.77-0.86,1.48-1.93,2.12-3.21
				c0.64-1.28,1.18-2.65,1.61-4.11c0.43-1.46,0.68-2.83,0.77-4.11c0.08-1.63,0.73-2.44,1.93-2.44c0.77,0,1.29,0.26,1.54,0.77
				c0.26,0.52,0.39,1.11,0.39,1.8v0.26c-0.08,1.71-0.4,3.64-0.96,5.78c-0.56,2.14-1.37,4.16-2.44,6.04
				c-1.07,1.89-2.47,3.47-4.18,4.76c-1.72,1.29-3.81,1.93-6.3,1.93c-3.85,0-6.32-1.39-7.39-4.18c-1.07-2.78-1.61-6.92-1.61-12.41
				L211.91,72.38z"/>
			<path class="st0" d="M262.04,92.44c0,2.06-0.69,3.64-2.06,4.76c-1.37,1.11-2.94,1.93-4.69,2.44c-1.76,0.51-3.52,0.83-5.27,0.96
				c-1.76,0.13-3.02,0.19-3.79,0.19c-1.2,0-2.68-0.13-4.43-0.39c-1.76-0.26-3.47-0.66-5.15-1.22c-1.67-0.56-3.08-1.35-4.24-2.38
				c-1.16-1.03-1.73-2.31-1.73-3.86c0-0.94,0.36-1.61,1.09-1.99c0.73-0.39,1.43-0.58,2.12-0.58c0.94,0,1.86,0.34,2.76,1.03
				c0.9,0.69,1.84,1.41,2.83,2.19c0.98,0.77,2.08,1.5,3.28,2.19c1.2,0.69,2.57,1.03,4.11,1.03c0.68,0,1.61-0.23,2.76-0.71
				c1.16-0.47,1.74-1.31,1.74-2.51c0-1.2-0.49-2.36-1.48-3.47c-0.98-1.11-2.23-2.27-3.73-3.47c-1.5-1.2-3.11-2.44-4.82-3.73
				c-1.71-1.29-3.32-2.68-4.82-4.18c-1.5-1.5-2.74-3.15-3.73-4.95c-0.98-1.8-1.48-3.77-1.48-5.91c0-3,0.97-5.53,2.89-7.59
				c1.93-2.06,4.2-3.68,6.81-4.88c2.61-1.2,5.29-2.05,8.03-2.57c2.74-0.52,4.89-0.77,6.43-0.77c1.46,0,2.91,0.3,4.37,0.9
				c1.46,0.6,2.19,1.76,2.19,3.47c0,0.51-0.11,1.27-0.32,2.25c-0.21,0.99-0.56,1.95-1.03,2.89c-0.47,0.94-1.09,1.78-1.86,2.51
				c-0.77,0.73-1.76,1.09-2.96,1.09c-0.34,0-0.69-0.15-1.03-0.45c-0.34-0.3-0.73-0.64-1.15-1.03c-0.43-0.39-0.88-0.73-1.35-1.03
				c-0.47-0.3-1.01-0.45-1.61-0.45c-3,0-5.1,0.88-6.3,2.63c-1.2,1.76-1.8,3.62-1.8,5.59c0,1.72,1.01,3.51,3.02,5.4
				c2.01,1.89,4.24,3.77,6.69,5.66c2.44,1.89,4.67,3.75,6.68,5.59C261.04,88.95,262.04,90.72,262.04,92.44z"/>
			<path class="st0" d="M264.87,77.14c0.09-4.37,0.21-8.83,0.39-13.37c0.17-4.54,0.34-8.74,0.51-12.6c0-0.69-0.69-1.16-2.06-1.41
				c-1.37-0.26-2.91-0.51-4.63-0.77c-1.71-0.26-3.25-0.66-4.63-1.22c-1.37-0.56-2.06-1.48-2.06-2.76c0-1.11,1.11-1.76,3.34-1.93
				c2.23-0.17,5.53-0.26,9.9-0.26c0.34,0,0.58-0.52,0.71-1.54c0.13-1.03,0.21-2.33,0.26-3.92c0.04-1.58,0.08-3.28,0.12-5.08
				c0.04-1.8,0.11-3.49,0.2-5.08c0.08-1.58,0.23-2.89,0.45-3.92c0.21-1.03,0.49-1.54,0.83-1.54c0.43,0,1.2,0.09,2.31,0.26
				c1.11,0.17,2.27,0.41,3.47,0.71c1.2,0.3,2.25,0.67,3.15,1.09c0.9,0.43,1.35,0.9,1.35,1.41l-1.41,16.71
				c0,0.51,0.45,0.88,1.35,1.09c0.9,0.22,2.06,0.34,3.47,0.39c1.41,0.04,2.91,0.06,4.5,0.06c1.58,0,3.09,0.13,4.5,0.39
				c1.41,0.26,2.57,0.66,3.47,1.22c0.9,0.56,1.35,1.39,1.35,2.51c0,0.17-0.09,0.45-0.26,0.83c-0.17,0.38-0.39,0.58-0.64,0.58
				c-0.17,0-0.41-0.13-0.71-0.39c-0.3-0.26-1.09-0.39-2.38-0.39c-0.34,0-1.28,0.05-2.83,0.13c-1.54,0.09-3.17,0.22-4.89,0.39
				c-1.72,0.17-3.28,0.37-4.69,0.58c-1.41,0.21-2.21,0.49-2.38,0.84c-0.09,0.17-0.19,1.18-0.32,3.02c-0.13,1.84-0.26,4.26-0.38,7.26
				c-0.13,3-0.24,6.45-0.32,10.35c-0.09,3.9-0.13,7.99-0.13,12.28c0,1.63,0.08,3.21,0.26,4.76c0.17,1.54,0.43,2.93,0.77,4.18
				c0.34,1.24,0.79,2.25,1.35,3.02c0.56,0.77,1.22,1.16,1.99,1.16c1.11,0,2.14-0.47,3.09-1.41c0.94-0.94,1.8-2.23,2.57-3.86
				c0.77-1.63,1.46-3.47,2.06-5.53c0.6-2.06,1.11-4.16,1.54-6.3c0.26-1.28,0.56-2.21,0.9-2.76c0.34-0.56,0.85-0.83,1.54-0.83
				c0.6,0,1.13,0.19,1.61,0.58c0.47,0.39,0.71,1.26,0.71,2.63c0,0.86-0.05,1.42-0.13,1.67c-0.26,1.54-0.75,3.66-1.48,6.36
				c-0.73,2.7-1.72,5.36-2.96,7.97c-1.24,2.62-2.76,4.91-4.56,6.88c-1.8,1.97-3.9,2.96-6.3,2.96c-2.31,0-4.33-0.66-6.04-1.99
				c-1.72-1.33-3.15-3.17-4.3-5.53c-1.16-2.36-2.04-5.14-2.64-8.35c-0.6-3.21-0.9-6.66-0.9-10.35V77.14z"/>
			<path class="st0" d="M341.1,86.4c-0.17,1.2-0.6,2.61-1.29,4.24c-0.69,1.63-1.57,3.19-2.64,4.69c-1.07,1.5-2.31,2.76-3.73,3.79
				c-1.41,1.03-2.98,1.54-4.69,1.54c-2.57,0-4.82-0.98-6.75-2.96c-1.93-1.97-3.1-4.75-3.53-8.36c-0.51,1.37-1.11,2.96-1.8,4.76
				c-0.69,1.8-1.54,3.47-2.57,5.01c-1.03,1.54-2.21,2.85-3.53,3.92c-1.33,1.07-2.89,1.61-4.69,1.61c-0.52,0-0.9-0.04-1.16-0.13
				c-0.26-0.08-0.54-0.19-0.84-0.32c-0.3-0.13-0.64-0.24-1.03-0.32c-0.39-0.09-0.92-0.13-1.61-0.13c-2.06,0-3.79-0.66-5.21-1.99
				c-1.42-1.33-2.55-3.02-3.41-5.08c-0.86-2.06-1.48-4.31-1.87-6.75c-0.38-2.44-0.58-4.73-0.58-6.88c0-5.14,0.28-10.03,0.84-14.65
				c0.56-4.63,1.48-8.72,2.77-12.28c1.28-3.56,2.95-6.38,5.01-8.48c2.06-2.1,4.54-3.15,7.46-3.15c1.71,0,3.02,0.15,3.92,0.45
				c0.9,0.3,1.74,0.64,2.51,1.03c0.77,0.39,1.61,0.79,2.51,1.22c0.9,0.43,2.16,0.77,3.79,1.03c1.8,1.03,3.06,2.25,3.79,3.67
				c0.73,1.41,1.2,2.94,1.41,4.56c0.21,1.63,0.28,3.32,0.19,5.08c-0.09,1.76,0,3.49,0.26,5.21c0,0.09,0.19,0.22,0.58,0.39
				c0.39,0.17,0.84,0.37,1.35,0.58c0.51,0.22,0.97,0.52,1.35,0.9c0.38,0.39,0.58,0.88,0.58,1.48v0.51c-0.86,2.23-1.37,4.2-1.54,5.91
				c-0.17,1.71-0.26,3.77-0.26,6.17c0,1.2,0.06,2.51,0.19,3.92c0.13,1.41,0.34,2.74,0.65,3.99c0.3,1.24,0.75,2.27,1.35,3.08
				c0.6,0.82,1.37,1.22,2.32,1.22c1.03,0,1.95-0.51,2.76-1.54c0.81-1.03,1.49-2.21,2.06-3.54c0.56-1.33,1.03-2.68,1.41-4.05
				c0.39-1.37,0.62-2.4,0.71-3.08c0.17-1.03,0.6-1.54,1.29-1.54c0.43,0,0.83,0.24,1.22,0.71c0.39,0.47,0.58,1.31,0.58,2.51
				c0,0.34,0,0.66,0,0.96C341.23,85.6,341.18,85.97,341.1,86.4z M317.32,65.57c0-0.94-0.09-2.06-0.26-3.34
				c-0.17-1.28-0.47-2.48-0.9-3.6c-0.43-1.11-1.07-2.06-1.93-2.83c-0.86-0.77-2.02-1.16-3.47-1.16c-2.4,0-4.35,1.09-5.85,3.28
				c-1.5,2.18-2.68,4.76-3.53,7.71c-0.86,2.96-1.41,6-1.67,9.13c-0.26,3.13-0.39,5.59-0.39,7.39c0,1.37,0.06,3.02,0.19,4.95
				c0.13,1.93,0.36,3.75,0.71,5.46c0.34,1.71,0.84,3.17,1.48,4.37c0.64,1.2,1.48,1.8,2.51,1.8c2.48,0,4.39-0.96,5.72-2.89
				c1.33-1.93,2.34-4.33,3.02-7.2c0.68-2.87,1.18-5.95,1.48-9.26c0.3-3.3,0.58-6.32,0.83-9.06c0.17-1.46,0.56-2.38,1.16-2.77
				c0.6-0.38,0.9-0.66,0.9-0.83V65.57z"/>
			<path class="st0" d="M379.91,103.75c0,0.86-0.38,1.46-1.15,1.8c-0.77,0.34-1.5,0.51-2.19,0.51l-2.57-0.26
				c-0.43,0-0.65,0.26-0.65,0.77l-0.13,1.54c0.09,2.31,0.13,5.23,0.13,8.74c0,3.51,0,6.9,0,10.15c0,3.43-0.11,6.79-0.32,10.09
				c-0.22,3.3-0.71,6.25-1.48,8.87c-0.77,2.61-1.86,4.71-3.28,6.3c-1.41,1.58-3.36,2.38-5.85,2.38c-2.14,0-4.39-0.11-6.75-0.32
				c-2.36-0.21-4.5-0.75-6.43-1.61c-1.93-0.86-3.52-2.12-4.76-3.79c-1.25-1.67-1.87-3.92-1.87-6.75c0-2.83,0.32-5.72,0.97-8.68
				c0.65-2.96,1.57-5.83,2.78-8.61c1.21-2.79,2.65-5.44,4.33-7.97c1.68-2.53,3.51-4.78,5.5-6.75c1.04-1.03,2.18-2.08,3.43-3.15
				c1.25-1.07,2.35-1.95,3.3-2.63v-0.13c0.17-1.8,0.3-3.6,0.39-5.4c0.08-1.8,0.12-3.64,0.12-5.53c-0.43,0.77-0.94,1.82-1.55,3.15
				c-0.6,1.33-1.31,2.6-2.13,3.79c-0.82,1.2-1.75,2.25-2.78,3.15c-1.04,0.9-2.2,1.35-3.49,1.35c-0.69,0-1.29-0.13-1.81-0.38
				c-0.52-0.26-1.25-0.39-2.2-0.39c-2.41-0.17-4.42-0.81-6.01-1.93c-1.59-1.11-2.84-2.65-3.74-4.63c-0.9-1.97-1.53-4.31-1.88-7
				c-0.35-2.7-0.52-5.72-0.52-9.06c0-4.03,0.23-8.18,0.71-12.47c0.47-4.29,1.31-8.21,2.52-11.76c1.2-3.56,2.82-6.47,4.84-8.74
				c2.02-2.27,4.58-3.41,7.68-3.41c0.34,0,0.79,0.13,1.35,0.39c0.56,0.26,1.16,0.54,1.81,0.84c0.64,0.3,1.29,0.6,1.94,0.9
				c0.64,0.3,1.14,0.49,1.48,0.58c1.72,0.34,3.31,0.77,4.77,1.28c1.46,0.51,2.71,1.18,3.74,1.99c1.03,0.81,1.85,1.88,2.45,3.21
				c0.6,1.33,0.9,2.98,0.9,4.95c0,1.37-0.11,2.62-0.32,3.73c-0.21,1.11-0.32,2.53-0.32,4.24c0,0.69,0.24,1.16,0.73,1.41
				c0.49,0.26,1.05,0.47,1.67,0.64c0.63,0.17,1.2,0.37,1.71,0.58c0.52,0.22,0.77,0.66,0.77,1.35c0,0.17-0.19,0.58-0.58,1.22
				c-0.39,0.64-0.63,1.05-0.71,1.22c-0.26,0.69-0.47,1.78-0.64,3.28c-0.17,1.5-0.3,3.13-0.38,4.88c-0.09,1.76-0.15,3.56-0.19,5.4
				c-0.05,1.84-0.07,3.49-0.07,4.95c0,1.11,0,2.59,0,4.43c0,1.85,0.04,3.37,0.13,4.56h0.52c0.17,0,0.34-0.02,0.51-0.06
				c0.17-0.04,0.3-0.06,0.38-0.06c0.77,0,1.82,0.24,3.15,0.71C379.25,102.1,379.91,102.8,379.91,103.75z M363.59,64.03
				c0-0.94-0.09-2.01-0.26-3.21c-0.17-1.2-0.48-2.33-0.91-3.41c-0.43-1.07-1.06-1.97-1.88-2.7c-0.82-0.73-1.83-1.09-3.04-1.09
				c-1.64,0-3.17,0.64-4.59,1.93c-1.43,1.28-2.68,3.11-3.76,5.46c-1.08,2.36-1.94,5.23-2.59,8.61c-0.65,3.39-0.97,7.22-0.97,11.5
				c0,1.8,0.06,3.66,0.19,5.59c0.13,1.93,0.34,3.66,0.64,5.21c0.3,1.54,0.77,2.83,1.41,3.86c0.64,1.03,1.48,1.54,2.51,1.54
				c1.8,0,3.38-0.77,4.76-2.32c1.37-1.54,2.51-3.45,3.41-5.72c0.9-2.27,1.58-4.63,2.06-7.07c0.47-2.44,0.75-4.56,0.84-6.36
				c0.09-2.48,0.23-4.18,0.41-5.08c0.18-0.9,0.36-1.48,0.55-1.74c0.55-0.68,0.89-1.5,1.02-2.44
				C363.52,65.66,363.59,64.8,363.59,64.03z M363.07,108.63c-1.99,1.37-3.87,3.3-5.64,5.78c-1.77,2.49-3.31,5.19-4.61,8.1
				c-1.3,2.91-2.31,5.87-3.05,8.87c-0.73,3-1.1,5.7-1.1,8.1c0,0.86,0.09,1.8,0.26,2.83c0.17,1.03,0.45,1.99,0.84,2.89
				c0.39,0.9,0.95,1.65,1.69,2.25c0.73,0.6,1.62,0.9,2.66,0.9c1.81,0,3.31-0.75,4.47-2.25c1.17-1.5,2.08-3.28,2.73-5.33
				c0.65-2.06,1.08-4.16,1.3-6.3c0.21-2.14,0.32-3.86,0.32-5.14c0-0.26,0-0.64,0-1.16c0-0.51,0.02-1.5,0.06-2.96
				c0.04-1.46,0.06-3.49,0.06-6.11C363.07,116.49,363.07,113,363.07,108.63z"/>
			<path class="st0" d="M418.35,82.28c0,0.6-0.19,2.04-0.58,4.31c-0.39,2.27-1.07,4.67-2.06,7.2c-0.99,2.53-2.32,4.78-3.99,6.75
				c-1.67,1.97-3.79,2.95-6.36,2.95c-2.74,0-4.93-0.96-6.56-2.89c-1.63-1.93-2.87-4.24-3.73-6.94c-0.86-2.7-1.41-5.53-1.67-8.48
				c-0.26-2.96-0.38-5.42-0.38-7.39c0-2.23,0.13-4.48,0.38-6.75c0.26-2.27,0.43-4.52,0.51-6.75c0-0.68-0.34-1.11-1.03-1.28
				c-0.69-0.17-1.33-0.26-1.93-0.26c-1.03,0-1.67,0.13-1.93,0.39c-0.26,0.26-0.43,0.56-0.52,0.9l-0.51,4.11
				c-0.34,2.74-0.71,5.38-1.09,7.91c-0.38,2.53-0.81,4.75-1.29,6.68c-0.47,1.93-1.03,3.47-1.67,4.63c-0.64,1.16-1.39,1.74-2.25,1.74
				h-0.13c-0.34,0-0.67-0.08-0.97-0.26c-0.3-0.17-0.45-0.6-0.45-1.28c0-0.34,0.09-0.86,0.26-1.54c0.69-3,1.11-5.48,1.29-7.45
				c0.17-1.97,0.3-3.73,0.38-5.27v-0.9c0-0.43,0.02-0.94,0.06-1.54c0.04-0.6,0.06-1.33,0.06-2.19v-3.34c0-0.94,0-1.93,0-2.96
				c0-1.03-0.09-2.14-0.26-3.34l-0.38-7.58c0-0.52,0.21-0.98,0.64-1.41c0.43-0.43,0.99-0.81,1.67-1.16c0.69-0.34,1.41-0.6,2.19-0.77
				c0.77-0.17,1.45-0.26,2.06-0.26c1.46,0,2.19,0.95,2.19,2.83v0.64l-0.13,2.83v0.77c0,0.6,0.13,0.96,0.38,1.09
				c0.26,0.13,0.77,0.28,1.54,0.45h0.39c0.69,0.09,1.8,0.17,3.34,0.26c1.54,0.09,3.08,0.26,4.63,0.51c1.54,0.26,2.89,0.67,4.05,1.22
				c1.15,0.56,1.73,1.35,1.73,2.38c0,0.34-0.09,0.84-0.26,1.48c-0.17,0.64-0.39,1.28-0.65,1.93c-0.26,0.64-0.47,1.22-0.64,1.73
				c-0.17,0.51-0.26,0.86-0.26,1.03c-1.54,5.91-2.31,12.08-2.31,18.51c0,0.51,0.04,1.46,0.13,2.83c0.08,1.37,0.26,2.78,0.51,4.24
				c0.26,1.46,0.64,2.74,1.16,3.86c0.51,1.12,1.16,1.67,1.93,1.67c1.29,0,2.44-0.79,3.47-2.38c1.03-1.59,1.93-3.43,2.7-5.53
				c0.77-2.1,1.39-4.22,1.86-6.36c0.47-2.14,0.79-3.73,0.97-4.76c0.17-0.94,0.45-1.52,0.83-1.73c0.39-0.21,0.75-0.32,1.09-0.32
				c1.2,0,1.8,0.77,1.8,2.31c0,0.17-0.02,0.62-0.06,1.35C418.5,81.4,418.43,81.94,418.35,82.28z"/>
			<path class="st0" d="M465.52,86.4c-0.17,1.2-0.6,2.61-1.29,4.24c-0.69,1.63-1.57,3.19-2.64,4.69c-1.07,1.5-2.31,2.76-3.73,3.79
				c-1.41,1.03-2.98,1.54-4.69,1.54c-2.57,0-4.82-0.98-6.75-2.96c-1.93-1.97-3.11-4.75-3.53-8.36c-0.51,1.37-1.11,2.96-1.8,4.76
				c-0.69,1.8-1.54,3.47-2.57,5.01c-1.03,1.54-2.21,2.85-3.54,3.92c-1.33,1.07-2.89,1.61-4.69,1.61c-0.52,0-0.9-0.04-1.16-0.13
				c-0.26-0.08-0.54-0.19-0.84-0.32c-0.3-0.13-0.64-0.24-1.03-0.32c-0.38-0.09-0.92-0.13-1.61-0.13c-2.06,0-3.79-0.66-5.21-1.99
				c-1.41-1.33-2.55-3.02-3.41-5.08c-0.86-2.06-1.48-4.31-1.87-6.75c-0.39-2.44-0.58-4.73-0.58-6.88c0-5.14,0.28-10.03,0.84-14.65
				c0.56-4.63,1.48-8.72,2.76-12.28c1.29-3.56,2.96-6.38,5.01-8.48c2.06-2.1,4.54-3.15,7.46-3.15c1.71,0,3.02,0.15,3.92,0.45
				c0.9,0.3,1.74,0.64,2.51,1.03c0.77,0.39,1.61,0.79,2.51,1.22c0.9,0.43,2.17,0.77,3.79,1.03c1.8,1.03,3.06,2.25,3.79,3.67
				c0.72,1.41,1.2,2.94,1.41,4.56c0.21,1.63,0.28,3.32,0.19,5.08c-0.09,1.76,0,3.49,0.26,5.21c0,0.09,0.19,0.22,0.58,0.39
				c0.38,0.17,0.84,0.37,1.35,0.58c0.51,0.22,0.97,0.52,1.35,0.9c0.38,0.39,0.58,0.88,0.58,1.48v0.51c-0.86,2.23-1.37,4.2-1.54,5.91
				c-0.17,1.71-0.26,3.77-0.26,6.17c0,1.2,0.06,2.51,0.19,3.92c0.13,1.41,0.34,2.74,0.64,3.99c0.3,1.24,0.75,2.27,1.35,3.08
				c0.6,0.82,1.37,1.22,2.31,1.22c1.03,0,1.95-0.51,2.76-1.54c0.81-1.03,1.5-2.21,2.06-3.54c0.56-1.33,1.03-2.68,1.41-4.05
				c0.39-1.37,0.62-2.4,0.71-3.08c0.17-1.03,0.6-1.54,1.29-1.54c0.43,0,0.83,0.24,1.22,0.71c0.39,0.47,0.58,1.31,0.58,2.51
				c0,0.34,0,0.66,0,0.96C465.65,85.6,465.61,85.97,465.52,86.4z M441.74,65.57c0-0.94-0.09-2.06-0.26-3.34
				c-0.17-1.28-0.47-2.48-0.9-3.6c-0.43-1.11-1.07-2.06-1.93-2.83c-0.86-0.77-2.02-1.16-3.47-1.16c-2.4,0-4.35,1.09-5.85,3.28
				c-1.5,2.18-2.68,4.76-3.54,7.71c-0.86,2.96-1.41,6-1.67,9.13c-0.26,3.13-0.39,5.59-0.39,7.39c0,1.37,0.07,3.02,0.19,4.95
				c0.13,1.93,0.36,3.75,0.71,5.46c0.34,1.71,0.84,3.17,1.48,4.37c0.64,1.2,1.48,1.8,2.51,1.8c2.48,0,4.39-0.96,5.72-2.89
				c1.33-1.93,2.34-4.33,3.02-7.2c0.68-2.87,1.18-5.95,1.48-9.26c0.3-3.3,0.58-6.32,0.83-9.06c0.17-1.46,0.56-2.38,1.16-2.77
				c0.6-0.38,0.9-0.66,0.9-0.83V65.57z"/>
			<path class="st0" d="M504.86,68.78c-1.2,2.31-2.32,4.76-3.34,7.33c-1.03,2.57-1.8,4.58-2.32,6.04c-0.09,0.43-0.32,1.33-0.71,2.7
				c-0.38,1.37-0.81,2.89-1.29,4.56c-0.47,1.67-0.88,3.32-1.22,4.95c-0.34,1.63-0.52,2.96-0.52,3.98c0,0.43-0.38,0.82-1.16,1.16
				c-0.77,0.34-1.76,0.51-2.95,0.51c-1.89,0-3.39-0.26-4.5-0.77c-1.11-0.51-1.95-1.35-2.51-2.51c-0.56-1.16-0.9-2.68-1.03-4.56
				c-0.13-1.88-0.19-4.15-0.19-6.81v-9.64c0-0.68-0.02-1.37-0.06-2.05c-0.05-0.69-0.19-1.11-0.45-1.29
				c-0.43,0.17-0.96,1.29-1.61,3.34c-0.64,2.06-1.24,4.57-1.8,7.52c-0.56,2.96-1.05,6.06-1.48,9.32c-0.43,3.26-0.64,6.17-0.64,8.74
				c0,0.94-0.49,1.5-1.48,1.67c-0.98,0.17-2.08,0.26-3.28,0.26c-0.34,0-0.92-0.07-1.74-0.19c-0.81-0.13-1.63-0.28-2.44-0.45
				c-0.82-0.17-1.56-0.41-2.25-0.71c-0.69-0.3-1.11-0.66-1.28-1.09c-0.43-1.11-0.75-2.96-0.97-5.53c-0.22-2.57-0.32-6.55-0.32-11.95
				c0-3.17,0.06-6.86,0.19-11.05c0.13-4.2,0.28-9.13,0.45-14.78c0-0.77-0.04-1.78-0.13-3.02c-0.09-1.24-0.13-1.95-0.13-2.12
				c0-0.68,0.28-1.09,0.84-1.22c0.56-0.13,0.96-0.19,1.22-0.19c0.6,0,1.31,0.07,2.12,0.19c0.81,0.13,1.63,0.28,2.44,0.45
				c0.81,0.17,1.56,0.37,2.25,0.58c0.69,0.22,1.16,0.41,1.41,0.58V83.7c0.43-1.71,0.92-3.71,1.48-5.98c0.56-2.27,1.2-4.52,1.93-6.75
				c0.73-2.23,1.52-4.28,2.38-6.17c0.85-1.88,1.75-3.25,2.7-4.11c0.34-0.26,0.99-0.45,1.93-0.58c0.94-0.13,1.71-0.19,2.32-0.19
				c0.43,0,0.96,0.06,1.61,0.19c0.64,0.13,1.26,0.32,1.86,0.58c0.6,0.26,1.13,0.58,1.61,0.96c0.47,0.39,0.75,0.84,0.83,1.35v20.82
				v1.16c0,0.51,0.09,0.77,0.26,0.77c0.16,0,0.66-1.16,1.47-3.47c0.81-2.31,1.77-5.05,2.88-8.23c1.11-3.17,2.3-6.43,3.58-9.77
				c1.28-3.34,2.43-5.99,3.45-7.97c0.17-0.34,0.74-0.53,1.73-0.58c0.98-0.04,1.85-0.06,2.62-0.06c0.59,0,1.4,0.19,2.43,0.58
				c1.02,0.39,2.02,0.92,3.01,1.61c0.98,0.69,1.83,1.46,2.57,2.31c0.73,0.86,1.09,1.76,1.09,2.7c0,0.17-0.26,0.66-0.77,1.48
				c-0.51,0.82-0.86,1.65-1.03,2.51c-0.6,2.4-1.01,4.76-1.22,7.07c-0.22,2.31-0.32,5.27-0.32,8.87c0,1.54,0.06,3.09,0.19,4.63
				c0.13,1.54,0.34,2.94,0.64,4.18c0.3,1.24,0.71,2.25,1.22,3.02c0.51,0.77,1.2,1.16,2.06,1.16c1.2,0,2.27-0.41,3.21-1.22
				c0.94-0.81,1.75-1.91,2.44-3.28c0.69-1.37,1.29-2.98,1.8-4.82c0.52-1.84,0.94-3.75,1.29-5.72c0.43-2.06,1.2-3.09,2.31-3.09
				c0.69,0,1.13,0.17,1.35,0.52c0.22,0.34,0.32,1.11,0.32,2.31c0,0.69-0.05,1.16-0.13,1.41c-0.09,1.12-0.45,2.85-1.09,5.21
				c-0.64,2.36-1.54,4.71-2.7,7.07c-1.16,2.36-2.59,4.41-4.3,6.17c-1.72,1.76-3.69,2.64-5.92,2.64c-2.65,0-4.81-0.62-6.51-1.86
				c-1.69-1.24-3-2.91-3.94-5.02c-0.93-2.1-1.59-4.52-1.97-7.26c-0.38-2.74-0.57-5.61-0.57-8.61v-0.9L504.86,68.78z"/>
		</g>
	</g>
</g>
</svg>
