<?xml version="1.0" encoding="utf-8"?>
<!-- Generator: Adobe Illustrator 24.3.0, SVG Export Plug-In . SVG Version: 6.00 Build 0)  -->
<svg version="1.1" id="Layer_1" xmlns="http://www.w3.org/2000/svg" xmlns:xlink="http://www.w3.org/1999/xlink" x="0px" y="0px"
	 viewBox="0 0 1441.57 262.96" style="enable-background:new 0 0 1441.57 262.96;" xml:space="preserve">
<style type="text/css">
	.st0{fill:#CCCCCC;}
</style>
<g>
	<g>
		<g>
			<path class="st0" d="M365.82,85.06l9.39-14.99h10.12l-9.86,15.52l10.25,15.92h-10.12l-9.79-15.39v15.39h-9.53V54.29l9.53-0.86
				L365.82,85.06z M343.2,84.34c0-4.16-1.72-7.46-6.15-7.46s-6.15,3.3-6.15,7.46v2.91c0,4.16,1.72,7.46,6.15,7.46
				s6.15-3.3,6.15-7.46V84.34z M321.37,86.58V85c0-9.05,5.16-15.59,15.68-15.59c10.52,0,15.68,6.54,15.68,15.59v1.58
				c0,9.05-5.16,15.59-15.68,15.59C326.53,102.17,321.37,95.63,321.37,86.58z M308.67,84.34c0-4.16-1.72-7.46-6.15-7.46
				c-4.43,0-6.15,3.3-6.15,7.46v2.91c0,4.16,1.72,7.46,6.15,7.46c4.43,0,6.15-3.3,6.15-7.46V84.34z M286.84,86.58V85
				c0-9.05,5.16-15.59,15.68-15.59c10.52,0,15.68,6.54,15.68,15.59v1.58c0,9.05-5.16,15.59-15.68,15.59
				C292,102.17,286.84,95.63,286.84,86.58z M274.14,84.6c0-4.43-1.72-7.73-6.28-7.73c-3.9,0-6.02,2.77-6.02,7.26v3.3
				c0,4.49,2.12,7.27,6.02,7.27c4.56,0,6.28-3.3,6.28-7.73V84.6z M283.67,86.78c0,8.78-4.23,15.39-12.97,15.39
				c-4.76,0-8.07-2.38-9.39-5.41v4.76h-9V54.29l9.52-0.86v21c1.39-2.77,4.43-5.02,8.87-5.02c8.73,0,12.96,6.6,12.96,15.39V86.78
				L283.67,86.78z M228.31,82.88h11.51v-0.79c0-3.43-1.39-6.14-5.56-6.14C229.96,75.95,228.31,78.66,228.31,82.88 M218.78,86.98
				V84.2c0-8.91,5.09-14.79,15.48-14.79c9.79,0,14.09,5.94,14.09,14.66v5.02h-20.04c0.2,4.3,2.12,6.21,7.41,6.21
				c3.57,0,7.34-0.73,10.12-1.92l1.72,6.54c-2.51,1.32-7.67,2.31-12.24,2.31C223.28,102.23,218.78,96.22,218.78,86.98 M208.4,69.41
				c3.7,0,7.21,0.79,9.13,2.11l-2.12,6.74c-1.46-0.73-3.84-1.45-6.35-1.45c-5.16,0-7.41,2.97-7.41,8.06v1.85
				c0,5.08,2.25,8.06,7.41,8.06c2.51,0,4.89-0.73,6.35-1.45l2.12,6.74c-1.92,1.32-5.42,2.11-9.13,2.11
				c-11.18,0-16.27-6.01-16.27-15.65v-1.45C192.12,75.42,197.22,69.41,208.4,69.41 M166.99,86.91c0,4.69,1.72,7.79,6.15,7.79
				c3.9,0,5.89-2.84,5.89-7.33V84.2c0-4.49-1.98-7.33-5.89-7.33c-4.43,0-6.15,3.1-6.15,7.79V86.91z M157.46,84.8
				c0-8.78,4.17-15.39,12.9-15.39c4.76,0,7.67,2.44,9.06,5.48v-4.82h9.13v31.44h-9.13v-4.76c-1.32,3.04-4.3,5.42-9.06,5.42
				c-8.73,0-12.9-6.6-12.9-15.39V84.8L157.46,84.8z M152.7,61.02c-2.98,0-3.84,1.32-3.84,4.23v4.82h7.94l-0.79,7.79h-7.14v23.64
				h-9.52V77.87h-6.42v-7.79h6.42v-4.69c0-7.86,3.17-12.02,12.04-12.02c1.92,0,4.17,0.13,5.56,0.33v7.33H152.7z"/>
		</g>
		<path class="st0" d="M116.89,34.56H37.09c-2.73,0-4.95,2.22-4.95,4.95v79.81c0,2.73,2.22,4.95,4.95,4.95h42.96V89.53H68.36V75.99
			h11.69v-9.98c0-11.59,7.08-17.9,17.41-17.9c4.95,0,9.21,0.37,10.45,0.53v12.11l-7.17,0c-5.62,0-6.71,2.67-6.71,6.59v8.64h13.41
			l-1.75,13.54H94.03v34.74h22.86c2.73,0,4.95-2.22,4.95-4.95V39.51C121.84,36.78,119.63,34.56,116.89,34.56z"/>
		<g>
			<g>
				<path class="st0" d="M391.88,101.04v-3.7h1.57c0.4,0,0.68,0.03,0.86,0.1c0.18,0.07,0.32,0.18,0.43,0.35
					c0.11,0.17,0.16,0.36,0.16,0.58c0,0.28-0.08,0.51-0.24,0.69c-0.16,0.18-0.41,0.3-0.73,0.34c0.16,0.09,0.3,0.2,0.4,0.31
					c0.11,0.11,0.25,0.31,0.43,0.6l0.45,0.72h-0.89l-0.54-0.81c-0.19-0.29-0.32-0.47-0.39-0.54c-0.07-0.07-0.15-0.13-0.22-0.15
					c-0.08-0.03-0.2-0.04-0.38-0.04h-0.15v1.54H391.88z M392.63,98.91h0.55c0.36,0,0.58-0.02,0.67-0.05
					c0.09-0.03,0.16-0.08,0.21-0.16c0.05-0.07,0.08-0.17,0.08-0.28c0-0.12-0.03-0.23-0.1-0.3c-0.07-0.08-0.16-0.13-0.28-0.15
					c-0.06-0.01-0.24-0.01-0.55-0.01h-0.58V98.91z"/>
			</g>
		</g>
		<g>
			<path class="st0" d="M393.41,102.66c-1.96,0-3.56-1.6-3.56-3.56c0-1.96,1.6-3.56,3.56-3.56s3.56,1.6,3.56,3.56
				C396.97,101.06,395.37,102.66,393.41,102.66z M393.41,96.32c-1.53,0-2.78,1.25-2.78,2.78c0,1.53,1.25,2.78,2.78,2.78
				c1.53,0,2.78-1.25,2.78-2.78C396.19,97.57,394.95,96.32,393.41,96.32z"/>
		</g>
		<g>
			<polygon class="st0" points="103.51,137.98 111.84,154.85 130.45,157.55 116.98,170.68 120.16,189.21 103.51,180.46 
				86.87,189.21 90.05,170.68 76.58,157.55 95.19,154.85 			"/>
			<polygon class="st0" points="162.74,137.98 171.06,154.85 189.67,157.55 176.2,170.68 179.38,189.21 162.74,180.46 
				146.09,189.21 149.27,170.68 135.8,157.55 154.41,154.85 			"/>
			<polygon class="st0" points="221.96,137.98 230.28,154.85 248.89,157.55 235.43,170.68 238.6,189.21 221.96,180.46 
				205.31,189.21 208.49,170.68 195.03,157.55 213.64,154.85 			"/>
			<polygon class="st0" points="281.18,137.98 289.5,154.85 308.12,157.55 294.65,170.68 297.83,189.21 281.18,180.46 
				264.54,189.21 267.72,170.68 254.25,157.55 272.86,154.85 			"/>
			<polygon class="st0" points="340.41,137.98 348.73,154.85 367.34,157.55 353.87,170.68 357.05,189.21 340.41,180.46 
				323.76,189.21 326.94,170.68 313.47,157.55 332.08,154.85 			"/>
		</g>
	</g>
	<g>
		<path class="st0" d="M1126.03,95.47c6.58,0,13.16,0.01,19.73-0.01c0.51,0,0.72,0.12,0.78,0.65c1.08,9.46,0.05,18.58-4.41,27.13
			c-3.67,7.03-9.26,12.12-16.25,15.77c-6.89,3.6-14.23,5.27-21.96,4.82c-16.45-0.96-29.01-8.52-37.46-22.69
			c-3.28-5.51-5.09-11.55-5.57-17.95c-1.02-13.64,3.35-25.36,12.95-35.04c6.75-6.81,14.97-10.99,24.45-12.47
			c13.28-2.08,25.25,1.07,35.85,9.34c0.57,0.45,1.11,0.94,1.67,1.4c0.24,0.2,0.27,0.35,0.03,0.59c-2.73,2.79-5.45,5.58-8.16,8.38
			c-0.33,0.34-0.46,0.04-0.64-0.12c-2.91-2.53-6.15-4.49-9.75-5.87c-15.97-6.14-34.18,1.5-41,17.19
			c-5.29,12.17-2.74,26.05,6.66,35.54c5.41,5.47,12.01,8.58,19.7,9.35c2.86,0.29,5.72,0.23,8.55-0.29c5.45-1,10.44-3.06,14.72-6.65
			c4.6-3.86,7.24-8.82,8.18-14.72c0.09-0.55,0.13-1.11,0.23-1.66c0.08-0.47-0.04-0.64-0.56-0.64c-3.13,0.02-6.27,0-9.4-0.01
			c-6.08-0.03-12.16-0.07-18.23-0.08c-0.46,0-0.6-0.1-0.59-0.58c0.02-3.57,0.02-7.13,0-10.7c0-0.54,0.12-0.69,0.68-0.69
			C1112.83,95.48,1119.43,95.47,1126.03,95.47z"/>
		<path class="st0" d="M1318.06,92.9c0.07-1.38,0.14-2.66,0.18-3.94c0.01-0.42,0.14-0.56,0.58-0.55c3.55,0.02,7.1,0.02,10.64,0
			c0.45,0,0.54,0.15,0.54,0.57c-0.01,17.94,0.09,35.88-0.06,53.81c-0.06,7.6-2.72,14.32-8.3,19.69c-2.05,1.97-4.4,3.55-7.04,4.61
			c-2.02,0.81-4.18,1.19-6.33,1.52c-4.69,0.71-9.35,0.62-13.92-0.75c-6.55-1.97-11.31-6.15-14.77-11.94
			c-0.56-0.94-1.08-1.91-1.55-2.9c-0.14-0.29-0.11-0.42,0.2-0.55c3.35-1.44,6.69-2.89,10.02-4.36c0.44-0.19,0.48,0.08,0.61,0.33
			c1.54,2.97,3.49,5.59,6.28,7.51c2.45,1.69,5.15,2.34,8.13,2.11c1.95-0.15,3.88-0.33,5.73-1.02c4.63-1.72,7.37-5.11,8.65-9.78
			c0.85-3.1,0.89-6.26,0.7-9.44c-0.01-0.16-0.06-0.32-0.09-0.52c-0.42,0.16-0.69,0.48-1.01,0.73c-3.37,2.7-7.11,4.62-11.42,5.31
			c-3.27,0.52-6.49,0.28-9.66-0.65c-3.9-1.14-7.58-2.84-10.58-5.58c-5.35-4.88-8.89-10.9-10.11-18.12
			c-0.85-5.09-0.05-9.99,2.06-14.68c2.95-6.55,7.53-11.63,13.88-15.02c8.14-4.35,16.04-3.76,23.66,1.37
			c0.52,0.35,1.02,0.72,1.51,1.09C1317.07,92.1,1317.53,92.48,1318.06,92.9z M1319.36,115.17c0.02-4.52-1.48-9.06-5.07-12.78
			c-5.83-6.02-14.77-6.13-20.77-0.31c-6.72,6.52-7.18,17.89-1.02,25.14c5.97,7.02,16.07,7.18,22.22,0.32
			C1317.73,124.2,1319.16,120.22,1319.36,115.17z"/>
		<path class="st0" d="M1270.54,115.2c0,15.9-12.93,28.71-28.96,28.7c-15.75-0.01-28.61-12.96-28.6-28.81
			c0.01-15.85,12.94-28.72,28.84-28.7C1257.69,86.41,1270.54,99.29,1270.54,115.2z M1225.57,114.41c0.03,5.16,1.37,9.05,4.16,12.43
			c5.8,7.01,16.01,7.7,22.67,1.54c6.9-6.38,7.56-17.58,1.46-24.73c-5.12-6.01-13.44-7.53-19.94-3.53
			C1228.34,103.56,1225.8,108.76,1225.57,114.41z"/>
		<path class="st0" d="M1208.3,115.13c0.08,15.66-12.83,28.71-28.46,28.77c-16.15,0.07-29.1-12.75-29.11-28.8
			c-0.01-15.79,12.86-28.66,28.7-28.7C1195.35,86.34,1208.22,99.15,1208.3,115.13z M1195.81,116.05c-0.03-4.83-1.21-8.48-3.64-11.73
			c-6.04-8.08-17.68-8.57-24.35-1.02c-5.68,6.43-6,16.18-0.77,22.99c5.05,6.57,13.92,8.28,20.77,3.87
			C1193.19,126.7,1195.62,121.56,1195.81,116.05z"/>
		<path class="st0" d="M1356.56,115.38c0.04-13.03,8.1-24.18,20.02-27.62c9.53-2.75,19.86-0.2,26.73,9.34
			c2.29,3.19,3.97,6.68,5.32,10.36c0.14,0.39-0.01,0.48-0.31,0.61c-7.55,3.18-15.09,6.38-22.64,9.56c-4.75,2-9.5,3.99-14.26,5.96
			c-0.43,0.18-0.5,0.29-0.29,0.73c2.69,5.69,8.47,8.85,14.72,8.09c3.56-0.44,6.81-1.57,9.57-3.91c1.21-1.03,2.25-2.2,3.04-3.59
			c0.17-0.3,0.29-0.37,0.6-0.16c2.91,1.95,5.82,3.9,8.74,5.82c0.37,0.25,0.25,0.41,0.07,0.67c-4.56,6.39-10.64,10.46-18.4,11.77
			c-15.31,2.58-29.6-7.51-32.45-22.82C1356.7,118.45,1356.54,116.7,1356.56,115.38z M1384.83,97.73c-2.33,0-3.93,0.31-5.51,0.76
			c-3.39,0.98-6.19,2.74-8.05,5.83c-1.78,2.96-2.45,6.21-2.53,9.62c-0.01,0.58,0.29,0.33,0.54,0.22
			c8.22-3.44,16.45-6.89,24.68-10.32c0.46-0.19,0.43-0.35,0.19-0.7C1391.77,99.58,1388.42,97.8,1384.83,97.73z"/>
		<path class="st0" d="M1351.11,99.97c0,13.73,0,27.46,0.01,41.19c0,0.58-0.16,0.71-0.72,0.7c-3.76-0.02-7.51-0.02-11.27,0
			c-0.45,0-0.59-0.1-0.59-0.58c0.01-27.58,0.01-55.17,0-82.75c0-0.48,0.14-0.58,0.59-0.58c3.76,0.02,7.51,0.02,11.27,0
			c0.56,0,0.72,0.13,0.72,0.7C1351.11,72.43,1351.11,86.2,1351.11,99.97z"/>
		<path class="st0" d="M1113.1,182.27c2.93-0.56,5.75-1.11,8.57-1.65c2.2-0.42,4.39-0.85,6.59-1.25c0.42-0.08,0.58-0.33,0.75-0.64
			c2.35-4.26,4.7-8.52,7.05-12.78c0.1-0.18,0.2-0.36,0.35-0.61c0.3,0.53,0.56,0.99,0.81,1.45c2.2,3.99,4.4,7.98,6.59,11.97
			c0.19,0.35,0.42,0.54,0.84,0.62c4.99,0.94,9.97,1.91,14.95,2.87c0.03,0.29-0.21,0.4-0.35,0.55c-3.31,3.55-6.62,7.09-9.95,10.63
			c-0.31,0.33-0.44,0.64-0.38,1.1c0.54,4.15,1.06,8.3,1.58,12.45c0.11,0.86,0.21,1.72,0.31,2.59c-0.29,0.12-0.46-0.07-0.65-0.16
			c-4.33-2.03-8.67-4.05-12.99-6.11c-0.56-0.27-1-0.25-1.55,0.02c-4.32,2.06-8.65,4.08-12.98,6.11c-0.17,0.08-0.34,0.14-0.63,0.26
			c0.11-0.98,0.21-1.86,0.32-2.75c0.48-3.86,0.91-7.74,1.49-11.59c0.17-1.13-0.16-1.83-0.9-2.6c-3.17-3.31-6.28-6.68-9.41-10.02
			C1113.39,182.61,1113.29,182.48,1113.1,182.27z"/>
		<path class="st0" d="M1171.8,209.7c0.17-1.35,0.31-2.58,0.47-3.81c0.48-3.8,0.95-7.6,1.44-11.41c0.06-0.43-0.07-0.73-0.36-1.04
			c-3.33-3.53-6.64-7.08-9.95-10.62c-0.14-0.15-0.27-0.3-0.49-0.54c1.16-0.23,2.24-0.45,3.32-0.66c3.95-0.76,7.89-1.52,11.84-2.25
			c0.42-0.08,0.58-0.32,0.76-0.64c2.35-4.26,4.7-8.52,7.05-12.78c0.1-0.18,0.2-0.36,0.35-0.61c0.3,0.53,0.56,0.98,0.81,1.45
			c2.2,3.99,4.4,7.98,6.59,11.97c0.19,0.35,0.42,0.55,0.84,0.62c4.99,0.94,9.97,1.91,14.96,2.87c0.04,0.29-0.21,0.39-0.35,0.55
			c-3.32,3.56-6.65,7.13-9.99,10.67c-0.3,0.32-0.4,0.63-0.34,1.05c0.53,4.15,1.05,8.3,1.58,12.45c0.11,0.87,0.21,1.75,0.32,2.74
			c-0.73-0.34-1.34-0.62-1.96-0.91c-3.92-1.84-7.84-3.67-11.75-5.53c-0.52-0.25-0.93-0.23-1.44,0.01
			c-4.32,2.05-8.65,4.08-12.99,6.11C1172.32,209.48,1172.13,209.55,1171.8,209.7z"/>
		<path class="st0" d="M1249.93,209.59c-0.31,0.04-0.49-0.11-0.69-0.21c-4.39-2.05-8.78-4.11-13.16-6.18c-0.39-0.19-0.7-0.19-1.1,0
			c-4.38,2.07-8.77,4.12-13.16,6.18c-0.2,0.09-0.39,0.25-0.7,0.21c0.15-1.23,0.3-2.46,0.45-3.69c0.48-3.8,0.95-7.6,1.44-11.4
			c0.05-0.43-0.05-0.73-0.35-1.05c-3.33-3.53-6.64-7.08-9.95-10.63c-0.15-0.16-0.36-0.28-0.41-0.57c1.95-0.38,3.9-0.76,5.84-1.13
			c3.09-0.59,6.18-1.19,9.28-1.76c0.39-0.07,0.54-0.32,0.7-0.62c2.35-4.26,4.7-8.52,7.05-12.79c0.1-0.18,0.2-0.36,0.31-0.54
			c0.24,0.1,0.28,0.32,0.37,0.48c2.36,4.28,4.73,8.56,7.08,12.84c0.21,0.38,0.45,0.56,0.89,0.65c4.9,0.93,9.8,1.88,14.7,2.83
			c0.07,0.01,0.15,0.04,0.23,0.06c-0.03,0.28-0.25,0.4-0.4,0.56c-3.31,3.55-6.62,7.09-9.95,10.63c-0.3,0.32-0.41,0.62-0.35,1.05
			c0.49,3.8,0.96,7.6,1.44,11.4C1249.63,207.13,1249.78,208.36,1249.93,209.59z"/>
		<path class="st0" d="M1269.93,209.6c0.1-0.86,0.19-1.72,0.3-2.57c0.52-4.15,1.04-8.3,1.58-12.45c0.06-0.47-0.05-0.81-0.38-1.16
			c-3.32-3.52-6.61-7.05-9.91-10.58c-0.15-0.16-0.36-0.28-0.42-0.58c1.75-0.34,3.49-0.68,5.23-1.01c3.29-0.63,6.59-1.27,9.89-1.88
			c0.39-0.07,0.54-0.31,0.71-0.61c2.36-4.28,4.72-8.56,7.08-12.84c0.09-0.16,0.18-0.32,0.28-0.49c0.24,0.09,0.27,0.31,0.37,0.47
			c2.36,4.28,4.73,8.56,7.08,12.84c0.21,0.38,0.44,0.57,0.88,0.65c4.92,0.93,9.84,1.89,14.76,2.83c0.06,0.01,0.11,0.04,0.17,0.06
			c-0.02,0.27-0.24,0.38-0.39,0.54c-3.33,3.56-6.65,7.12-9.99,10.67c-0.26,0.28-0.37,0.55-0.32,0.94c0.45,3.47,0.88,6.95,1.31,10.42
			c0.2,1.58,0.39,3.16,0.59,4.74c-0.31,0.06-0.49-0.1-0.69-0.2c-4.37-2.05-8.74-4.09-13.1-6.15c-0.43-0.2-0.77-0.22-1.21-0.01
			c-4.36,2.07-8.73,4.11-13.1,6.16C1270.43,209.47,1270.25,209.63,1269.93,209.6z"/>
		<path class="st0" d="M1311.4,182.25c4.39-0.84,8.74-1.68,13.09-2.52c0.1-0.02,0.2-0.06,0.3-0.06c1.72,0.03,2.55-0.98,3.3-2.42
			c1.98-3.82,4.13-7.56,6.21-11.33c0.1-0.18,0.16-0.38,0.38-0.53c0.87,1.58,1.75,3.15,2.62,4.73c1.59,2.88,3.18,5.77,4.76,8.66
			c0.2,0.36,0.44,0.53,0.85,0.61c4.98,0.94,9.96,1.91,14.95,2.87c0,0.29-0.23,0.4-0.38,0.56c-3.33,3.56-6.65,7.12-9.99,10.67
			c-0.28,0.3-0.38,0.59-0.33,0.99c0.48,3.78,0.95,7.56,1.43,11.34c0.14,1.09,0.28,2.18,0.42,3.27c0.02,0.16,0.06,0.39-0.02,0.48
			c-0.16,0.15-0.34-0.04-0.5-0.11c-4.35-2.04-8.71-4.07-13.04-6.14c-0.58-0.28-1.03-0.27-1.61,0.01c-4.32,2.06-8.65,4.08-12.99,6.11
			c-0.16,0.08-0.35,0.26-0.51,0.16c-0.19-0.13-0.06-0.38-0.04-0.57c0.6-4.81,1.21-9.62,1.82-14.43c0.06-0.46-0.03-0.81-0.37-1.16
			c-3.32-3.51-6.61-7.05-9.91-10.58C1311.68,182.68,1311.48,182.56,1311.4,182.25z"/>
	</g>
	<g>
		<g>
			<path class="st0" d="M530.62,79.44h-37.48c-9.54,0-17.31,7.76-17.31,17.31v37.48c0,9.54,7.76,17.31,17.31,17.31h37.48
				c9.54,0,17.31-7.76,17.31-17.31V96.75C547.93,87.21,540.16,79.44,530.62,79.44z M511.88,137.77c-12.29,0-22.28-9.99-22.28-22.28
				c0-12.29,9.99-22.28,22.28-22.28c12.29,0,22.28,9.99,22.28,22.28C534.16,127.78,524.16,137.77,511.88,137.77z M535.11,97.29
				c-2.96,0-5.35-2.4-5.35-5.35c0-2.96,2.4-5.36,5.35-5.36c2.96,0,5.35,2.4,5.35,5.36C540.47,94.9,538.07,97.29,535.11,97.29z"/>
			<path class="st0" d="M547.51,62.65h-71.26c-9.47,0-17.21,7.75-17.21,17.21v71.26c0,9.47,7.75,17.21,17.21,17.21h71.26
				c9.47,0,17.21-7.75,17.21-17.21V79.86C564.72,70.4,556.98,62.65,547.51,62.65z M555.39,134.24c0,13.66-11.11,24.77-24.77,24.77
				h-37.48c-13.66,0-24.77-11.11-24.77-24.77V96.75c0-13.66,11.11-24.77,24.77-24.77h37.48c13.66,0,24.77,11.11,24.77,24.77V134.24z
				"/>
			<path class="st0" d="M511.88,100.67c-8.17,0-14.82,6.65-14.82,14.82s6.65,14.82,14.82,14.82c8.17,0,14.82-6.65,14.82-14.82
				S520.05,100.67,511.88,100.67z"/>
		</g>
		<g>
			<path class="st0" d="M641.51,86.19c-0.09,0.08-0.19,0.3-0.32,0.64c-0.13,0.34-0.19,0.94-0.19,1.8c0,1.2,0.17,2.36,0.51,3.47
				v42.55c0,4.37-0.43,8.57-1.28,12.6c-0.86,4.03-2.34,7.61-4.44,10.73c-2.1,3.13-4.97,5.61-8.61,7.46
				c-3.64,1.84-8.29,2.76-13.95,2.76h-1.67c-4.88,0-8.85-0.66-11.89-1.99c-3.04-1.33-5.42-3.02-7.13-5.08
				c-1.71-2.06-2.87-4.31-3.47-6.75c-0.6-2.44-0.9-4.77-0.9-7c0-1.88,0.24-3.71,0.71-5.46c0.47-1.76,1.15-3.3,2.06-4.63
				c0.9-1.33,1.99-2.4,3.28-3.22c1.28-0.81,2.74-1.22,4.37-1.22c1.54,0,2.53,0.41,2.96,1.22c0.43,0.82,0.64,1.65,0.64,2.51
				c0,1.89-0.39,3.45-1.16,4.69c-0.77,1.24-1.61,2.34-2.51,3.28c-0.9,0.94-1.73,1.89-2.51,2.83c-0.77,0.95-1.16,2.1-1.16,3.47
				c0,4.11,1.37,7.07,4.11,8.87c2.74,1.8,6.17,2.7,10.28,2.7c3.6,0,6.73-0.73,9.38-2.18c2.65-1.46,4.86-3.3,6.62-5.53
				c1.76-2.23,3.06-4.65,3.92-7.26c0.86-2.61,1.28-5.08,1.28-7.39l-1.93,0.13c-3.08,0-5.76-0.71-8.03-2.12
				c-2.27-1.41-4.16-3.19-5.66-5.33c-1.5-2.14-2.61-4.46-3.34-6.94c-0.73-2.48-1.09-4.8-1.09-6.94v-4.5c0-1.63,0.21-3.53,0.64-5.72
				c0.43-2.18,1.03-4.45,1.8-6.81c0.77-2.36,1.71-4.67,2.83-6.94c1.11-2.27,2.31-4.31,3.6-6.11c1.29-1.8,2.65-3.25,4.11-4.37
				c1.46-1.11,2.96-1.67,4.5-1.67c0.6,0,1.29,0.13,2.06,0.39l9,0.64c0.6,0.09,1.18,0.3,1.74,0.64
				C641.23,84.73,641.51,85.33,641.51,86.19z M630.46,101.61c0.17-0.68,0.34-1.33,0.52-1.93c0.17-0.6,0.26-1.28,0.26-2.06
				c0-1.11-0.28-2.12-0.84-3.02c-0.56-0.9-1.56-1.35-3.02-1.35c-1.89,0-3.43,0.77-4.63,2.31c-1.2,1.54-2.12,3.39-2.77,5.53
				c-0.64,2.14-1.09,4.37-1.35,6.68c-0.26,2.31-0.39,4.2-0.39,5.66c0,1.11,0.09,2.72,0.26,4.82c0.17,2.1,0.58,4.18,1.22,6.24
				c0.64,2.06,1.54,3.85,2.7,5.4c1.16,1.54,2.72,2.31,4.69,2.31c0.17,0,0.66-0.04,1.48-0.13c0.81-0.09,1.43-0.22,1.86-0.39V101.61z"
				/>
			<path class="st0" d="M670.95,135.03c-1.29,1.8-2.34,3.79-3.15,5.98c-0.81,2.18-1.52,4.46-2.12,6.81
				c-0.6,2.36-1.09,4.72-1.48,7.07c-0.39,2.36-0.79,4.61-1.22,6.75c-0.17,0.52-0.84,0.86-1.99,1.03c-1.16,0.17-1.99,0.26-2.51,0.26
				c-1.54,0-2.81-0.08-3.79-0.26c-0.99-0.17-1.74-0.58-2.25-1.22c-0.51-0.64-0.9-1.63-1.16-2.96c-0.26-1.33-0.47-3.11-0.64-5.34
				l1.67-38.18c0-1.11,0.6-1.67,1.8-1.67c0.43,0,1.03,0.07,1.8,0.19c0.77,0.13,1.59,0.32,2.44,0.58c0.86,0.26,1.59,0.58,2.19,0.96
				c0.6,0.39,0.9,0.84,0.9,1.35v26.09c0.09-0.08,0.21-0.43,0.39-1.03c0.6-1.54,1.33-3.45,2.19-5.72c0.86-2.27,1.8-4.44,2.83-6.49
				c1.03-2.06,2.12-3.81,3.28-5.27c1.15-1.46,2.33-2.19,3.53-2.19c1.54,0,2.72,0.37,3.54,1.09c0.81,0.73,1.43,1.65,1.86,2.76
				c0.43,1.12,0.68,2.31,0.77,3.6c0.08,1.29,0.13,2.53,0.13,3.73c0,0.86-0.08,2.27-0.26,4.24c-0.17,1.97-0.26,4.93-0.26,8.87
				c0,2.23,0.21,4.24,0.64,6.04c0.43,1.8,1.29,2.7,2.57,2.7c0.94,0,1.8-0.43,2.57-1.28c0.77-0.86,1.48-1.93,2.12-3.21
				c0.64-1.28,1.18-2.65,1.61-4.11c0.43-1.46,0.68-2.83,0.77-4.11c0.08-1.63,0.73-2.44,1.93-2.44c0.77,0,1.29,0.26,1.54,0.77
				c0.26,0.52,0.39,1.11,0.39,1.8v0.26c-0.08,1.71-0.4,3.64-0.96,5.78c-0.56,2.14-1.37,4.16-2.44,6.04
				c-1.07,1.89-2.47,3.47-4.18,4.76c-1.72,1.29-3.81,1.93-6.3,1.93c-3.85,0-6.32-1.39-7.39-4.18c-1.07-2.78-1.61-6.92-1.61-12.41
				L670.95,135.03z"/>
			<path class="st0" d="M721.08,155.09c0,2.06-0.69,3.64-2.06,4.76c-1.37,1.11-2.94,1.93-4.69,2.44c-1.76,0.51-3.52,0.83-5.27,0.96
				c-1.76,0.13-3.02,0.19-3.79,0.19c-1.2,0-2.68-0.13-4.43-0.39c-1.76-0.26-3.47-0.66-5.15-1.22c-1.67-0.56-3.08-1.35-4.24-2.38
				c-1.16-1.03-1.73-2.31-1.73-3.86c0-0.94,0.36-1.61,1.09-1.99c0.73-0.39,1.43-0.58,2.12-0.58c0.94,0,1.86,0.34,2.76,1.03
				c0.9,0.69,1.84,1.41,2.83,2.19c0.98,0.77,2.08,1.5,3.28,2.19c1.2,0.69,2.57,1.03,4.11,1.03c0.68,0,1.61-0.23,2.76-0.71
				c1.16-0.47,1.74-1.31,1.74-2.51c0-1.2-0.49-2.36-1.48-3.47c-0.98-1.11-2.23-2.27-3.73-3.47c-1.5-1.2-3.11-2.44-4.82-3.73
				c-1.71-1.29-3.32-2.68-4.82-4.18c-1.5-1.5-2.74-3.15-3.73-4.95c-0.98-1.8-1.48-3.77-1.48-5.91c0-3,0.97-5.53,2.89-7.59
				c1.93-2.06,4.2-3.68,6.81-4.88c2.61-1.2,5.29-2.05,8.03-2.57c2.74-0.52,4.89-0.77,6.43-0.77c1.46,0,2.91,0.3,4.37,0.9
				c1.46,0.6,2.19,1.76,2.19,3.47c0,0.51-0.11,1.27-0.32,2.25c-0.21,0.99-0.56,1.95-1.03,2.89c-0.47,0.94-1.09,1.78-1.86,2.51
				c-0.77,0.73-1.76,1.09-2.96,1.09c-0.34,0-0.69-0.15-1.03-0.45c-0.34-0.3-0.73-0.64-1.15-1.03c-0.43-0.39-0.88-0.73-1.35-1.03
				c-0.47-0.3-1.01-0.45-1.61-0.45c-3,0-5.1,0.88-6.3,2.63c-1.2,1.76-1.8,3.62-1.8,5.59c0,1.72,1.01,3.51,3.02,5.4
				c2.01,1.89,4.24,3.77,6.68,5.66c2.44,1.89,4.67,3.75,6.68,5.59C720.07,151.6,721.08,153.37,721.08,155.09z"/>
			<path class="st0" d="M723.9,139.79c0.09-4.37,0.21-8.83,0.39-13.37c0.17-4.54,0.34-8.74,0.51-12.6c0-0.69-0.69-1.16-2.06-1.41
				c-1.37-0.26-2.91-0.51-4.63-0.77c-1.71-0.26-3.25-0.66-4.63-1.22c-1.37-0.56-2.06-1.48-2.06-2.76c0-1.11,1.11-1.76,3.34-1.93
				c2.23-0.17,5.53-0.26,9.9-0.26c0.34,0,0.58-0.52,0.71-1.54c0.13-1.03,0.21-2.33,0.26-3.92c0.04-1.58,0.08-3.28,0.12-5.08
				c0.04-1.8,0.11-3.49,0.2-5.08c0.08-1.58,0.23-2.89,0.45-3.92c0.21-1.03,0.49-1.54,0.83-1.54c0.43,0,1.2,0.09,2.31,0.26
				c1.11,0.17,2.27,0.41,3.47,0.71c1.2,0.3,2.25,0.67,3.15,1.09c0.9,0.43,1.35,0.9,1.35,1.41l-1.41,16.71
				c0,0.51,0.45,0.88,1.35,1.09c0.9,0.22,2.06,0.34,3.47,0.39c1.41,0.04,2.91,0.06,4.5,0.06c1.58,0,3.09,0.13,4.5,0.39
				c1.41,0.26,2.57,0.66,3.47,1.22c0.9,0.56,1.35,1.39,1.35,2.51c0,0.17-0.09,0.45-0.26,0.83c-0.17,0.38-0.39,0.58-0.64,0.58
				c-0.17,0-0.41-0.13-0.71-0.39c-0.3-0.26-1.09-0.39-2.38-0.39c-0.34,0-1.28,0.05-2.83,0.13c-1.54,0.09-3.17,0.22-4.89,0.39
				c-1.72,0.17-3.28,0.37-4.69,0.58c-1.41,0.21-2.21,0.49-2.38,0.84c-0.09,0.17-0.19,1.18-0.32,3.02c-0.13,1.84-0.26,4.26-0.38,7.26
				c-0.13,3-0.24,6.45-0.32,10.35c-0.09,3.9-0.13,7.99-0.13,12.28c0,1.63,0.08,3.21,0.26,4.76c0.17,1.54,0.43,2.93,0.77,4.18
				c0.34,1.24,0.79,2.25,1.35,3.02c0.56,0.77,1.22,1.16,1.99,1.16c1.11,0,2.14-0.47,3.09-1.41c0.94-0.94,1.8-2.23,2.57-3.86
				c0.77-1.63,1.46-3.47,2.06-5.53c0.6-2.06,1.11-4.16,1.54-6.3c0.26-1.28,0.56-2.21,0.9-2.76c0.34-0.56,0.85-0.83,1.54-0.83
				c0.6,0,1.13,0.19,1.61,0.58c0.47,0.39,0.71,1.26,0.71,2.63c0,0.86-0.05,1.42-0.13,1.67c-0.26,1.54-0.75,3.66-1.48,6.36
				c-0.73,2.7-1.72,5.36-2.96,7.97c-1.24,2.62-2.76,4.91-4.56,6.88c-1.8,1.97-3.9,2.96-6.3,2.96c-2.31,0-4.33-0.66-6.04-1.99
				c-1.72-1.33-3.15-3.17-4.3-5.53c-1.16-2.36-2.04-5.14-2.64-8.35c-0.6-3.21-0.9-6.66-0.9-10.35V139.79z"/>
			<path class="st0" d="M800.13,149.05c-0.17,1.2-0.6,2.61-1.29,4.24c-0.69,1.63-1.57,3.19-2.64,4.69c-1.07,1.5-2.31,2.76-3.73,3.79
				c-1.41,1.03-2.98,1.54-4.69,1.54c-2.57,0-4.82-0.98-6.75-2.96c-1.93-1.97-3.1-4.75-3.53-8.36c-0.51,1.37-1.11,2.96-1.8,4.76
				c-0.69,1.8-1.54,3.47-2.57,5.01c-1.03,1.54-2.21,2.85-3.53,3.92c-1.33,1.07-2.89,1.61-4.69,1.61c-0.52,0-0.9-0.04-1.16-0.13
				c-0.26-0.08-0.54-0.19-0.84-0.32c-0.3-0.13-0.64-0.24-1.03-0.32c-0.39-0.09-0.92-0.13-1.61-0.13c-2.06,0-3.79-0.66-5.21-1.99
				c-1.42-1.33-2.55-3.02-3.41-5.08c-0.86-2.06-1.48-4.31-1.87-6.75c-0.38-2.44-0.58-4.73-0.58-6.88c0-5.14,0.28-10.03,0.84-14.65
				c0.56-4.63,1.48-8.72,2.77-12.28c1.28-3.56,2.95-6.38,5.01-8.48c2.06-2.1,4.54-3.15,7.46-3.15c1.71,0,3.02,0.15,3.92,0.45
				c0.9,0.3,1.74,0.64,2.51,1.03c0.77,0.39,1.61,0.79,2.51,1.22c0.9,0.43,2.16,0.77,3.79,1.03c1.8,1.03,3.06,2.25,3.79,3.67
				c0.73,1.41,1.2,2.94,1.41,4.56c0.21,1.63,0.28,3.32,0.19,5.08c-0.09,1.76,0,3.49,0.26,5.21c0,0.09,0.19,0.22,0.58,0.39
				c0.39,0.17,0.84,0.37,1.35,0.58c0.51,0.22,0.97,0.52,1.35,0.9c0.38,0.39,0.58,0.88,0.58,1.48v0.51c-0.86,2.23-1.37,4.2-1.54,5.91
				c-0.17,1.71-0.26,3.77-0.26,6.17c0,1.2,0.06,2.51,0.19,3.92c0.13,1.41,0.34,2.74,0.65,3.99c0.3,1.24,0.75,2.27,1.35,3.08
				c0.6,0.82,1.37,1.22,2.32,1.22c1.03,0,1.95-0.51,2.76-1.54c0.81-1.03,1.49-2.21,2.06-3.54c0.56-1.33,1.03-2.68,1.41-4.05
				c0.39-1.37,0.62-2.4,0.71-3.08c0.17-1.03,0.6-1.54,1.29-1.54c0.43,0,0.83,0.24,1.22,0.71c0.39,0.47,0.58,1.31,0.58,2.51
				c0,0.34,0,0.66,0,0.96C800.26,148.25,800.21,148.62,800.13,149.05z M776.35,128.22c0-0.94-0.09-2.06-0.26-3.34
				c-0.17-1.28-0.47-2.48-0.9-3.6c-0.43-1.11-1.07-2.06-1.93-2.83c-0.86-0.77-2.02-1.16-3.47-1.16c-2.4,0-4.35,1.09-5.85,3.28
				c-1.5,2.18-2.68,4.76-3.53,7.71c-0.86,2.96-1.41,6-1.67,9.13c-0.26,3.13-0.39,5.59-0.39,7.39c0,1.37,0.06,3.02,0.19,4.95
				c0.13,1.93,0.36,3.75,0.71,5.46c0.34,1.71,0.84,3.17,1.48,4.37c0.64,1.2,1.48,1.8,2.51,1.8c2.48,0,4.39-0.96,5.72-2.89
				c1.33-1.93,2.34-4.33,3.02-7.2c0.68-2.87,1.18-5.95,1.48-9.26c0.3-3.3,0.58-6.32,0.83-9.06c0.17-1.46,0.56-2.38,1.16-2.77
				c0.6-0.38,0.9-0.66,0.9-0.83V128.22z"/>
			<path class="st0" d="M838.95,166.4c0,0.86-0.38,1.46-1.15,1.8c-0.77,0.34-1.5,0.51-2.19,0.51l-2.57-0.26
				c-0.43,0-0.65,0.26-0.65,0.77l-0.13,1.54c0.09,2.31,0.13,5.23,0.13,8.74c0,3.51,0,6.9,0,10.15c0,3.43-0.11,6.79-0.32,10.09
				c-0.22,3.3-0.71,6.25-1.48,8.87c-0.77,2.61-1.86,4.71-3.28,6.3c-1.41,1.58-3.36,2.38-5.85,2.38c-2.14,0-4.39-0.11-6.75-0.32
				c-2.36-0.21-4.5-0.75-6.43-1.61c-1.93-0.86-3.52-2.12-4.76-3.79c-1.25-1.67-1.87-3.92-1.87-6.75c0-2.83,0.32-5.72,0.97-8.68
				c0.65-2.96,1.57-5.83,2.78-8.61c1.21-2.79,2.65-5.44,4.33-7.97c1.68-2.53,3.51-4.78,5.5-6.75c1.04-1.03,2.18-2.08,3.43-3.15
				c1.25-1.07,2.35-1.95,3.3-2.63v-0.13c0.17-1.8,0.3-3.6,0.39-5.4c0.08-1.8,0.12-3.64,0.12-5.53c-0.43,0.77-0.94,1.82-1.55,3.15
				c-0.6,1.33-1.31,2.6-2.13,3.79c-0.82,1.2-1.75,2.25-2.78,3.15c-1.04,0.9-2.2,1.35-3.49,1.35c-0.69,0-1.29-0.13-1.81-0.38
				c-0.52-0.26-1.25-0.39-2.2-0.39c-2.41-0.17-4.42-0.81-6.01-1.93c-1.59-1.11-2.84-2.65-3.74-4.63c-0.9-1.97-1.53-4.31-1.88-7
				c-0.35-2.7-0.52-5.72-0.52-9.06c0-4.03,0.23-8.18,0.71-12.47c0.47-4.29,1.31-8.21,2.52-11.76c1.2-3.56,2.82-6.47,4.84-8.74
				c2.02-2.27,4.58-3.41,7.68-3.41c0.34,0,0.79,0.13,1.35,0.39c0.56,0.26,1.16,0.54,1.81,0.84c0.64,0.3,1.29,0.6,1.94,0.9
				c0.64,0.3,1.14,0.49,1.48,0.58c1.72,0.34,3.31,0.77,4.77,1.28c1.46,0.51,2.71,1.18,3.74,1.99c1.03,0.81,1.85,1.88,2.45,3.21
				c0.6,1.33,0.9,2.98,0.9,4.95c0,1.37-0.11,2.62-0.32,3.73c-0.21,1.11-0.32,2.53-0.32,4.24c0,0.69,0.24,1.16,0.73,1.41
				c0.49,0.26,1.05,0.47,1.67,0.64c0.63,0.17,1.2,0.37,1.71,0.58c0.52,0.22,0.77,0.66,0.77,1.35c0,0.17-0.19,0.58-0.58,1.22
				c-0.39,0.64-0.63,1.05-0.71,1.22c-0.26,0.69-0.47,1.78-0.64,3.28c-0.17,1.5-0.3,3.13-0.38,4.88c-0.09,1.76-0.15,3.56-0.19,5.4
				c-0.05,1.84-0.07,3.49-0.07,4.95c0,1.11,0,2.59,0,4.43c0,1.85,0.04,3.37,0.13,4.56h0.52c0.17,0,0.34-0.02,0.51-0.06
				c0.17-0.04,0.3-0.06,0.38-0.06c0.77,0,1.82,0.24,3.15,0.71C838.28,164.75,838.95,165.45,838.95,166.4z M822.62,126.68
				c0-0.94-0.09-2.01-0.26-3.21c-0.17-1.2-0.48-2.33-0.91-3.41c-0.43-1.07-1.06-1.97-1.88-2.7c-0.82-0.73-1.83-1.09-3.04-1.09
				c-1.64,0-3.17,0.64-4.59,1.93c-1.43,1.28-2.68,3.11-3.76,5.46c-1.08,2.36-1.94,5.23-2.59,8.61c-0.65,3.39-0.97,7.22-0.97,11.5
				c0,1.8,0.06,3.66,0.19,5.59c0.13,1.93,0.34,3.66,0.64,5.21c0.3,1.54,0.77,2.83,1.41,3.86c0.64,1.03,1.48,1.54,2.51,1.54
				c1.8,0,3.38-0.77,4.76-2.32c1.37-1.54,2.51-3.45,3.41-5.72c0.9-2.27,1.58-4.63,2.06-7.07c0.47-2.44,0.75-4.56,0.84-6.36
				c0.09-2.48,0.23-4.18,0.41-5.08c0.18-0.9,0.36-1.48,0.55-1.74c0.55-0.68,0.89-1.5,1.02-2.44
				C822.56,128.31,822.62,127.45,822.62,126.68z M822.11,171.28c-1.99,1.37-3.87,3.3-5.64,5.78c-1.77,2.49-3.31,5.19-4.61,8.1
				c-1.3,2.91-2.31,5.87-3.05,8.87c-0.73,3-1.1,5.7-1.1,8.1c0,0.86,0.09,1.8,0.26,2.83c0.17,1.03,0.45,1.99,0.84,2.89
				c0.39,0.9,0.95,1.65,1.69,2.25c0.73,0.6,1.62,0.9,2.66,0.9c1.81,0,3.31-0.75,4.47-2.25c1.17-1.5,2.08-3.28,2.73-5.33
				c0.65-2.06,1.08-4.16,1.3-6.3c0.21-2.14,0.32-3.86,0.32-5.14c0-0.26,0-0.64,0-1.16c0-0.51,0.02-1.5,0.06-2.96
				c0.04-1.46,0.06-3.49,0.06-6.11C822.11,179.14,822.11,175.65,822.11,171.28z"/>
			<path class="st0" d="M877.38,144.93c0,0.6-0.19,2.04-0.58,4.31c-0.39,2.27-1.07,4.67-2.06,7.2c-0.99,2.53-2.32,4.78-3.99,6.75
				c-1.67,1.97-3.79,2.95-6.36,2.95c-2.74,0-4.93-0.96-6.56-2.89c-1.63-1.93-2.87-4.24-3.73-6.94c-0.86-2.7-1.41-5.53-1.67-8.48
				c-0.26-2.96-0.38-5.42-0.38-7.39c0-2.23,0.13-4.48,0.38-6.75c0.26-2.27,0.43-4.52,0.51-6.75c0-0.68-0.34-1.11-1.03-1.28
				c-0.69-0.17-1.33-0.26-1.93-0.26c-1.03,0-1.67,0.13-1.93,0.39c-0.26,0.26-0.43,0.56-0.52,0.9l-0.51,4.11
				c-0.34,2.74-0.71,5.38-1.09,7.91c-0.38,2.53-0.81,4.75-1.29,6.68c-0.47,1.93-1.03,3.47-1.67,4.63c-0.64,1.16-1.39,1.74-2.25,1.74
				h-0.13c-0.34,0-0.67-0.08-0.97-0.26c-0.3-0.17-0.45-0.6-0.45-1.28c0-0.34,0.09-0.86,0.26-1.54c0.69-3,1.11-5.48,1.29-7.45
				c0.17-1.97,0.3-3.73,0.38-5.27v-0.9c0-0.43,0.02-0.94,0.06-1.54c0.04-0.6,0.06-1.33,0.06-2.19v-3.34c0-0.94,0-1.93,0-2.96
				s-0.09-2.14-0.26-3.34l-0.38-7.58c0-0.52,0.21-0.98,0.64-1.41c0.43-0.43,0.99-0.81,1.67-1.16c0.69-0.34,1.41-0.6,2.19-0.77
				c0.77-0.17,1.45-0.26,2.06-0.26c1.46,0,2.19,0.95,2.19,2.83v0.64l-0.13,2.83v0.77c0,0.6,0.13,0.96,0.38,1.09
				c0.26,0.13,0.77,0.28,1.54,0.45h0.39c0.69,0.09,1.8,0.17,3.34,0.26c1.54,0.09,3.08,0.26,4.63,0.51c1.54,0.26,2.89,0.67,4.05,1.22
				c1.15,0.56,1.73,1.35,1.73,2.38c0,0.34-0.09,0.84-0.26,1.48c-0.17,0.64-0.39,1.28-0.65,1.93c-0.26,0.64-0.47,1.22-0.64,1.73
				c-0.17,0.51-0.26,0.86-0.26,1.03c-1.54,5.91-2.31,12.08-2.31,18.51c0,0.51,0.04,1.46,0.13,2.83c0.08,1.37,0.26,2.78,0.51,4.24
				c0.26,1.46,0.64,2.74,1.16,3.86c0.51,1.12,1.16,1.67,1.93,1.67c1.29,0,2.44-0.79,3.47-2.38c1.03-1.59,1.93-3.43,2.7-5.53
				c0.77-2.1,1.39-4.22,1.86-6.36c0.47-2.14,0.79-3.73,0.97-4.76c0.17-0.94,0.45-1.52,0.83-1.73c0.39-0.21,0.75-0.32,1.09-0.32
				c1.2,0,1.8,0.77,1.8,2.31c0,0.17-0.02,0.62-0.06,1.35C877.53,144.05,877.47,144.59,877.38,144.93z"/>
			<path class="st0" d="M924.56,149.05c-0.17,1.2-0.6,2.61-1.29,4.24c-0.69,1.63-1.57,3.19-2.64,4.69c-1.07,1.5-2.31,2.76-3.73,3.79
				c-1.41,1.03-2.98,1.54-4.69,1.54c-2.57,0-4.82-0.98-6.75-2.96c-1.93-1.97-3.11-4.75-3.53-8.36c-0.51,1.37-1.11,2.96-1.8,4.76
				c-0.69,1.8-1.54,3.47-2.57,5.01c-1.03,1.54-2.21,2.85-3.54,3.92c-1.33,1.07-2.89,1.61-4.69,1.61c-0.52,0-0.9-0.04-1.16-0.13
				c-0.26-0.08-0.54-0.19-0.84-0.32c-0.3-0.13-0.64-0.24-1.03-0.32c-0.38-0.09-0.92-0.13-1.61-0.13c-2.06,0-3.79-0.66-5.21-1.99
				c-1.41-1.33-2.55-3.02-3.41-5.08c-0.86-2.06-1.48-4.31-1.87-6.75c-0.39-2.44-0.58-4.73-0.58-6.88c0-5.14,0.28-10.03,0.84-14.65
				c0.56-4.63,1.48-8.72,2.76-12.28c1.29-3.56,2.96-6.38,5.01-8.48c2.06-2.1,4.54-3.15,7.46-3.15c1.71,0,3.02,0.15,3.92,0.45
				c0.9,0.3,1.74,0.64,2.51,1.03c0.77,0.39,1.61,0.79,2.51,1.22c0.9,0.43,2.16,0.77,3.79,1.03c1.8,1.03,3.06,2.25,3.79,3.67
				c0.72,1.41,1.2,2.94,1.41,4.56c0.21,1.63,0.28,3.32,0.19,5.08c-0.09,1.76,0,3.49,0.26,5.21c0,0.09,0.19,0.22,0.58,0.39
				c0.38,0.17,0.84,0.37,1.35,0.58c0.51,0.22,0.97,0.52,1.35,0.9c0.38,0.39,0.58,0.88,0.58,1.48v0.51c-0.86,2.23-1.37,4.2-1.54,5.91
				c-0.17,1.71-0.26,3.77-0.26,6.17c0,1.2,0.06,2.51,0.19,3.92c0.13,1.41,0.34,2.74,0.64,3.99c0.3,1.24,0.75,2.27,1.35,3.08
				c0.6,0.82,1.37,1.22,2.31,1.22c1.03,0,1.95-0.51,2.76-1.54c0.81-1.03,1.5-2.21,2.06-3.54c0.56-1.33,1.03-2.68,1.41-4.05
				c0.39-1.37,0.62-2.4,0.71-3.08c0.17-1.03,0.6-1.54,1.29-1.54c0.43,0,0.83,0.24,1.22,0.71c0.39,0.47,0.58,1.31,0.58,2.51
				c0,0.34,0,0.66,0,0.96C924.69,148.25,924.64,148.62,924.56,149.05z M900.78,128.22c0-0.94-0.09-2.06-0.26-3.34
				c-0.17-1.28-0.47-2.48-0.9-3.6c-0.43-1.11-1.07-2.06-1.93-2.83c-0.86-0.77-2.02-1.16-3.47-1.16c-2.4,0-4.35,1.09-5.85,3.28
				c-1.5,2.18-2.68,4.76-3.54,7.71c-0.86,2.96-1.41,6-1.67,9.13c-0.26,3.13-0.39,5.59-0.39,7.39c0,1.37,0.07,3.02,0.19,4.95
				c0.13,1.93,0.36,3.75,0.71,5.46c0.34,1.71,0.84,3.17,1.48,4.37c0.64,1.2,1.48,1.8,2.51,1.8c2.48,0,4.39-0.96,5.72-2.89
				c1.33-1.93,2.34-4.33,3.02-7.2c0.68-2.87,1.18-5.95,1.48-9.26c0.3-3.3,0.58-6.32,0.83-9.06c0.17-1.46,0.56-2.38,1.16-2.77
				c0.6-0.38,0.9-0.66,0.9-0.83V128.22z"/>
			<path class="st0" d="M963.89,131.43c-1.2,2.31-2.32,4.76-3.34,7.33c-1.03,2.57-1.8,4.58-2.32,6.04c-0.09,0.43-0.32,1.33-0.71,2.7
				c-0.38,1.37-0.81,2.89-1.29,4.56c-0.47,1.67-0.88,3.32-1.22,4.95c-0.34,1.63-0.52,2.96-0.52,3.98c0,0.43-0.38,0.82-1.16,1.16
				c-0.77,0.34-1.76,0.51-2.95,0.51c-1.89,0-3.39-0.26-4.5-0.77c-1.11-0.51-1.95-1.35-2.51-2.51c-0.56-1.16-0.9-2.68-1.03-4.56
				c-0.13-1.88-0.19-4.15-0.19-6.81v-9.64c0-0.68-0.02-1.37-0.06-2.05c-0.05-0.69-0.19-1.11-0.45-1.29
				c-0.43,0.17-0.96,1.29-1.61,3.34c-0.64,2.06-1.24,4.57-1.8,7.52c-0.56,2.96-1.05,6.06-1.48,9.32c-0.43,3.26-0.64,6.17-0.64,8.74
				c0,0.94-0.49,1.5-1.48,1.67c-0.98,0.17-2.08,0.26-3.28,0.26c-0.34,0-0.92-0.07-1.74-0.19c-0.81-0.13-1.63-0.28-2.44-0.45
				c-0.82-0.17-1.56-0.41-2.25-0.71c-0.69-0.3-1.11-0.66-1.28-1.09c-0.43-1.11-0.75-2.96-0.97-5.53c-0.22-2.57-0.32-6.55-0.32-11.95
				c0-3.17,0.06-6.86,0.19-11.05c0.13-4.2,0.28-9.13,0.45-14.78c0-0.77-0.04-1.78-0.13-3.02c-0.09-1.24-0.13-1.95-0.13-2.12
				c0-0.68,0.28-1.09,0.84-1.22c0.56-0.13,0.96-0.19,1.22-0.19c0.6,0,1.31,0.07,2.12,0.19c0.81,0.13,1.63,0.28,2.44,0.45
				c0.81,0.17,1.56,0.37,2.25,0.58c0.69,0.22,1.16,0.41,1.41,0.58v30.98c0.43-1.71,0.92-3.71,1.48-5.98
				c0.56-2.27,1.2-4.52,1.93-6.75c0.73-2.23,1.52-4.28,2.38-6.17c0.85-1.88,1.75-3.25,2.7-4.11c0.34-0.26,0.99-0.45,1.93-0.58
				c0.94-0.13,1.71-0.19,2.32-0.19c0.43,0,0.96,0.06,1.61,0.19c0.64,0.13,1.26,0.32,1.86,0.58c0.6,0.26,1.13,0.58,1.61,0.96
				c0.47,0.39,0.75,0.84,0.83,1.35v20.82v1.16c0,0.51,0.09,0.77,0.26,0.77c0.16,0,0.66-1.16,1.47-3.47
				c0.81-2.31,1.77-5.05,2.88-8.23c1.11-3.17,2.3-6.43,3.58-9.77c1.28-3.34,2.43-5.99,3.45-7.97c0.17-0.34,0.74-0.53,1.73-0.58
				c0.98-0.04,1.85-0.06,2.62-0.06c0.59,0,1.4,0.19,2.43,0.58c1.02,0.39,2.02,0.92,3.01,1.61c0.98,0.69,1.83,1.46,2.57,2.31
				c0.73,0.86,1.09,1.76,1.09,2.7c0,0.17-0.26,0.66-0.77,1.48c-0.51,0.82-0.86,1.65-1.03,2.51c-0.6,2.4-1.01,4.76-1.22,7.07
				c-0.22,2.31-0.32,5.27-0.32,8.87c0,1.54,0.06,3.09,0.19,4.63c0.13,1.54,0.34,2.94,0.64,4.18c0.3,1.24,0.71,2.25,1.22,3.02
				c0.51,0.77,1.2,1.16,2.06,1.16c1.2,0,2.27-0.41,3.21-1.22c0.94-0.81,1.75-1.91,2.44-3.28c0.69-1.37,1.29-2.98,1.8-4.82
				c0.52-1.84,0.94-3.75,1.29-5.72c0.43-2.06,1.2-3.09,2.31-3.09c0.69,0,1.13,0.17,1.35,0.52c0.22,0.34,0.32,1.11,0.32,2.31
				c0,0.69-0.05,1.16-0.13,1.41c-0.09,1.12-0.45,2.85-1.09,5.21c-0.64,2.36-1.54,4.71-2.7,7.07c-1.16,2.36-2.59,4.41-4.3,6.17
				c-1.72,1.76-3.69,2.64-5.92,2.64c-2.65,0-4.81-0.62-6.51-1.86c-1.69-1.24-3-2.91-3.94-5.02c-0.93-2.1-1.59-4.52-1.97-7.26
				c-0.38-2.74-0.57-5.61-0.57-8.61v-0.9L963.89,131.43z"/>
		</g>
	</g>
</g>
</svg>
