<?xml version="1.0" encoding="utf-8"?>
<!-- Generator: Adobe Illustrator 24.3.0, SVG Export Plug-In . SVG Version: 6.00 Build 0)  -->
<svg version="1.1" id="Layer_1" xmlns="http://www.w3.org/2000/svg" xmlns:xlink="http://www.w3.org/1999/xlink" x="0px" y="0px"
	 viewBox="0 0 216 216" style="enable-background:new 0 0 216 216;" xml:space="preserve">
<style type="text/css">
	.st0{fill:#2D0402;}
	.st1{fill:#FF9A00;}
</style>
<g>
	<path class="st0" d="M178.85,216H37.15c-21.93,0-39.71-17.78-39.71-39.71V39.71C-2.56,17.78,15.22,0,37.15,0h141.69
		c21.93,0,39.71,17.78,39.71,39.71v136.58C218.56,198.22,200.78,216,178.85,216z"/>
	<g>
		<rect x="148.43" y="86.49" class="st1" width="20.23" height="73.94"/>
		<circle class="st1" cx="158.55" cy="67.19" r="11.63"/>
		<g>
			<path class="st1" d="M104.62,63.01H78.56l0,0c0,4.38-0.76,8.73-2.25,12.85l-30.49,84.57h21.35l7.67-23.3l34.21-0.25l7.82,23.55
				h22.57L104.62,63.01z M80.45,118.06l11.12-37.82l11.67,37.82H80.45z"/>
		</g>
	</g>
</g>
</svg>
