<svg width="50" height="50" viewBox="0 0 50 50" fill="none" xmlns="http://www.w3.org/2000/svg">
<path d="M18.75 24.9342V10.4165C18.75 8.7589 19.4085 7.16919 20.5806 5.99709C21.7527 4.82498 23.3424 4.1665 25 4.1665C26.6576 4.1665 28.2473 4.82498 29.4194 5.99709C30.5915 7.16919 31.25 8.7589 31.25 10.4165V12.5061M31.25 25.003V39.5832C31.25 41.2408 30.5915 42.8305 29.4194 44.0026C28.2473 45.1747 26.6576 45.8332 25 45.8332C23.3424 45.8332 21.7527 45.1747 20.5806 44.0026C19.4085 42.8305 18.75 41.2408 18.75 39.5832V37.4686" stroke="#B6DFE3" stroke-width="4" stroke-linecap="round"/>
<path d="M25.0001 31.25H10.4001C6.95842 31.25 4.16675 28.4521 4.16675 25C4.16675 21.5479 6.95842 18.75 10.4001 18.75H12.4886M25.0001 18.75H39.572C41.231 18.7486 42.8227 19.4063 43.997 20.5784C45.1712 21.7504 45.8318 23.3409 45.8334 25C45.8334 28.4521 43.0303 31.25 39.572 31.25H37.5688" stroke="#B6DFE3" stroke-width="4" stroke-linecap="round"/>
</svg>
