<svg width="44" height="44" viewBox="0 0 44 44" fill="none" xmlns="http://www.w3.org/2000/svg">
<path d="M41.25 8.24985C41.2457 6.82362 40.6864 5.45505 39.6907 4.43399C38.6949 3.41292 37.3408 2.81954 35.9151 2.77951C34.4894 2.73947 33.1041 3.25593 32.0526 4.21951C31.0011 5.18308 30.3659 6.5181 30.2816 7.94185L13.1807 11.3615C12.7809 10.5305 12.178 9.81363 11.4279 9.27725C10.6777 8.74088 9.80441 8.40226 8.88874 8.29269C7.97306 8.18313 7.04455 8.30616 6.189 8.6504C5.33346 8.99465 4.57849 9.549 3.99389 10.2622C3.40928 10.9755 3.0139 11.8245 2.84428 12.731C2.67466 13.6375 2.73628 14.5721 3.02345 15.4484C3.31061 16.3248 3.81405 17.1146 4.48724 17.7449C5.16043 18.3752 5.98164 18.8257 6.87498 19.0546V30.4451C5.93668 30.6855 5.07872 31.17 4.38821 31.8493C3.6977 32.5285 3.19923 33.3784 2.94342 34.3126C2.68761 35.2469 2.68357 36.2322 2.9317 37.1684C3.17984 38.1047 3.67131 38.9587 4.35623 39.6436C5.04114 40.3285 5.8951 40.82 6.83139 41.0681C7.76768 41.3163 8.75296 41.3122 9.68718 41.0564C10.6214 40.8006 11.4713 40.3021 12.1506 39.6116C12.8298 38.9211 13.3143 38.0631 13.5547 37.1248H24.9452C25.1738 38.0188 25.6241 38.8406 26.2544 39.5144C26.8848 40.1882 27.6749 40.6922 28.5516 40.9797C29.4283 41.2673 30.3634 41.3291 31.2704 41.1596C32.1774 40.99 33.0269 40.5944 33.7405 40.0095C34.4541 39.4246 35.0087 38.6692 35.353 37.8132C35.6974 36.9571 35.8203 36.0281 35.7104 35.112C35.6005 34.1959 35.2614 33.3222 34.7245 32.5719C34.1875 31.8215 33.47 31.2187 32.6384 30.8191L36.058 13.7182C37.4578 13.6414 38.7752 13.0323 39.7405 12.0156C40.7057 10.999 41.2458 9.65173 41.25 8.24985ZM35.75 5.49985C36.2939 5.49985 36.8256 5.66113 37.2778 5.96331C37.73 6.26548 38.0825 6.69497 38.2906 7.19747C38.4988 7.69997 38.5532 8.2529 38.4471 8.78635C38.341 9.31979 38.0791 9.8098 37.6945 10.1944C37.3099 10.579 36.8199 10.8409 36.2865 10.947C35.753 11.0531 35.2001 10.9987 34.6976 10.7905C34.1951 10.5824 33.7656 10.2299 33.4634 9.77767C33.1613 9.32543 33 8.79375 33 8.24985C33 7.5205 33.2897 6.82103 33.8054 6.3053C34.3212 5.78958 35.0206 5.49985 35.75 5.49985ZM5.49998 13.7498C5.49998 13.2059 5.66127 12.6743 5.96344 12.222C6.26561 11.7698 6.6951 11.4173 7.1976 11.2092C7.7001 11.001 8.25303 10.9466 8.78648 11.0527C9.31993 11.1588 9.80993 11.4207 10.1945 11.8053C10.5791 12.1899 10.841 12.6799 10.9471 13.2134C11.0532 13.7468 10.9988 14.2997 10.7906 14.8022C10.5825 15.3047 10.23 15.7342 9.7778 16.0364C9.32556 16.3386 8.79388 16.4998 8.24998 16.4998C7.52063 16.4998 6.82116 16.2101 6.30544 15.6944C5.78971 15.1787 5.49998 14.4792 5.49998 13.7498ZM8.24998 38.4998C7.70608 38.4998 7.1744 38.3386 6.72216 38.0364C6.26993 37.7342 5.91745 37.3047 5.70931 36.8022C5.50117 36.2997 5.44671 35.7468 5.55282 35.2133C5.65893 34.6799 5.92084 34.1899 6.30544 33.8053C6.69003 33.4207 7.18003 33.1588 7.71348 33.0527C8.24693 32.9466 8.79986 33.001 9.30236 33.2092C9.80486 33.4173 10.2343 33.7698 10.5365 34.222C10.8387 34.6743 11 35.2059 11 35.7498C11 36.4792 10.7102 37.1787 10.1945 37.6944C9.6788 38.2101 8.97933 38.4998 8.24998 38.4998ZM24.9452 34.3748H13.5547C13.3076 33.4299 12.8134 32.5678 12.1227 31.8771C11.4321 31.1865 10.5699 30.6922 9.62498 30.4451V19.0546C10.7481 18.7618 11.7494 18.1203 12.485 17.2225C13.2205 16.3246 13.6523 15.2166 13.7184 14.0578L30.8192 10.6382C31.3577 11.7471 32.253 12.6429 33.3616 13.182L29.942 30.2815C28.7832 30.3475 27.6752 30.7793 26.7773 31.5149C25.8795 32.2504 25.238 33.2517 24.9452 34.3748ZM30.25 38.4998C29.7061 38.4998 29.1744 38.3386 28.7222 38.0364C28.2699 37.7342 27.9175 37.3047 27.7093 36.8022C27.5012 36.2997 27.4467 35.7468 27.5528 35.2133C27.6589 34.6799 27.9208 34.1899 28.3054 33.8053C28.69 33.4207 29.18 33.1588 29.7135 33.0527C30.2469 32.9466 30.7999 33.001 31.3024 33.2092C31.8049 33.4173 32.2343 33.7698 32.5365 34.222C32.8387 34.6743 33 35.2059 33 35.7498C33 36.4792 32.7102 37.1787 32.1945 37.6944C31.6788 38.2101 30.9793 38.4998 30.25 38.4998Z" fill="#B6DFE3"/>
</svg>
