<svg width="50" height="50" viewBox="0 0 50 50" fill="none" xmlns="http://www.w3.org/2000/svg">
<path d="M22.9167 6.24984C22.9167 5.09924 23.8495 4.1665 25.0001 4.1665C26.1507 4.1665 27.0834 5.09924 27.0834 6.24984V16.6665C27.0834 17.8171 26.1507 18.7498 25.0001 18.7498C23.8495 18.7498 22.9167 17.8171 22.9167 16.6665V6.24984ZM22.9167 33.3332C22.9167 32.1826 23.8495 31.2498 25.0001 31.2498C26.1507 31.2498 27.0834 32.1826 27.0834 33.3332V43.7498C27.0834 44.9004 26.1507 45.8332 25.0001 45.8332C23.8495 45.8332 22.9167 44.9004 22.9167 43.7498V33.3332ZM31.2501 24.9998C31.2501 23.8492 32.1828 22.9165 33.3334 22.9165H43.7501C44.9007 22.9165 45.8334 23.8492 45.8334 24.9998C45.8334 26.1504 44.9007 27.0832 43.7501 27.0832H33.3334C32.1828 27.0832 31.2501 26.1504 31.2501 24.9998ZM4.16675 24.9998C4.16675 23.8492 5.09949 22.9165 6.25008 22.9165H16.6668C17.8173 22.9165 18.7501 23.8492 18.7501 24.9998C18.7501 26.1504 17.8173 27.0832 16.6667 27.0832H6.25008C5.09949 27.0832 4.16675 26.1504 4.16675 24.9998Z" fill="#B6DFE3"/>
</svg>
