<svg width="51" height="51" viewBox="0 0 51 51" fill="none" xmlns="http://www.w3.org/2000/svg">
<path d="M4.25 25.5C4.25 37.2364 13.7636 46.75 25.5 46.75C37.2364 46.75 46.75 37.2364 46.75 25.5C46.75 13.7636 37.2364 4.25 25.5 4.25C13.7636 4.25 4.25 13.7636 4.25 25.5ZM42.5 25.5C42.5 30.0087 40.7089 34.3327 37.5208 37.5208C34.3327 40.7089 30.0087 42.5 25.5 42.5C20.9913 42.5 16.6673 40.7089 13.4792 37.5208C10.2911 34.3327 8.5 30.0087 8.5 25.5C8.5 20.9913 10.2911 16.6673 13.4792 13.4792C16.6673 10.2911 20.9913 8.5 25.5 8.5C30.0087 8.5 34.3327 10.2911 37.5208 13.4792C40.7089 16.6673 42.5 20.9913 42.5 25.5ZM38.25 25.5C38.25 28.8815 36.9067 32.1245 34.5156 34.5156C32.1245 36.9067 28.8815 38.25 25.5 38.25V12.75C28.8815 12.75 32.1245 14.0933 34.5156 16.4844C36.9067 18.8755 38.25 22.1185 38.25 25.5Z" fill="#B6DFE3"/>
</svg>
