<svg width="68" height="52" viewBox="0 0 68 52" fill="none" xmlns="http://www.w3.org/2000/svg">
<path d="M20.0507 0.299631C22.7257 0.299631 25.2527 0.912488 27.6331 2.13696C30.0122 3.36268 32.0804 5.11953 33.8363 7.40753C35.5909 5.11953 37.6591 3.36268 40.0382 2.13696C42.3729 0.922995 44.9773 0.291903 47.6206 0.299631C51.968 0.299631 55.6075 1.73582 58.5391 4.60696C61.4719 7.47811 62.937 11.0426 62.937 15.3004C62.9376 15.5798 62.925 15.8591 62.8991 16.1373C62.8738 16.406 62.8498 16.6858 62.8296 16.9743H58.2357C58.2862 16.6858 58.3178 16.406 58.3267 16.1373C58.3368 15.8674 58.3419 15.5889 58.3419 15.3004C58.3419 12.3005 57.3204 9.80077 55.2788 7.80001C53.236 5.80049 50.6836 4.80011 47.6206 4.80011C45.201 4.80011 42.966 5.47239 40.913 6.81573C38.8613 8.1603 37.2369 10.0311 36.0384 12.4268H31.6329C30.4142 10.0125 28.7847 8.13677 26.7431 6.80211C24.7003 5.46744 22.4703 4.80011 20.0507 4.80011C17.0067 4.80011 14.4594 5.80049 12.4077 7.80001C10.356 9.80077 9.3282 12.3005 9.3282 15.3004C9.3282 15.5889 9.33326 15.8674 9.34337 16.1373C9.35222 16.406 9.38256 16.6858 9.43439 16.9743H4.84047C4.8217 16.695 4.79937 16.416 4.77347 16.1373C4.74763 15.8591 4.73498 15.5798 4.73554 15.3004C4.73554 11.0426 6.20069 7.47811 9.13226 4.60696C12.0651 1.73334 15.7033 0.299631 20.0507 0.299631ZM15.3152 34.6295H21.7422C23.5317 36.3458 25.3382 38.045 27.1616 39.7268C29.3651 41.758 31.5901 43.7667 33.8363 45.7526C36.082 43.7667 38.3066 41.758 40.5098 39.7268C42.3331 38.0449 44.1396 36.3458 45.9292 34.6295H52.4041C50.2822 36.831 48.0965 38.9725 45.8495 41.0515C43.0055 43.6886 40.1276 46.2905 37.2166 48.8565L33.8363 51.8341L30.4547 48.8565C27.5473 46.2947 24.6769 43.6928 21.8446 41.0515C19.3719 38.7363 17.1963 36.5944 15.3152 34.6295ZM30.925 37.0525C31.4129 37.0525 31.8301 36.9138 32.1765 36.634C32.5241 36.3554 32.7807 35.9927 32.9451 35.547L37.582 21.8784L40.9699 26.8456C41.224 27.2084 41.5514 27.4993 41.9534 27.721C42.3541 27.9413 42.7903 28.0528 43.2618 28.0528H66.7662V23.5523H44.2858L38.8246 15.5852C38.605 15.257 38.2958 14.9958 37.9321 14.8312C37.5605 14.6634 37.1556 14.578 36.7464 14.5811C36.2584 14.5811 35.8362 14.7197 35.4797 14.9983C35.1214 15.2778 34.8582 15.6573 34.725 16.0866L30.0894 29.7366L26.6888 24.7582C26.434 24.3971 26.0979 24.098 25.7065 23.8841C25.3075 23.6634 24.8564 23.549 24.3981 23.5523H0.905167V28.0528H23.3261L28.8164 36.0484C29.0439 36.4025 29.3473 36.6588 29.724 36.816C30.1007 36.9745 30.5015 37.0525 30.925 37.0525Z" fill="#70D0D9"/>
</svg>
