<svg width="61" height="63" viewBox="0 0 61 63" fill="none" xmlns="http://www.w3.org/2000/svg">
<path d="M59.5521 7.13703C59.5421 4.37503 57.7611 1.93103 55.1621 0.970029C54.6581 0.784029 54.1281 0.665029 53.6081 0.517029H30.8331C30.783 0.550836 30.7289 0.578374 30.6721 0.599029C26.9281 1.38403 24.8761 3.91403 24.8761 7.73503V16.335C24.8761 16.545 24.8571 16.753 24.8461 16.981C24.4331 16.941 24.0961 16.876 23.7561 16.876C18.1031 16.876 12.4501 16.85 6.7991 16.876C5.54416 16.8832 4.33093 17.3274 3.36804 18.1322C2.40515 18.9371 1.75278 20.0523 1.5231 21.286C1.4151 21.982 1.3721 22.686 1.3931 23.39V38.943C1.3891 39.285 1.4171 39.628 1.4741 39.966C2.0021 42.736 4.2241 44.522 7.1901 44.542C9.5931 44.558 11.9951 44.542 14.3981 44.542H15.1691V47.69C15.1691 48.127 15.2691 48.499 15.6921 48.693C16.1141 48.887 16.4651 48.751 16.8081 48.483C17.7611 47.737 18.7221 46.999 19.6821 46.261C20.1521 45.899 20.6261 45.541 21.2151 45.093V45.889C21.2151 48.976 21.1971 52.065 21.2151 55.153C21.2351 57.729 23.0161 59.484 25.5691 59.495H30.9901V61.382C30.9901 61.842 31.1131 62.213 31.5581 62.425C32.0031 62.637 32.3331 62.448 32.6681 62.188C33.4961 61.54 34.3601 60.94 35.1501 60.246C35.4439 59.9782 35.7878 59.7712 36.1619 59.6368C36.536 59.5024 36.9331 59.4434 37.3301 59.463C38.2376 59.4775 39.1227 59.1802 39.8374 58.6207C40.5521 58.0612 41.0533 57.2735 41.2571 56.389C41.3821 55.747 41.4371 55.093 41.4191 54.439C41.4311 54.332 41.4371 54.224 41.4371 54.116V43.891C41.4261 41.051 39.7121 39.334 36.8701 39.326H29.1611V34.783C33.3591 35.532 37.5851 34.901 41.8331 35.199V39.318C41.8331 39.774 41.9131 40.156 42.3631 40.378C42.8121 40.598 43.1711 40.4 43.5231 40.128C45.0251 38.971 46.6091 37.905 48.0211 36.646C49.3581 35.456 50.7811 34.849 52.5511 35.132C52.6921 35.147 52.8341 35.147 52.9751 35.132C56.6431 34.949 59.5281 32.107 59.5471 28.518C59.5891 21.391 59.5911 14.264 59.5521 7.13703ZM21.7121 41.66C21.3071 42.692 20.5891 43.278 19.8021 43.878C19.0131 44.478 18.2691 45.064 17.5011 45.658C17.3661 45.761 17.2161 45.848 16.9831 46.001V44.158C16.9831 42.962 16.7611 42.741 15.5711 42.741C12.7651 42.741 9.9581 42.752 7.1581 42.741C4.7311 42.725 3.2051 41.178 3.1981 38.745V34.082V24.15C3.2101 23.696 3.2251 23.24 3.1981 22.79C3.0351 20.363 4.9641 18.643 7.3071 18.674C12.5951 18.74 17.8841 18.694 23.1731 18.694C25.7931 18.694 27.3231 20.217 27.3231 22.819V39.37C26.5381 39.37 25.8131 39.326 25.0971 39.378C23.5341 39.486 22.2721 40.233 21.7121 41.66ZM36.9461 41.164C38.6761 41.164 39.6061 42.097 39.6161 43.817C39.6251 45.047 39.6161 52.16 39.6161 53.941C39.6021 54.495 39.6301 55.053 39.5751 55.601C39.5154 56.1585 39.2568 56.6759 38.8467 57.0582C38.4366 57.4406 37.9024 57.6624 37.3421 57.683C37.0399 57.7073 36.7363 57.7073 36.4341 57.683C35.7871 57.609 35.2701 57.833 34.7791 58.25C34.1761 58.763 33.5261 59.22 32.7981 59.774V58.964C32.7981 57.945 32.5311 57.687 31.5031 57.685H25.6891C23.9771 57.685 23.0291 56.743 23.0261 55.027C23.0191 51.293 23.0191 47.559 23.0261 43.825C23.0261 42.092 23.9511 41.162 25.6791 41.159C29.4351 41.152 33.1901 41.154 36.9461 41.164ZM57.7461 28.098C57.7461 31.191 55.6191 33.304 52.5361 33.318C51.7491 33.318 50.9611 33.338 50.1751 33.318C49.6913 33.2919 49.2153 33.449 48.8421 33.758C47.3191 34.954 45.7681 36.121 44.2341 37.297C44.0721 37.421 43.9011 37.535 43.6481 37.714V34.618C43.6481 33.597 43.3781 33.323 42.3541 33.323C38.8631 33.323 35.3701 33.348 31.8801 33.303C31.1331 33.294 30.3871 33.039 29.6431 32.88C29.2201 32.788 29.1151 32.505 29.1191 32.071C29.1361 28.924 29.1191 25.776 29.1291 22.628C29.1291 20.78 28.4461 19.263 27.0271 18.068C26.84 17.9024 26.724 17.671 26.7031 17.422C26.6851 13.992 26.6641 10.56 26.7031 7.13003C26.7255 5.99953 27.1419 4.91233 27.8804 4.05608C28.6189 3.19983 29.6332 2.62826 30.7481 2.44003C31.1652 2.3687 31.5879 2.33523 32.0111 2.34003C35.9071 2.33103 45.7741 2.34003 50.1421 2.34003H50.5151C51.2221 2.32803 51.9271 2.34003 52.6341 2.34003C55.5821 2.35903 57.7141 4.46403 57.7511 7.40203C57.7661 8.49003 57.7511 9.58103 57.7511 10.67L57.7461 28.099V28.098Z" fill="#70D0D9" stroke="#70D0D9" stroke-width="0.7"/>
<path d="M26.1051 48.212C26.1051 45.587 29.2151 44.329 31.0881 45.673C31.151 45.7078 31.2211 45.7275 31.293 45.7306C31.3648 45.7338 31.4364 45.7202 31.5021 45.691C32.8711 44.891 34.1721 45.023 35.3741 46.001C36.4641 46.887 36.8151 48.474 36.3301 49.991C36.0154 50.9595 35.399 51.802 34.5711 52.395C33.6935 53.0338 32.7789 53.6201 31.8321 54.151C31.6842 54.2252 31.5219 54.2661 31.3566 54.2707C31.1912 54.2754 31.0269 54.2437 30.8751 54.178C29.7751 53.512 28.6681 52.838 27.6731 52.033C26.6281 51.187 26.0931 50.022 26.1051 48.212ZM34.7141 48.669C34.7141 47.875 34.3191 47.279 33.6651 47.071C33.0121 46.864 32.6141 47.044 32.0951 47.741C31.6281 48.371 30.9631 48.336 30.4781 47.626C30.1461 47.141 29.7261 46.908 29.1431 47.005C28.87 47.042 28.6149 47.1621 28.4123 47.349C28.2098 47.536 28.0697 47.7807 28.0111 48.05C27.7611 48.941 27.9511 49.79 28.6091 50.393C29.3751 51.091 30.2691 51.653 31.1221 52.255C31.189 52.2872 31.2626 52.303 31.3368 52.3013C31.411 52.2995 31.4838 52.2802 31.5491 52.245C32.3451 51.698 33.1571 51.171 33.8951 50.553C34.166 50.3222 34.3806 50.0326 34.5226 49.7063C34.6645 49.3799 34.73 49.0245 34.7141 48.669ZM38.4441 15.277C39.2981 14.295 40.2241 13.284 41.0871 12.221C41.7209 11.4247 42.0869 10.4486 42.1331 9.43197C42.1361 9.08997 42.1861 8.74897 42.2811 8.42097C42.3912 8.08105 42.6011 7.78213 42.8834 7.56312C43.1657 7.3441 43.5075 7.21513 43.8641 7.19297C44.2197 7.14084 44.5828 7.20157 44.9021 7.36661C45.2214 7.53165 45.4809 7.79269 45.6441 8.11297C46.6971 9.99497 46.8621 11.966 46.1611 14.006C46.0771 14.25 45.9851 14.491 45.8681 14.815H50.0231C51.7541 14.815 52.6681 15.733 52.6701 17.466V25.759C52.6701 27.131 51.7781 28.169 50.4181 28.186C47.3441 28.233 44.2831 28.238 41.2181 28.144C40.2831 28.117 39.3601 27.711 38.4521 27.482C38.0321 27.579 37.5731 27.766 37.1111 27.778C35.7191 27.818 34.3261 27.796 32.9331 27.791C32.0861 27.791 31.7881 27.51 31.7861 26.683V16.09C31.7861 15.317 32.0811 15.013 32.8381 15.007C34.3521 14.993 35.8671 14.989 37.3791 15.007C37.6871 15.017 38.0051 15.164 38.4441 15.277ZM44.0401 9.00997C44.0001 9.14597 43.9711 9.28397 43.9511 9.42397C43.8671 11.265 43.0951 12.794 41.8721 14.137C40.8249 15.2855 39.7964 16.451 38.7871 17.633C38.6071 17.839 38.5001 18.097 38.4801 18.369C38.4563 20.4682 38.4563 22.5677 38.4801 24.667C38.5061 24.932 38.6331 25.177 38.8341 25.352C39.6617 26.0481 40.7149 26.4183 41.7961 26.393C44.5421 26.4 47.2881 26.4 50.0331 26.393C50.7071 26.393 50.8411 26.248 50.8411 25.567V17.452C50.8411 16.727 50.7351 16.63 49.9791 16.627C48.2221 16.627 46.4651 16.627 44.7091 16.615C43.7251 16.615 43.3511 16.045 43.7101 15.145C43.9931 14.435 44.3231 13.737 44.5431 13.007C44.9491 11.665 44.7841 10.367 44.0401 9.00997ZM33.6131 25.93H36.5991V16.87H33.6131V25.93ZM12.6781 37.607C10.8391 37.607 8.90308 37.084 6.92108 36.056C6.52508 35.85 6.37608 35.514 6.47808 35.054C6.53908 34.774 6.69408 34.444 7.35308 34.391C7.91308 34.344 8.48508 34.289 9.02708 34.229L9.96408 34.139L10.1441 33.501L9.98208 33.367C8.72808 32.318 7.93708 31.149 7.55508 29.793C7.05008 27.96 7.15908 26.062 7.87908 24.151C8.06808 23.651 8.37408 23.363 8.72208 23.363C9.01208 23.363 9.32508 23.556 9.60508 23.905C10.8171 25.421 12.2791 26.3 14.0721 26.593L14.3501 26.638L14.6741 25.596C14.9275 24.7434 15.4486 23.995 16.1603 23.4615C16.8721 22.9281 17.7366 22.6379 18.6261 22.634C19.3289 22.6344 20.0198 22.8159 20.6321 23.161C20.9031 23.329 21.2131 23.422 21.5321 23.433C21.8581 23.425 22.1731 23.311 22.4301 23.109C22.4721 23.08 22.5141 23.048 22.5561 23.016C22.6526 22.9274 22.7658 22.8591 22.8891 22.815L23.0381 22.802C23.2001 22.788 23.3621 22.772 23.5141 22.772C23.7811 22.772 23.8761 22.82 23.9101 22.849C24.0266 22.9718 24.1157 23.1179 24.1715 23.2777C24.2274 23.4375 24.2487 23.6073 24.2341 23.776C24.0994 24.4414 23.8343 25.0735 23.4541 25.636C22.9431 26.381 22.8461 27.154 22.7951 27.821C22.5151 31.521 20.9321 34.276 18.0891 36.009C16.3591 37.072 14.5391 37.607 12.6791 37.607H12.6781ZM9.09608 26.753C8.82908 29.06 9.53208 30.797 11.2461 32.073C11.5531 32.291 11.8741 32.486 12.2081 32.658C12.4341 32.781 12.6481 32.898 12.8551 33.028C12.9857 33.102 13.0964 33.2067 13.1776 33.333C13.2587 33.4593 13.308 33.6034 13.3211 33.753C13.3235 33.9039 13.2894 34.0532 13.2216 34.1882C13.1539 34.3231 13.0546 34.4397 12.9321 34.528C12.7851 34.645 12.6201 34.75 12.4121 34.884C12.2981 34.957 12.1721 35.038 12.0291 35.134L11.2551 35.651L12.1831 35.725C12.4051 35.743 12.6281 35.751 12.8481 35.751C17.0971 35.751 20.5961 32.527 20.9891 28.249C21.0021 28.113 21.0191 27.974 21.0341 27.835C21.1141 27.131 21.1961 26.335 20.9071 25.713C20.7048 25.3164 20.3951 24.9847 20.0134 24.7557C19.6316 24.5267 19.1932 24.4097 18.7481 24.418C18.6641 24.418 18.5781 24.418 18.4941 24.431C17.4941 24.528 16.7891 25.049 16.4531 25.939C16.3351 26.315 16.2811 26.709 16.2911 27.102V27.148C16.2611 28.185 16.0001 28.469 15.0811 28.469H14.8951C13.3886 28.4206 11.9212 27.9771 10.6401 27.183C10.4201 27.046 10.2011 26.905 9.96508 26.753L9.15608 26.242L9.09608 26.753Z" fill="#70D0D9" stroke="#70D0D9" stroke-width="0.7"/>
</svg>
