<svg width="64" height="56" viewBox="0 0 64 56" fill="none" xmlns="http://www.w3.org/2000/svg">
<path d="M1.57061 13.963C1.82936 13.0669 2.14436 12.1972 2.85199 11.5349C3.79136 10.6595 4.92761 10.42 6.15274 10.42H57.0286C58.2537 10.42 59.39 10.6595 60.3294 11.5349C61.0381 12.1972 61.3554 13.0623 61.6107 13.9641V24.0979C61.424 24.5734 61.2912 25.0798 61.0426 25.5221C60.4317 26.6153 59.48 27.2707 58.2774 27.5434C51.4045 29.0991 44.5307 30.6509 37.6561 32.1989C37.1971 32.302 37.016 32.4624 37.0374 32.9735C37.0812 34.1422 37.0599 35.3156 37.0475 36.4878C37.0329 37.7184 36.5806 38.1675 35.3712 38.171H27.809C26.5985 38.171 26.1451 37.723 26.1327 36.4866C26.1159 35.2759 26.1159 34.065 26.1327 32.8543C26.1417 32.4498 25.9865 32.3055 25.6299 32.2241C20.1489 30.9927 14.6694 29.7544 9.19136 28.5093C7.76374 28.1873 6.33161 27.878 4.90849 27.5399C3.26936 27.1504 2.19049 26.1374 1.70899 24.4863C1.67074 24.3545 1.61899 24.2262 1.57399 24.0967L1.56949 13.963H1.57061ZM37.0441 29.544C37.3287 29.4936 37.5369 29.4638 37.7405 29.418L57.383 24.9378C58.5552 24.6696 58.8781 24.28 58.8792 23.0529V15.0068C58.8792 13.6628 58.4405 13.2147 57.1355 13.2147H6.01886C4.73074 13.2147 4.28524 13.6628 4.28186 14.9587C4.27624 17.6812 4.27624 20.4025 4.28186 23.1239C4.28186 24.272 4.62386 24.6845 5.72411 24.9343L21.7857 28.5895C23.2055 28.9126 24.6297 29.2289 26.1316 29.5658V28.735C26.1631 27.5399 26.6097 27.0931 27.782 27.0793H35.4624C36.539 27.0793 36.9935 27.5262 37.0464 28.6193C37.0621 28.9126 37.0441 29.2048 37.0441 29.544ZM28.889 35.3671H34.2586V29.8878H28.8957L28.889 35.3671Z" fill="#70D0D9" stroke="#70D0D9"/>
<path d="M31.6025 53.4289H7.33401C5.56213 53.4289 4.14463 52.7873 3.37626 51.1086C3.09713 50.4559 2.9546 49.7511 2.95776 49.0392C2.92738 43.2001 2.93751 37.3586 2.94313 31.5194C2.94313 30.2693 3.61476 29.6701 4.68238 29.9221C4.89506 29.96 5.09202 30.061 5.24854 30.2125C5.40505 30.3639 5.51415 30.5591 5.56213 30.7735C5.63188 31.0829 5.66563 31.3991 5.66113 31.7154C5.66676 37.4159 5.66676 43.1164 5.66113 48.8192C5.66113 50.2332 6.08638 50.664 7.47913 50.664H55.664C57.0928 50.664 57.5056 50.2401 57.5056 48.7826V31.5584C57.5056 30.4974 57.8679 30.0035 58.6981 29.8855C59.5025 29.7709 60.1134 30.2544 60.2045 31.0794C60.2225 31.2777 60.2315 31.477 60.2293 31.6764C60.2293 37.417 60.2203 43.16 60.2293 48.9006C60.2293 50.7488 59.606 52.2315 57.8971 53.0061C57.2116 53.2892 56.4767 53.4276 55.7371 53.4129C47.7035 53.4404 39.653 53.4289 31.6025 53.4289ZM31.6205 0.72402H38.0083C40.8804 0.72402 42.4936 2.37975 42.497 5.31537C42.497 5.63277 42.5083 5.95131 42.497 6.26642C42.4475 7.13496 41.9109 7.6586 41.1178 7.64256C40.3246 7.62652 39.8398 7.11548 39.7981 6.27214C39.7723 5.75652 39.8094 5.23631 39.7486 4.72642C39.6586 3.98048 39.3099 3.64933 38.5899 3.53246C38.3776 3.50147 38.1631 3.48844 37.9486 3.4935H25.2879C23.822 3.4935 23.4046 3.92089 23.3979 5.39902C23.4125 5.79777 23.3979 6.19652 23.3529 6.59298C23.2573 7.2186 22.76 7.6185 22.1154 7.65402C21.4719 7.69069 20.8666 7.34121 20.7823 6.73506C20.5685 5.22485 20.5258 3.71121 21.4876 2.39464C22.3303 1.24194 23.4991 0.740061 24.8908 0.738915C27.134 0.725991 29.3772 0.721026 31.6205 0.72402Z" fill="#70D0D9" stroke="#70D0D9"/>
</svg>
