<svg width="58" height="57" viewBox="0 0 58 57" fill="none" xmlns="http://www.w3.org/2000/svg">
<path d="M28.5964 56.2141C23.4171 56.2141 18.7168 54.9316 14.4955 52.3666C10.2753 49.8038 6.96493 46.3673 4.56435 42.0594V49.9824H0.578735V35.3729H15.1872V39.3574H7.64345C9.56391 43.2268 12.4018 46.3399 16.1584 48.6955C19.9149 51.0523 24.0616 52.2295 28.5964 52.2295C31.8487 52.2295 34.8993 51.6289 37.7482 50.4275C40.596 49.225 43.0898 47.584 45.2284 45.5057C47.367 43.4263 49.0846 40.9709 50.3803 38.1396C51.6759 35.3082 52.3753 32.2576 52.4772 28.9889H56.4607C56.3752 32.7619 55.587 36.3002 54.093 39.603C52.6 42.9068 50.5973 45.7918 48.086 48.2615C45.5759 50.73 42.6469 52.6724 39.3004 54.0897C35.9549 55.506 32.3869 56.2141 28.5964 56.2141ZM26.7165 46.4068V43.0569C24.773 42.6031 23.1562 41.7964 21.8671 40.6344C20.5781 39.4725 19.5893 37.9072 18.902 35.9352L22.2628 34.5661C22.8964 36.2969 23.8029 37.6112 24.9835 38.5101C26.131 39.3981 27.5445 39.8731 28.9954 39.8584C30.507 39.8584 31.8641 39.4813 33.0665 38.7271C34.2679 37.973 34.8697 36.7628 34.8697 35.0978C34.8697 33.7122 34.3523 32.6073 33.3198 31.7852C32.2861 30.9631 30.3568 30.0335 27.5343 28.9988C24.8037 28.0177 22.8328 26.9194 21.6238 25.7037C20.4147 24.4881 19.8108 22.8833 19.8108 20.8872C19.8108 19.1739 20.429 17.6064 21.6654 16.1825C22.9019 14.7586 24.6294 13.8521 26.8503 13.4597V10.2414H30.4763V13.4597C31.9671 13.5759 33.3417 14.1371 34.5968 15.1434C35.8508 16.1496 36.7562 17.3587 37.3109 18.7716L34.0323 20.0903C33.5902 19.1244 32.918 18.2817 32.0745 17.636C31.2272 16.9838 30.1124 16.6583 28.7291 16.6583C27.0783 16.6583 25.7826 17.0496 24.8443 17.8322C23.9071 18.616 23.4379 19.6343 23.4379 20.8872C23.4379 22.1401 23.8961 23.1157 24.8114 23.8139C25.7278 24.5122 27.5814 25.3376 30.3744 26.2913C33.562 27.4422 35.7039 28.7335 36.8 30.1629C37.8962 31.5934 38.4443 33.2387 38.4443 35.0978C38.4443 36.3649 38.2108 37.4764 37.7427 38.4334C37.3017 39.3547 36.6768 40.1761 35.9067 40.8471C35.1401 41.5056 34.2667 42.0283 33.3241 42.3927C32.3595 42.7697 31.3653 43.0361 30.3437 43.1896V46.4068H26.7165ZM0.733293 27.6604C0.851678 23.8019 1.66612 20.2175 3.17662 16.906C4.68712 13.5934 6.70623 10.7127 9.23506 8.26062C11.7628 5.80852 14.6873 3.89135 18.0076 2.50801C21.3289 1.12685 24.8585 0.434082 28.5964 0.434082C33.7253 0.434082 38.4256 1.72097 42.6974 4.29364C46.9702 6.86631 50.2805 10.3334 52.6296 14.6918V6.66681H56.6141V21.2753H42.0046V17.2918H49.5505C47.6805 13.4904 44.8634 10.3948 41.0992 8.00522C37.3339 5.61451 33.1663 4.4186 28.5964 4.4186C25.4132 4.4186 22.401 5.01052 19.5608 6.19656C16.7207 7.38151 14.2226 9.00491 12.0675 11.0668C9.91139 13.1286 8.17289 15.5753 6.85202 18.4066C5.53006 21.238 4.81866 24.3226 4.71672 27.6604H0.733293Z" fill="#70D0D9"/>
</svg>
