<svg width="54" height="57" viewBox="0 0 54 57" fill="none" xmlns="http://www.w3.org/2000/svg">
<path d="M16.2916 56.4953C14.9087 56.4953 13.7348 56.0061 12.7663 55.0264C11.7979 54.0467 11.3142 52.858 11.3142 51.4603C11.3142 50.0614 11.7979 48.8716 12.7663 47.8931C13.7348 46.9134 14.9087 46.4241 16.2916 46.4241C17.6745 46.4241 18.8496 46.9146 19.8169 47.8931C20.7853 48.8728 21.269 50.0614 21.269 51.4603C21.269 52.858 20.7853 54.0467 19.8169 55.0264C18.8496 56.0061 17.6745 56.4953 16.2916 56.4953ZM43.8621 56.4953C42.4804 56.4953 41.3053 56.0061 40.3369 55.0264C39.3684 54.0467 38.8847 52.858 38.8847 51.4603C38.8847 50.0614 39.3684 48.8716 40.3369 47.8931C41.3053 46.9134 42.4804 46.4241 43.8633 46.4241C45.245 46.4241 46.4201 46.9146 47.3874 47.8931C48.3559 48.8728 48.8395 50.0614 48.8395 51.4603C48.8395 52.858 48.3559 54.0467 47.3874 55.0264C46.4201 56.0061 45.245 56.4953 43.8633 56.4953H43.8621ZM13.0539 11.0081L20.2641 26.2818H39.6572C39.8215 26.2818 39.9671 26.2402 40.095 26.1571C40.2283 26.068 40.3402 25.95 40.4226 25.8115L48.053 11.7836C48.1633 11.5805 48.1727 11.4 48.0812 11.2433C47.9896 11.0865 47.8346 11.0081 47.6163 11.0081H13.0539ZM11.0078 6.69158H50.5018C51.6663 6.69158 52.5444 7.1927 53.1407 8.19495C53.7383 9.19601 53.7664 10.2185 53.2264 11.2635L44.1122 27.9633C43.6745 28.7632 43.0359 29.4321 42.2609 29.9025C41.4987 30.3644 40.6255 30.6052 39.737 30.5983H18.9822L15.6882 36.6843C15.5426 36.9063 15.5379 37.1462 15.6753 37.4039C15.8115 37.6628 16.0157 37.7922 16.2904 37.7922H48.8383V42.1076H16.2916C14.3946 42.1076 12.9694 41.2811 12.0162 39.6257C11.063 37.9715 11.0301 36.3197 11.9152 34.6703L15.9746 27.2888L5.62307 5.25351H0.208984V0.936951H8.30546L11.0078 6.69158Z" fill="#70D0D9"/>
</svg>
