<svg width="70" height="71" viewBox="0 0 70 71" fill="none" xmlns="http://www.w3.org/2000/svg">
<mask id="mask0_3085_967" style="mask-type:alpha" maskUnits="userSpaceOnUse" x="-1" y="0" width="71" height="71">
<path d="M-0.00012207 0.128815H69.9842V70.1132H-0.00012207V0.128815Z" fill="#D9D9D9"/>
</mask>
<g mask="url(#mask0_3085_967)">
<path d="M41.0499 37.2522H54.2836V32.8779H41.0499V37.2522ZM41.0499 28.8405H54.2836V24.4662H41.0499V28.8405ZM15.7029 45.7758H37.0113V44.7325C37.0113 42.789 36.0498 41.2619 34.1256 40.1512C32.2026 39.0404 29.6129 38.4857 26.3577 38.4857C23.1013 38.4857 20.5116 39.0404 18.5874 40.1512C16.6644 41.2619 15.7029 42.789 15.7029 44.7325V45.7758ZM26.3577 34.6721C27.7741 34.6721 28.9787 34.1763 29.9715 33.1835C30.9643 32.1907 31.4601 30.9861 31.4601 29.5698C31.4601 28.1522 30.9643 26.9476 29.9703 25.9548C28.9787 24.9632 27.7741 24.4662 26.3577 24.4662C24.9401 24.4662 23.7355 24.9632 22.7427 25.9548C21.7499 26.9476 21.2541 28.1522 21.2541 29.5698C21.2541 30.9861 21.7499 32.1907 22.7427 33.1835C23.7355 34.1763 24.9401 34.6721 26.3577 34.6721ZM12.562 56.9914C11.0891 56.9914 9.84238 56.4812 8.82191 55.4607C7.80144 54.439 7.2912 53.1923 7.2912 51.7193V18.5226C7.2912 17.0485 7.80144 15.803 8.82191 14.7813C9.84238 13.7608 11.0891 13.2506 12.562 13.2506H57.4244C58.8974 13.2506 60.1441 13.7608 61.1646 14.7813C62.185 15.8018 62.6953 17.0485 62.6953 18.5226V51.7193C62.6953 53.1923 62.185 54.439 61.1646 55.4607C60.1441 56.4812 58.8974 56.9914 57.4244 56.9914H12.562ZM12.562 52.6171H57.4244C57.5408 52.6147 57.6555 52.5886 57.7614 52.5404C57.8673 52.4922 57.9623 52.4229 58.0406 52.3367C58.1269 52.2583 58.1963 52.1631 58.2445 52.057C58.2927 51.9508 58.3187 51.8359 58.3209 51.7193V18.5226C58.3187 18.4061 58.2927 18.2912 58.2445 18.185C58.1963 18.0788 58.1269 17.9837 58.0406 17.9053C57.9622 17.819 57.867 17.7496 57.7608 17.7013C57.6547 17.6531 57.5398 17.6271 57.4232 17.6249H12.5632C12.4469 17.6273 12.3322 17.6534 12.2263 17.7016C12.1203 17.7498 12.0253 17.8191 11.9471 17.9053C11.8606 17.9836 11.7909 18.0787 11.7425 18.1849C11.6941 18.291 11.6679 18.406 11.6655 18.5226V51.7193C11.6655 51.9444 11.7594 52.1502 11.9471 52.3367C12.0253 52.4229 12.1203 52.4922 12.2263 52.5404C12.3322 52.5886 12.4457 52.6147 12.562 52.6171Z" fill="#70D0D9"/>
</g>
</svg>
