<svg width="42" height="42" viewBox="0 0 42 42" fill="none" xmlns="http://www.w3.org/2000/svg">
<path d="M14.547 19.9878L19.9866 14.5335L15.0971 9.62708L12.3368 12.3852L10.6506 10.6989L13.3967 7.9408L8.74772 3.2916L3.29379 8.74583L14.547 19.9878ZM33.2046 38.6608L38.6586 33.2065L34.012 28.5573L31.2541 31.3011L29.5703 29.6148L32.3115 26.8568L27.453 22.0122L22.011 27.4522L33.2046 38.6608ZM29.8466 8.06465L33.962 12.178L38.1203 8.01939L33.993 3.8918L29.8466 8.06465ZM9.89566 39.6182H2.38163V32.1062L12.8465 21.6407L0 8.74821L8.74772 0L21.7014 12.9068L32.3401 2.25315C32.6021 1.98957 32.8784 1.79982 33.1689 1.68391C33.4595 1.56799 33.7691 1.51004 34.0978 1.51004C34.4264 1.51004 34.736 1.56799 35.0266 1.68391C35.3172 1.79982 35.5942 1.98957 35.8578 2.25315L39.7446 6.29262C40.0082 6.55461 40.1908 6.83089 40.2924 7.12147C40.394 7.41205 40.444 7.72167 40.4424 8.05036C40.4408 8.37904 40.39 8.67914 40.29 8.95066C40.19 9.22219 40.009 9.48894 39.747 9.75094L29.1964 20.3593L42 33.2518L33.2475 42L20.3558 29.1528L9.89566 39.6182Z" fill="#B6DFE3"/>
</svg>
