<svg width="51" height="51" viewBox="0 0 51 51" fill="none" xmlns="http://www.w3.org/2000/svg">
<path d="M9.5625 28.6875C9.5625 27.8073 10.276 27.0938 11.1562 27.0938H20.7188C21.599 27.0938 22.3125 27.8073 22.3125 28.6875C22.3125 29.5677 21.599 30.2812 20.7188 30.2812H11.1562C10.276 30.2812 9.5625 29.5677 9.5625 28.6875Z" fill="#B6DFE3"/>
<path d="M4.78125 30.2812C5.66145 30.2812 6.375 29.5677 6.375 28.6875C6.375 27.8073 5.66145 27.0938 4.78125 27.0938C3.90105 27.0938 3.1875 27.8073 3.1875 28.6875C3.1875 29.5677 3.90105 30.2812 4.78125 30.2812Z" fill="#B6DFE3"/>
<path d="M20.7188 23.9062C21.599 23.9062 22.3125 23.1927 22.3125 22.3125C22.3125 21.4323 21.599 20.7188 20.7188 20.7188C19.8385 20.7188 19.125 21.4323 19.125 22.3125C19.125 23.1927 19.8385 23.9062 20.7188 23.9062Z" fill="#B6DFE3"/>
<path d="M3.1875 22.3125C3.1875 21.4323 3.90105 20.7188 4.78125 20.7188H14.3438C15.224 20.7188 15.9375 21.4323 15.9375 22.3125C15.9375 23.1927 15.224 23.9062 14.3438 23.9062H4.78125C3.90105 23.9062 3.1875 23.1927 3.1875 22.3125ZM9.5625 15.9375C9.5625 15.0573 10.276 14.3438 11.1562 14.3438H20.7188C21.599 14.3438 22.3125 15.0573 22.3125 15.9375C22.3125 16.8177 21.599 17.5312 20.7188 17.5312H11.1562C10.276 17.5312 9.5625 16.8177 9.5625 15.9375Z" fill="#B6DFE3"/>
<path d="M4.78125 17.5312C5.66145 17.5312 6.375 16.8177 6.375 15.9375C6.375 15.0573 5.66145 14.3438 4.78125 14.3438C3.90105 14.3438 3.1875 15.0573 3.1875 15.9375C3.1875 16.8177 3.90105 17.5312 4.78125 17.5312Z" fill="#B6DFE3"/>
<path d="M46.6968 46.6969C47.3129 46.0807 47.3129 45.0818 46.6968 44.4656L36.6319 34.4008C36.28 34.0489 36.2429 33.4934 36.5231 33.0822C38.6096 30.0208 39.8437 26.3038 39.8437 22.3125C39.8437 11.7937 31.2374 3.1875 20.7186 3.1875C15.9806 3.1875 11.5012 4.86903 7.97961 8.11555C7.33076 8.71373 7.3736 9.72962 8.01877 10.3318C8.68671 10.9552 9.73427 10.8888 10.4055 10.2689C13.178 7.70819 16.8271 6.375 20.7186 6.375C29.4843 6.375 36.6562 13.5469 36.6562 22.3125C36.6562 31.0781 29.4843 38.25 20.7186 38.25C16.4858 38.25 12.5027 36.6261 9.54358 33.7101C8.90902 33.0848 7.89242 32.9929 7.21918 33.5764C6.57122 34.138 6.48183 35.1184 7.07839 35.7343C10.5689 39.338 15.5126 41.4375 20.7186 41.4375C25.4769 41.4375 29.819 39.634 33.2271 36.8035C33.6378 36.4625 34.2436 36.4749 34.621 36.8524L44.4655 46.6969C45.0817 47.313 46.0806 47.313 46.6968 46.6969Z" fill="#B6DFE3"/>
</svg>
