<?xml version="1.0" encoding="utf-8"?>
<!-- Generator: Adobe Illustrator 24.3.0, SVG Export Plug-In . SVG Version: 6.00 Build 0)  -->
<svg version="1.1" id="Layer_1" xmlns="http://www.w3.org/2000/svg" xmlns:xlink="http://www.w3.org/1999/xlink" x="0px" y="0px"
	 viewBox="0 0 216 216" style="enable-background:new 0 0 216 216;" xml:space="preserve">
<style type="text/css">
	.st0{fill:#0ACF83;}
	.st1{fill:#A259FF;}
	.st2{fill:#F24E1E;}
	.st3{fill:#FF7262;}
	.st4{fill:#1ABCFE;}
</style>
<g>
	<path id="path0_fill" class="st0" d="M72,216c19.87,0,36-16.13,36-36v-36H72c-19.87,0-36,16.13-36,36S52.13,216,72,216z"/>
	<path id="path1_fill" class="st1" d="M36,108c0-19.87,16.13-36,36-36h36v72H72C52.13,144,36,127.87,36,108z"/>
	<path id="path1_fill_1_" class="st2" d="M36,36C36,16.13,52.13,0,72,0h36v72H72C52.13,72,36,55.87,36,36z"/>
	<path id="path2_fill" class="st3" d="M108,0h36c19.87,0,36,16.13,36,36s-16.13,36-36,36h-36V0z"/>
	<path id="path3_fill" class="st4" d="M180,108c0,19.87-16.13,36-36,36s-36-16.13-36-36s16.13-36,36-36S180,88.13,180,108z"/>
</g>
</svg>
