<?xml version="1.0" encoding="utf-8"?>
<!-- Generator: Adobe Illustrator 24.3.0, SVG Export Plug-In . SVG Version: 6.00 Build 0)  -->
<svg version="1.1" id="Layer_1" xmlns="http://www.w3.org/2000/svg" xmlns:xlink="http://www.w3.org/1999/xlink" x="0px" y="0px"
	 viewBox="0 0 216 216" style="enable-background:new 0 0 216 216;" xml:space="preserve">
<style type="text/css">
	.st0{fill:#00005C;}
	.st1{fill:#9A99FF;}
</style>
<g>
	<path class="st0" d="M178.85,216H37.15c-21.93,0-39.71-17.78-39.71-39.71V39.71C-2.56,17.78,15.22,0,37.15,0h141.69
		c21.93,0,39.71,17.78,39.71,39.71v136.58C218.56,198.22,200.78,216,178.85,216z"/>
	<g>
		<g>
			<path class="st1" d="M80.51,59.99H44.47v96.03H64.7v-29.99h15.81c9.12,0,17.37-3.7,23.35-9.67c5.97-5.98,9.67-14.23,9.67-23.35
				C113.52,74.77,98.74,59.99,80.51,59.99z M88.96,104.02c-2.82,2.82-6.71,4.56-11.02,4.56H64.7V77.43h13.25
				c8.6,0,15.58,6.98,15.58,15.58C93.53,97.3,91.78,101.2,88.96,104.02z"/>
		</g>
		<path class="st1" d="M145.84,91.87v-9.33h-19.3v73.47h19.3v-41.8c0-3.5,1.69-6.8,4.56-8.79c7.76-5.36,21.13-4.63,21.13-4.63V80.56
			C154.79,80.56,145.84,91.87,145.84,91.87z"/>
	</g>
</g>
</svg>
