<svg width="154" height="58" viewBox="0 0 154 58" fill="none" xmlns="http://www.w3.org/2000/svg">
<path d="M140.02 19.0536L143.948 13.5811H148.181L144.057 19.2471L148.344 25.0591H144.111L140.016 19.4406V25.0591H136.03V7.82024L140.016 7.50628L140.02 19.0536ZM130.559 18.7907C130.559 17.272 129.839 16.0673 127.986 16.0673C126.133 16.0673 125.413 17.272 125.413 18.7907V19.8531C125.413 21.3718 126.133 22.5766 127.986 22.5766C129.839 22.5766 130.559 21.3718 130.559 19.8531V18.7907ZM121.427 19.6085V19.0317C121.427 15.7278 123.586 13.3402 127.986 13.3402C132.386 13.3402 134.545 15.7278 134.545 19.0317V19.6085C134.545 22.9124 132.386 25.3 127.986 25.3C123.586 25.3 121.427 22.9124 121.427 19.6085ZM116.115 18.7907C116.115 17.272 115.395 16.0673 113.542 16.0673C111.689 16.0673 110.97 17.272 110.97 18.7907V19.8531C110.97 21.3718 111.689 22.5766 113.542 22.5766C115.395 22.5766 116.115 21.3718 116.115 19.8531V18.7907ZM106.983 19.6085V19.0317C106.983 15.7278 109.142 13.3402 113.542 13.3402C117.943 13.3402 120.101 15.7278 120.101 19.0317V19.6085C120.101 22.9124 117.943 25.3 113.542 25.3C109.142 25.3 106.983 22.9124 106.983 19.6085ZM101.671 18.8857C101.671 17.2684 100.952 16.0636 99.0442 16.0636C97.4129 16.0636 96.5261 17.0749 96.5261 18.7141V19.9188C96.5261 21.558 97.4129 22.5729 99.0442 22.5729C100.952 22.5729 101.671 21.3682 101.671 19.7509V18.8857ZM105.657 19.6815C105.657 22.8869 103.888 25.3 100.232 25.3C98.2411 25.3 96.8565 24.4311 96.3044 23.325V25.0627H92.5398V7.82024L96.5219 7.50628V15.1728C97.1033 14.1616 98.375 13.3402 100.232 13.3402C103.884 13.3402 105.653 15.7497 105.653 18.9587V19.6815H105.657ZM82.5007 18.2577H87.3153V17.9693C87.3153 16.7171 86.7338 15.7278 84.9895 15.7278C83.1909 15.7278 82.5007 16.7171 82.5007 18.2577ZM78.5144 19.7545V18.7396C78.5144 15.4868 80.6435 13.3402 84.9895 13.3402C89.0846 13.3402 90.8833 15.5087 90.8833 18.6922V20.5248H82.5007C82.5844 22.0947 83.3875 22.792 85.6003 22.792C87.0936 22.792 88.6705 22.5254 89.8334 22.091L90.5529 24.4786C89.5029 24.9605 87.3445 25.3219 85.4329 25.3219C80.3967 25.3219 78.5144 23.1278 78.5144 19.7545ZM74.1725 13.3402C75.7202 13.3402 77.1884 13.6286 77.9915 14.1105L77.1047 16.5711C76.494 16.3046 75.4985 16.0417 74.4485 16.0417C72.2901 16.0417 71.349 17.126 71.349 18.9842V19.6596C71.349 21.5142 72.2901 22.6021 74.4485 22.6021C75.4985 22.6021 76.494 22.3356 77.1047 22.0728L77.9915 24.5334C77.1884 25.0153 75.7243 25.3037 74.1725 25.3037C69.4959 25.3037 67.3668 23.1096 67.3668 19.5902V19.0609C67.3626 15.5343 69.4959 13.3402 74.1725 13.3402ZM56.8509 19.729C56.8509 21.4412 57.5704 22.5729 59.4234 22.5729C61.0548 22.5729 61.8872 21.5361 61.8872 19.8969V18.7396C61.8872 17.1004 61.059 16.0636 59.4234 16.0636C57.5704 16.0636 56.8509 17.1954 56.8509 18.9076V19.729ZM52.8646 18.9587C52.8646 15.7533 54.6089 13.3402 58.2606 13.3402C60.2516 13.3402 61.4689 14.231 62.0503 15.3408V13.5811H65.8693V25.0591H62.0503V23.3213C61.4982 24.4311 60.2516 25.3 58.2606 25.3C54.6089 25.3 52.8646 22.8905 52.8646 19.6815V18.9587ZM50.8735 10.2772C49.627 10.2772 49.2672 10.7591 49.2672 11.8215V13.5811H52.5885L52.258 16.4251H49.2714V25.0554H45.2893V16.4287H42.6038V13.5848H45.2893V11.8726C45.2893 9.00309 46.6153 7.48438 50.3255 7.48438C51.1287 7.48438 52.0698 7.53184 52.6512 7.60485V10.2808H50.8735V10.2772Z" fill="#CCCCCC"/>
<path d="M35.8944 0.617188H2.51453C1.37258 0.617188 0.44397 1.42765 0.44397 2.42431V31.5609C0.44397 32.5576 1.37258 33.368 2.51453 33.368H20.4844V20.6853H15.5946V15.7422H20.4844V12.0988C20.4844 7.86757 23.446 5.56395 27.7669 5.56395C29.8375 5.56395 31.6194 5.69902 32.1381 5.75744V10.1785H29.1389C26.7881 10.1785 26.3322 11.1532 26.3322 12.5843V15.7386H31.9415L31.2095 20.6817H26.3322V33.3644H35.8944C37.0363 33.3644 37.9649 32.5539 37.9649 31.5573V2.42431C37.9649 1.42765 37.0405 0.617188 35.8944 0.617188Z" fill="#CCCCCC"/>
<path d="M150.921 24.8874V23.5366H151.578C151.745 23.5366 151.862 23.5476 151.937 23.5731C152.013 23.5987 152.071 23.6388 152.117 23.7009C152.163 23.763 152.184 23.8323 152.184 23.9127C152.184 24.0149 152.151 24.0988 152.084 24.1645C152.017 24.2303 151.912 24.2741 151.779 24.2887C151.845 24.3215 151.904 24.3617 151.946 24.4018C151.992 24.442 152.05 24.515 152.126 24.6209L152.314 24.8837H151.942L151.716 24.588C151.636 24.4822 151.582 24.4165 151.553 24.3909C151.523 24.3653 151.49 24.3434 151.461 24.3361C151.427 24.3252 151.377 24.3215 151.302 24.3215H151.239V24.8837H150.921V24.8874ZM151.235 24.1098H151.465C151.615 24.1098 151.707 24.1025 151.745 24.0915C151.783 24.0806 151.812 24.0623 151.833 24.0331C151.854 24.0076 151.866 23.9711 151.866 23.9309C151.866 23.8871 151.854 23.8469 151.825 23.8214C151.795 23.7922 151.758 23.7739 151.707 23.7666C151.682 23.763 151.607 23.763 151.477 23.763H151.235V24.1098Z" fill="#CCCCCC"/>
<path d="M151.561 25.4787C150.741 25.4787 150.072 24.8946 150.072 24.1791C150.072 23.4635 150.741 22.8794 151.561 22.8794C152.381 22.8794 153.05 23.4635 153.05 24.1791C153.05 24.8946 152.381 25.4787 151.561 25.4787ZM151.561 23.1642C150.921 23.1642 150.398 23.6205 150.398 24.1791C150.398 24.7376 150.921 25.194 151.561 25.194C152.201 25.194 152.724 24.7376 152.724 24.1791C152.724 23.6205 152.205 23.1642 151.561 23.1642Z" fill="#CCCCCC"/>
<path d="M30.2976 38.373L33.782 44.5319L41.5665 45.5176L35.932 50.311L37.2622 57.0758L30.2976 53.8814L23.3372 57.0758L24.6674 50.311L19.033 45.5176L26.8174 44.5319L30.2976 38.373Z" fill="#CCCCCC"/>
<path d="M55.0732 38.373L58.5534 44.5319L66.3378 45.5176L60.7034 50.311L62.0336 57.0758L55.0732 53.8814L48.1086 57.0758L49.4387 50.311L43.8043 45.5176L51.5888 44.5319L55.0732 38.373Z" fill="#CCCCCC"/>
<path d="M79.8446 38.373L83.3248 44.5319L91.1092 45.5176L85.479 50.311L86.805 57.0758L79.8446 53.8814L72.88 57.0758L74.2101 50.311L68.5799 45.5176L76.3643 44.5319L79.8446 38.373Z" fill="#CCCCCC"/>
<path d="M104.616 38.373L108.096 44.5319L115.885 45.5176L110.25 50.311L111.581 57.0758L104.616 53.8814L97.6555 57.0758L98.9857 50.311L93.3513 45.5176L101.136 44.5319L104.616 38.373Z" fill="#CCCCCC"/>
<path d="M129.391 38.373L132.872 44.5319L140.656 45.5176L135.022 50.311L136.352 57.0758L129.391 53.8814L122.427 57.0758L123.757 50.311L118.123 45.5176L125.907 44.5319L129.391 38.373Z" fill="#CCCCCC"/>
</svg>
