<svg width="147" height="57" viewBox="0 0 147 57" fill="none" xmlns="http://www.w3.org/2000/svg">
<path d="M28.0115 14.8537C30.7639 14.8537 33.5163 14.8574 36.2645 14.8501C36.4778 14.8501 36.5657 14.8939 36.5908 15.0874C37.0425 18.541 36.6116 21.8705 34.7461 24.9918C33.2109 27.5583 30.8727 29.4165 27.9488 30.7491C25.0667 32.0633 21.9965 32.673 18.7631 32.5087C11.8821 32.1583 6.62832 29.3983 3.09373 24.2252C1.72173 22.2136 0.964641 20.0086 0.76386 17.6721C0.3372 12.6925 2.16512 8.41381 6.18075 4.87988C9.00423 2.39373 12.4426 0.867713 16.4081 0.327403C21.963 -0.431952 26.97 0.718031 31.4039 3.7372C31.6423 3.90148 31.8682 4.08037 32.1025 4.2483C32.2029 4.32132 32.2154 4.37608 32.115 4.4637C30.973 5.48226 29.8353 6.50081 28.7017 7.52302C28.5637 7.64715 28.5093 7.53762 28.434 7.47921C27.2168 6.55557 25.8615 5.84003 24.3556 5.33623C17.6755 3.09467 10.0584 5.88384 7.2056 11.6119C4.99282 16.0548 6.05944 21.1221 9.9914 24.5866C12.2544 26.5836 15.0151 27.7189 18.2318 28.0001C19.4281 28.1059 20.6244 28.084 21.8082 27.8942C24.0879 27.5291 26.1752 26.7771 27.9655 25.4664C29.8897 24.0573 30.9939 22.2465 31.3871 20.0925C31.4248 19.8917 31.4415 19.6873 31.4833 19.4865C31.5168 19.3149 31.4666 19.2529 31.2491 19.2529C29.9399 19.2602 28.6264 19.2529 27.3172 19.2492C24.7739 19.2383 22.2307 19.2237 19.6917 19.22C19.4992 19.22 19.4407 19.1835 19.4449 19.0083C19.4532 17.705 19.4532 16.4053 19.4449 15.102C19.4449 14.9048 19.4951 14.8501 19.7293 14.8501C22.49 14.8574 25.2508 14.8537 28.0115 14.8537Z" fill="#CCCCCC"/>
<path d="M108.337 13.9157C108.366 13.4119 108.395 12.9446 108.412 12.4773C108.416 12.3239 108.47 12.2728 108.654 12.2765C110.139 12.2838 111.624 12.2838 113.105 12.2765C113.293 12.2765 113.331 12.3312 113.331 12.4846C113.327 19.034 113.369 25.5834 113.306 32.1292C113.281 34.9038 112.168 37.3571 109.834 39.3176C108.976 40.0367 107.993 40.6136 106.889 41.0005C106.044 41.2963 105.141 41.435 104.241 41.5555C102.28 41.8147 100.33 41.7818 98.4187 41.2817C95.6789 40.5625 93.6878 39.0364 92.2405 36.9227C92.0063 36.5795 91.7888 36.2254 91.5922 35.8639C91.5336 35.7581 91.5462 35.7106 91.6758 35.6632C93.0771 35.1374 94.4742 34.6081 95.8671 34.0714C96.0512 34.0021 96.0679 34.1006 96.1223 34.1919C96.7665 35.2762 97.5822 36.2327 98.7492 36.9336C99.774 37.5506 100.903 37.7879 102.15 37.7039C102.966 37.6492 103.773 37.5834 104.547 37.3315C106.483 36.7036 107.63 35.466 108.165 33.7611C108.521 32.6294 108.537 31.4758 108.458 30.3148C108.454 30.2564 108.433 30.198 108.42 30.125C108.244 30.1834 108.132 30.3002 107.998 30.3915C106.588 31.3772 105.024 32.0781 103.221 32.33C101.853 32.5199 100.506 32.4322 99.18 32.0927C97.5487 31.6765 96.0093 31.0559 94.7545 30.0556C92.5166 28.274 91.0358 26.0763 90.5255 23.4405C90.17 21.5822 90.5046 19.7934 91.3872 18.0812C92.6212 15.6899 94.537 13.8353 97.1932 12.5977C100.598 11.0097 103.903 11.2251 107.09 13.0979C107.307 13.2257 107.517 13.3608 107.722 13.4958C107.922 13.6236 108.115 13.7623 108.337 13.9157ZM108.88 22.0459C108.889 20.3957 108.261 18.7383 106.76 17.3802C104.321 15.1825 100.581 15.1423 98.0716 17.267C95.2606 19.6473 95.0682 23.7982 97.6449 26.445C100.142 29.0078 104.367 29.0663 106.939 26.5618C108.198 25.3425 108.797 23.8895 108.88 22.0459Z" fill="#CCCCCC"/>
<path d="M88.4592 22.0569C88.4592 27.8616 83.0506 32.5382 76.3454 32.5345C69.7572 32.5309 64.378 27.8031 64.3822 22.0167C64.3864 16.2303 69.7949 11.5318 76.4458 11.5391C83.0841 11.5464 88.4592 16.2485 88.4592 22.0569ZM69.6485 21.7685C69.661 23.6522 70.2216 25.0724 71.3886 26.3063C73.8147 28.8655 78.0855 29.1174 80.8713 26.8686C83.7576 24.5394 84.0336 20.4505 81.482 17.8403C79.3404 15.6462 75.8602 15.0912 73.1413 16.5515C70.8072 17.8074 69.7447 19.7058 69.6485 21.7685Z" fill="#CCCCCC"/>
<path d="M62.4246 22.0311C62.458 27.7482 57.0578 32.5124 50.5199 32.5343C43.7644 32.5599 38.3475 27.8796 38.3434 22.0202C38.3392 16.2557 43.7226 11.5572 50.3484 11.5426C57.0077 11.5207 62.3911 16.1973 62.4246 22.0311ZM57.2001 22.367C57.1875 20.6037 56.6939 19.2712 55.6775 18.0847C53.151 15.1349 48.282 14.956 45.492 17.7123C43.1161 20.0597 42.9823 23.6192 45.1699 26.1054C47.2823 28.5039 50.9926 29.1282 53.8579 27.5182C56.1041 26.2551 57.1206 24.3786 57.2001 22.367Z" fill="#CCCCCC"/>
<path d="M124.441 22.1226C124.458 17.3657 127.829 13.2951 132.815 12.0392C136.801 11.0353 141.122 11.9662 143.996 15.449C144.954 16.6136 145.657 17.8877 146.221 19.2312C146.28 19.3736 146.217 19.4064 146.092 19.4539C142.934 20.6148 139.78 21.7831 136.622 22.944C134.635 23.6742 132.648 24.4006 130.657 25.1198C130.477 25.1856 130.448 25.2257 130.535 25.3864C131.661 27.4636 134.078 28.6173 136.693 28.3398C138.182 28.1792 139.541 27.7666 140.696 26.9124C141.202 26.5363 141.637 26.1092 141.967 25.6017C142.038 25.4922 142.089 25.4667 142.218 25.5433C143.436 26.2552 144.653 26.9671 145.874 27.6681C146.029 27.7593 145.979 27.8177 145.903 27.9127C143.996 30.2455 141.453 31.7313 138.207 32.2096C131.803 33.1515 125.825 29.4679 124.633 23.8786C124.499 23.2434 124.432 22.6045 124.441 22.1226ZM136.266 15.679C135.291 15.679 134.622 15.7922 133.961 15.9565C132.543 16.3142 131.372 16.9568 130.594 18.0849C129.849 19.1655 129.569 20.352 129.536 21.5969C129.531 21.8086 129.657 21.7174 129.762 21.6772C133.2 20.4213 136.642 19.1618 140.085 17.9096C140.277 17.8403 140.265 17.7818 140.164 17.6541C139.169 16.3544 137.768 15.7046 136.266 15.679Z" fill="#CCCCCC"/>
<path d="M122.161 16.4967C122.161 21.5092 122.161 26.5216 122.165 31.5341C122.165 31.7458 122.098 31.7933 121.864 31.7897C120.291 31.7824 118.723 31.7824 117.15 31.7897C116.962 31.7897 116.903 31.7531 116.903 31.5779C116.907 21.5092 116.907 11.4367 116.903 1.36799C116.903 1.19276 116.962 1.15625 117.15 1.15625C118.723 1.16355 120.291 1.16355 121.864 1.15625C122.098 1.15625 122.165 1.20371 122.165 1.4118C122.161 6.44253 122.161 11.4696 122.161 16.4967Z" fill="#CCCCCC"/>
<path d="M22.603 46.542C23.8286 46.3376 25.0082 46.1368 26.1878 45.9397C27.108 45.7863 28.0241 45.6294 28.9443 45.4833C29.12 45.4541 29.1869 45.3628 29.258 45.2497C30.241 43.6945 31.224 42.1392 32.207 40.584C32.2489 40.5183 32.2907 40.4526 32.3534 40.3613C32.4789 40.5548 32.5876 40.7228 32.6922 40.8907C33.6125 42.3473 34.5327 43.804 35.4488 45.2606C35.5283 45.3884 35.6245 45.4578 35.8002 45.487C37.8874 45.8301 39.9705 46.1843 42.0536 46.5347C42.0662 46.6406 41.9658 46.6808 41.9072 46.7355C40.5227 48.0315 39.1382 49.3239 37.7452 50.6163C37.6156 50.7367 37.5612 50.8499 37.5863 51.0179C37.8122 52.5329 38.0297 54.048 38.2472 55.563C38.2932 55.877 38.335 56.191 38.3769 56.5086C38.2556 56.5524 38.1844 56.483 38.105 56.4502C36.2938 55.7091 34.4784 54.9716 32.6713 54.2196C32.4371 54.121 32.253 54.1283 32.023 54.2269C30.2159 54.9789 28.4047 55.7164 26.5935 56.4575C26.5224 56.4867 26.4513 56.5086 26.33 56.5524C26.376 56.1946 26.4178 55.8733 26.4638 55.5484C26.6646 54.1392 26.8445 52.7228 27.0871 51.3172C27.1582 50.9047 27.0202 50.6491 26.7106 50.368C25.3846 49.1596 24.0837 47.9293 22.7745 46.71C22.7243 46.6662 22.6824 46.6187 22.603 46.542Z" fill="#CCCCCC"/>
<path d="M47.1568 56.556C47.228 56.0632 47.2865 55.6141 47.3534 55.1651C47.5542 53.7778 47.7508 52.3905 47.9557 50.9996C47.9808 50.8426 47.9265 50.7331 47.8052 50.6199C46.4122 49.3312 45.0277 48.0352 43.6432 46.7428C43.5846 46.6881 43.5302 46.6333 43.4382 46.5457C43.9234 46.4617 44.3752 46.3814 44.8269 46.3047C46.4792 46.0273 48.1272 45.7498 49.7795 45.4833C49.9552 45.4541 50.0221 45.3665 50.0974 45.2497C51.0804 43.6945 52.0634 42.1392 53.0464 40.584C53.0882 40.5183 53.1301 40.4526 53.1928 40.3613C53.3183 40.5548 53.4271 40.7191 53.5316 40.8907C54.4519 42.3473 55.3721 43.804 56.2882 45.2606C56.3677 45.3884 56.4639 45.4614 56.6395 45.487C58.7268 45.8301 60.81 46.1843 62.8972 46.5347C62.914 46.6406 62.8094 46.6771 62.7508 46.7355C61.3621 48.0352 59.9692 49.3385 58.572 50.6309C58.4466 50.7477 58.4047 50.8609 58.4298 51.0142C58.6515 52.5293 58.869 54.0443 59.0907 55.5594C59.1367 55.877 59.1786 56.1983 59.2246 56.5597C58.9193 56.4356 58.6641 56.3333 58.4047 56.2275C56.765 55.5557 55.1253 54.8876 53.4898 54.2086C53.2723 54.1173 53.1008 54.1246 52.8874 54.2123C51.0804 54.9607 49.2692 55.7018 47.4538 56.4429C47.3743 56.4757 47.2949 56.5013 47.1568 56.556Z" fill="#CCCCCC"/>
<path d="M79.8382 56.5162C79.7085 56.5308 79.6332 56.476 79.5495 56.4395C77.7132 55.6911 75.8769 54.9391 74.0447 54.1834C73.8816 54.114 73.7519 54.114 73.5846 54.1834C71.7525 54.9391 69.9162 55.6875 68.0799 56.4395C67.9962 56.4724 67.9167 56.5308 67.7871 56.5162C67.8498 56.0672 67.9125 55.6181 67.9753 55.1691C68.1761 53.7818 68.3727 52.3945 68.5777 51.0072C68.5986 50.8502 68.5568 50.7407 68.4313 50.6239C67.0383 49.3352 65.6538 48.0392 64.2692 46.7432C64.2065 46.6847 64.1187 46.6409 64.0977 46.5351C64.9134 46.3963 65.7291 46.2576 66.5406 46.1225C67.8331 45.9071 69.1256 45.6881 70.4224 45.48C70.5855 45.4544 70.6482 45.3632 70.7151 45.2537C71.6981 43.6984 72.6811 42.1432 73.6641 40.5843C73.706 40.5186 73.7478 40.4529 73.7938 40.3872C73.8942 40.4237 73.9109 40.504 73.9485 40.5624C74.9357 42.125 75.9271 43.6875 76.9101 45.25C76.9979 45.3887 77.0983 45.4544 77.2823 45.4873C79.332 45.8268 81.3816 46.1736 83.4313 46.5205C83.4606 46.5241 83.494 46.5351 83.5275 46.5424C83.5149 46.6446 83.4229 46.6884 83.3602 46.7468C81.9756 48.0428 80.5911 49.3352 79.1981 50.6275C79.0727 50.7444 79.0267 50.8539 79.0518 51.0109C79.2567 52.3982 79.4533 53.7854 79.6541 55.1727C79.7126 55.6181 79.7754 56.0672 79.8382 56.5162Z" fill="#CCCCCC"/>
<path d="M88.204 56.5199C88.2459 56.2059 88.2835 55.8919 88.3295 55.5816C88.547 54.0666 88.7646 52.5515 88.9904 51.0365C89.0155 50.8649 88.9695 50.7407 88.8315 50.613C87.4427 49.3279 86.0665 48.0392 84.6862 46.7505C84.6234 46.6921 84.5356 46.6483 84.5105 46.5387C85.2425 46.4146 85.9703 46.2905 86.6981 46.17C88.0743 45.94 89.4547 45.7064 90.8351 45.4837C90.9982 45.4581 91.061 45.3705 91.1321 45.261C92.1193 43.6985 93.1064 42.1359 94.0936 40.5734C94.1312 40.515 94.1689 40.4566 94.2107 40.3945C94.3111 40.4274 94.3237 40.5077 94.3655 40.5661C95.3527 42.1286 96.344 43.6912 97.327 45.2537C97.4148 45.3924 97.5111 45.4618 97.6951 45.491C99.7531 45.8305 101.811 46.181 103.869 46.5241C103.894 46.5278 103.915 46.5387 103.94 46.546C103.932 46.6446 103.84 46.6848 103.777 46.7432C102.384 48.0428 100.995 49.3425 99.5984 50.6385C99.4896 50.7407 99.4436 50.8393 99.4645 50.9817C99.6527 52.2485 99.8326 53.519 100.012 54.7858C100.096 55.3626 100.176 55.9394 100.259 56.5162C100.13 56.5381 100.054 56.4797 99.9706 56.4432C98.1427 55.6948 96.3147 54.9501 94.491 54.198C94.3111 54.125 94.1689 54.1177 93.9848 54.1944C92.1611 54.9501 90.3331 55.6948 88.5052 56.4432C88.4132 56.4724 88.3379 56.5308 88.204 56.5199Z" fill="#CCCCCC"/>
<path d="M105.551 46.535C107.387 46.2284 109.207 45.9217 111.026 45.6151C111.068 45.6077 111.11 45.5931 111.152 45.5931C111.871 45.6041 112.218 45.2354 112.532 44.7097C113.36 43.3151 114.26 41.9497 115.13 40.5734C115.171 40.5077 115.197 40.4346 115.289 40.3799C115.652 40.9567 116.021 41.5299 116.384 42.1067C117.05 43.1581 117.715 44.2132 118.376 45.2682C118.459 45.3997 118.56 45.4617 118.731 45.4909C120.814 45.8341 122.897 46.1882 124.985 46.5387C124.985 46.6446 124.888 46.6847 124.826 46.7431C123.433 48.0428 122.044 49.3425 120.647 50.6385C120.53 50.748 120.488 50.8539 120.509 50.9999C120.71 52.3799 120.906 53.7599 121.107 55.1398C121.166 55.5378 121.224 55.9357 121.283 56.3336C121.291 56.3921 121.308 56.476 121.274 56.5089C121.207 56.5636 121.132 56.4943 121.065 56.4687C119.246 55.724 117.422 54.9829 115.611 54.2272C115.368 54.1249 115.18 54.1286 114.937 54.2308C113.13 54.9829 111.319 55.7203 109.504 56.4614C109.437 56.4906 109.357 56.5563 109.29 56.5198C109.211 56.4724 109.265 56.3811 109.273 56.3117C109.524 54.5557 109.78 52.7997 110.035 51.0437C110.06 50.8758 110.022 50.748 109.88 50.6202C108.491 49.3388 107.115 48.0464 105.735 46.7577C105.668 46.692 105.584 46.6482 105.551 46.535Z" fill="#CCCCCC"/>
</svg>
