<svg width="223" height="58" viewBox="0 0 223 58" fill="none" xmlns="http://www.w3.org/2000/svg">
<path d="M29.9551 7.00146H14.2775C10.287 7.00146 7.0368 9.83444 7.0368 13.3209V27.0039C7.0368 30.4867 10.2828 33.3233 14.2775 33.3233H29.9551C33.9457 33.3233 37.1958 30.4904 37.1958 27.0039V13.3209C37.1958 9.83809 33.9457 7.00146 29.9551 7.00146ZM22.1163 28.2963C16.9755 28.2963 12.7967 24.6492 12.7967 20.1624C12.7967 15.6756 16.9755 12.0285 22.1163 12.0285C27.2571 12.0285 31.4359 15.6756 31.4359 20.1624C31.4359 24.6492 27.253 28.2963 22.1163 28.2963ZM31.8333 13.518C30.5951 13.518 29.5954 12.6419 29.5954 11.5649C29.5954 10.4843 30.5993 9.6081 31.8333 9.6081C33.0714 9.6081 34.0712 10.4843 34.0712 11.5649C34.0753 12.6455 33.0714 13.518 31.8333 13.518Z" fill="#CCCCCC"/>
<path d="M37.0201 0.87207H7.21251C3.25126 0.87207 0.0136719 3.7014 0.0136719 7.155V33.1702C0.0136719 36.6275 3.25545 39.4531 7.21251 39.4531H37.0201C40.9814 39.4531 44.219 36.6238 44.219 33.1702V7.155C44.219 3.7014 40.9814 0.87207 37.0201 0.87207ZM40.3163 27.0078C40.3163 31.9947 35.669 36.0507 29.9551 36.0507H14.2775C8.5636 36.0507 3.91635 31.9947 3.91635 27.0078V13.3211C3.91635 8.33419 8.5636 4.27822 14.2775 4.27822H29.9551C35.669 4.27822 40.3163 8.33419 40.3163 13.3211V27.0078Z" fill="#CCCCCC"/>
<path d="M22.1163 14.7524C18.6988 14.7524 15.9172 17.1802 15.9172 20.1628C15.9172 23.1455 18.6988 25.5733 22.1163 25.5733C25.5338 25.5733 28.3154 23.1455 28.3154 20.1628C28.3154 17.1802 25.5338 14.7524 22.1163 14.7524Z" fill="#CCCCCC"/>
<path d="M76.3398 9.46605C76.3021 9.49526 76.2603 9.57557 76.2059 9.6997C76.1515 9.82382 76.1264 10.0429 76.1264 10.3568C76.1264 10.7949 76.1975 11.2184 76.3398 11.6236V27.1576C76.3398 28.7529 76.1599 30.2863 75.8043 31.7575C75.4446 33.2288 74.8255 34.5357 73.9471 35.6748C73.0687 36.8174 71.8682 37.7228 70.3456 38.3982C68.823 39.0699 66.8779 39.4058 64.5104 39.4058H63.8119C61.7706 39.4058 60.1099 39.1649 58.8383 38.6793C57.5667 38.1938 56.5712 37.5768 55.8559 36.8247C55.1406 36.0727 54.6554 35.2513 54.4044 34.3605C54.1535 33.4697 54.028 32.6191 54.028 31.805C54.028 31.1186 54.1284 30.4505 54.325 29.8117C54.5216 29.1691 54.806 28.6069 55.1866 28.1214C55.5631 27.6358 56.019 27.2452 56.5586 26.9458C57.094 26.6501 57.7048 26.5004 58.3866 26.5004C59.0308 26.5004 59.4449 26.6501 59.6247 26.9458C59.8046 27.2452 59.8924 27.5482 59.8924 27.8622C59.8924 28.5521 59.7293 29.1217 59.4072 29.5744C59.0851 30.0271 58.7338 30.4286 58.3573 30.7718C57.9808 31.115 57.6337 31.4618 57.3074 31.805C56.9853 32.1518 56.8222 32.5716 56.8222 33.0718C56.8222 34.5722 57.3952 35.6528 58.5414 36.31C59.6875 36.9671 61.1222 37.2957 62.8414 37.2957C64.3473 37.2957 65.6565 37.0292 66.765 36.4998C67.8735 35.9668 68.7979 35.2951 69.5341 34.481C70.2703 33.6668 70.8141 32.7834 71.1738 31.8305C71.5336 30.8777 71.7092 29.9759 71.7092 29.1326L70.9019 29.1801C69.6136 29.1801 68.4926 28.9209 67.543 28.4061C66.5935 27.8914 65.8029 27.2415 65.1755 26.4603C64.5481 25.679 64.0837 24.832 63.7784 23.9267C63.473 23.0213 63.3225 22.1743 63.3225 21.393V19.7502C63.3225 19.1551 63.4103 18.4615 63.5902 17.662C63.77 16.8661 64.021 16.0374 64.3431 15.1758C64.6652 14.3142 65.0584 13.4709 65.5269 12.6422C65.9912 11.8135 66.4931 11.0687 67.0327 10.4116C67.5723 9.75446 68.1412 9.2251 68.7519 8.81622C69.3626 8.41099 69.9901 8.20654 70.6342 8.20654C70.8852 8.20654 71.1738 8.254 71.4959 8.34892L75.2606 8.58257C75.5115 8.61543 75.7541 8.69209 75.9884 8.81622C76.2226 8.93304 76.3398 9.15209 76.3398 9.46605ZM71.7176 15.0955C71.7887 14.8472 71.8598 14.61 71.9351 14.3909C72.0062 14.1719 72.0439 13.9236 72.0439 13.6389C72.0439 13.2336 71.9268 12.8649 71.6925 12.5363C71.4583 12.2078 71.04 12.0435 70.4293 12.0435C69.6387 12.0435 68.9945 12.3246 68.4926 12.8868C67.9906 13.449 67.6058 14.1244 67.3339 14.9057C67.0662 15.6869 66.878 16.501 66.7692 17.3444C66.6604 18.1877 66.6061 18.8777 66.6061 19.4107C66.6061 19.8159 66.6437 20.4037 66.7148 21.1703C66.7859 21.937 66.9574 22.6964 67.2251 23.4484C67.4928 24.2005 67.8693 24.8539 68.3545 25.4198C68.8397 25.982 69.4923 26.2631 70.3163 26.2631C70.3874 26.2631 70.5924 26.2485 70.9354 26.2157C71.2742 26.1828 71.5336 26.1354 71.7134 26.0733V15.0955H71.7176Z" fill="#CCCCCC"/>
<path d="M88.6544 27.2963C88.1148 27.9535 87.6755 28.68 87.3367 29.4795C86.9979 30.2754 86.7009 31.1077 86.4499 31.9657C86.199 32.8272 85.994 33.6888 85.8309 34.5467C85.6677 35.4083 85.5004 36.2297 85.3205 37.011C85.2494 37.2008 84.9692 37.3249 84.4881 37.387C84.0029 37.4491 83.6557 37.4819 83.4382 37.4819C82.7941 37.4819 82.2628 37.4527 81.8529 37.387C81.4388 37.3249 81.1251 37.1753 80.9117 36.9416C80.6984 36.708 80.5353 36.3465 80.4265 35.861C80.3178 35.3755 80.2299 34.7256 80.1588 33.9115L80.8574 19.973C80.8574 19.5677 81.1083 19.3633 81.6103 19.3633C81.7901 19.3633 82.0411 19.3888 82.3632 19.4326C82.6853 19.4801 83.0283 19.5495 83.3838 19.6444C83.7436 19.7393 84.0489 19.8561 84.2999 19.9949C84.5509 20.1372 84.6764 20.3015 84.6764 20.4877V30.0125C84.714 29.9833 84.7642 29.8555 84.8395 29.6365C85.0905 29.0743 85.3959 28.377 85.7556 27.5483C86.1153 26.7195 86.5085 25.9273 86.9393 25.1789C87.3702 24.4269 87.8261 23.788 88.3114 23.255C88.7924 22.722 89.286 22.4555 89.7879 22.4555C90.4321 22.4555 90.9257 22.5905 91.2687 22.8534C91.6075 23.1199 91.8669 23.4558 92.0467 23.861C92.2266 24.2699 92.3312 24.7043 92.3688 25.1753C92.4023 25.6462 92.4232 26.0989 92.4232 26.537C92.4232 26.851 92.3897 27.3657 92.3144 28.0849C92.2433 28.8041 92.2057 29.8847 92.2057 31.3231C92.2057 32.1372 92.2935 32.871 92.4734 33.5282C92.6533 34.1853 93.013 34.5139 93.5484 34.5139C93.9416 34.5139 94.3013 34.3569 94.6234 34.0466C94.9455 33.7326 95.2425 33.342 95.5102 32.8747C95.7779 32.4074 96.0038 31.9072 96.1837 31.3742C96.3635 30.8412 96.4681 30.3411 96.5057 29.8738C96.5392 29.2787 96.8111 28.983 97.3131 28.983C97.6351 28.983 97.8526 29.0779 97.9572 29.2641C98.066 29.4539 98.1204 29.6693 98.1204 29.9212V30.0162C98.0869 30.6404 97.953 31.345 97.7188 32.1263C97.4845 32.9075 97.1457 33.645 96.6981 34.3313C96.2506 35.0213 95.665 35.5981 94.9497 36.0691C94.2302 36.54 93.356 36.7737 92.3144 36.7737C90.704 36.7737 89.6708 36.2662 89.2232 35.2477C88.7757 34.2328 88.5498 32.7214 88.5498 30.7171L88.6544 27.2963Z" fill="#CCCCCC"/>
<path d="M109.623 34.6199C109.623 35.3719 109.335 35.9488 108.762 36.3577C108.189 36.7629 107.532 37.0622 106.8 37.2484C106.064 37.4346 105.328 37.5514 104.595 37.5989C103.859 37.6464 103.332 37.6683 103.01 37.6683C102.508 37.6683 101.889 37.6208 101.157 37.5259C100.421 37.431 99.7056 37.2849 99.0029 37.0805C98.3044 36.8761 97.7146 36.5876 97.2293 36.2116C96.7441 35.8356 96.5057 35.3683 96.5057 34.8024C96.5057 34.4593 96.6563 34.2147 96.9616 34.0759C97.267 33.9336 97.5598 33.8642 97.8484 33.8642C98.2416 33.8642 98.6264 33.9883 99.0029 34.2402C99.3794 34.4921 99.7726 34.755 100.187 35.0397C100.597 35.3208 101.057 35.5873 101.559 35.8392C102.061 36.0911 102.634 36.2153 103.278 36.2153C103.562 36.2153 103.951 36.1313 104.432 35.9561C104.918 35.7845 105.16 35.4778 105.16 35.0397C105.16 34.6016 104.955 34.1782 104.541 33.7729C104.131 33.3677 103.608 32.9442 102.981 32.5061C102.353 32.068 101.68 31.6153 100.965 31.1444C100.249 30.6734 99.576 30.166 98.9485 29.6184C98.3211 29.0708 97.8024 28.4684 97.3883 27.8113C96.9784 27.1541 96.7692 26.4349 96.7692 25.6537C96.7692 24.5584 97.175 23.6348 97.9781 22.8827C98.7854 22.1307 99.7349 21.5393 100.827 21.1012C101.918 20.6631 103.039 20.3528 104.186 20.1629C105.332 19.9731 106.231 19.8818 106.875 19.8818C107.486 19.8818 108.092 19.9914 108.703 20.2104C109.314 20.4294 109.619 20.8529 109.619 21.4772C109.619 21.6634 109.573 21.9409 109.485 22.2986C109.398 22.6601 109.251 23.0105 109.054 23.3537C108.858 23.6969 108.599 24.0035 108.276 24.27C107.954 24.5365 107.54 24.668 107.038 24.668C106.896 24.668 106.75 24.6132 106.607 24.5037C106.465 24.3942 106.302 24.27 106.126 24.1277C105.947 23.9853 105.758 23.8611 105.562 23.7516C105.365 23.6421 105.139 23.5873 104.888 23.5873C103.633 23.5873 102.755 23.9086 102.253 24.5475C101.751 25.19 101.5 25.8691 101.5 26.5883C101.5 27.2162 101.923 27.8697 102.763 28.5597C103.604 29.2497 104.537 29.936 105.558 30.626C106.578 31.316 107.511 31.995 108.352 32.6667C109.201 33.3458 109.623 33.992 109.623 34.6199Z" fill="#CCCCCC"/>
<path d="M110.803 29.0342C110.841 27.4388 110.891 25.8106 110.966 24.1532C111.037 22.4957 111.108 20.9624 111.179 19.5532C111.179 19.3013 110.891 19.1297 110.318 19.0385C109.745 18.9436 109.101 18.8523 108.381 18.7574C107.666 18.6624 107.022 18.5164 106.444 18.312C105.871 18.1075 105.583 17.7717 105.583 17.3044C105.583 16.8991 106.047 16.6618 106.98 16.5998C107.913 16.5377 109.293 16.5049 111.121 16.5049C111.263 16.5049 111.364 16.315 111.418 15.9426C111.472 15.5666 111.506 15.092 111.527 14.5115C111.543 13.9347 111.56 13.3141 111.577 12.657C111.594 11.9998 111.623 11.3829 111.661 10.8024C111.694 10.2256 111.757 9.74732 111.849 9.3713C111.937 8.99527 112.054 8.80908 112.196 8.80908C112.376 8.80908 112.698 8.84194 113.162 8.904C113.626 8.96606 114.112 9.05368 114.614 9.1632C115.116 9.27273 115.555 9.4078 115.931 9.56113C116.308 9.71812 116.496 9.8897 116.496 10.0759L115.906 16.1763C115.906 16.3625 116.094 16.4976 116.471 16.5742C116.847 16.6545 117.333 16.6983 117.922 16.7166C118.512 16.7312 119.14 16.7385 119.805 16.7385C120.466 16.7385 121.097 16.786 121.687 16.8809C122.277 16.9758 122.762 17.1218 123.139 17.3263C123.515 17.5307 123.703 17.8337 123.703 18.2426C123.703 18.3047 123.666 18.4069 123.594 18.5456C123.523 18.6843 123.431 18.7574 123.327 18.7574C123.256 18.7574 123.155 18.7099 123.03 18.615C122.904 18.5201 122.574 18.4726 122.034 18.4726C121.892 18.4726 121.499 18.4909 120.85 18.5201C120.206 18.5529 119.524 18.6004 118.805 18.6624C118.086 18.7245 117.433 18.7975 116.843 18.8742C116.253 18.9509 115.919 19.0531 115.848 19.1809C115.81 19.2429 115.768 19.6116 115.714 20.2834C115.659 20.9551 115.605 21.8386 115.555 22.9338C115.5 24.029 115.454 25.2885 115.421 26.7123C115.383 28.1361 115.367 29.6293 115.367 31.1955C115.367 31.7905 115.4 32.3673 115.475 32.9332C115.546 33.4954 115.655 34.0029 115.797 34.4592C115.94 34.9119 116.128 35.2806 116.362 35.5617C116.596 35.8429 116.872 35.9852 117.195 35.9852C117.659 35.9852 118.09 35.8136 118.487 35.4705C118.88 35.1273 119.24 34.6564 119.562 34.0613C119.884 33.4662 120.173 32.7945 120.424 32.0424C120.675 31.2904 120.888 30.5237 121.068 29.7425C121.177 29.2752 121.302 28.9356 121.444 28.7349C121.587 28.5304 121.8 28.4318 122.089 28.4318C122.34 28.4318 122.561 28.5012 122.762 28.6436C122.959 28.786 123.059 29.1036 123.059 29.6037C123.059 29.9177 123.038 30.1221 123.005 30.2134C122.896 30.7756 122.691 31.5496 122.386 32.5353C122.08 33.521 121.666 34.4921 121.147 35.4449C120.629 36.4014 119.993 37.2374 119.24 37.9566C118.487 38.6758 117.609 39.0373 116.605 39.0373C115.639 39.0373 114.794 38.7963 114.078 38.3108C113.359 37.8252 112.761 37.1535 112.28 36.2919C111.794 35.4303 111.426 34.4154 111.175 33.2435C110.924 32.0716 110.799 30.8121 110.799 29.465V29.0342H110.803Z" fill="#CCCCCC"/>
<path d="M142.69 32.4148C142.618 32.8529 142.439 33.3676 142.15 33.9627C141.861 34.5578 141.493 35.1273 141.046 35.6749C140.598 36.2225 140.079 36.6825 139.485 37.0585C138.896 37.4345 138.239 37.6207 137.524 37.6207C136.449 37.6207 135.507 37.263 134.7 36.5401C133.893 35.8209 133.403 34.806 133.224 33.4881C133.01 33.9882 132.759 34.5687 132.471 35.2258C132.182 35.883 131.826 36.4926 131.396 37.0549C130.965 37.6171 130.471 38.0953 129.919 38.486C129.363 38.8766 128.71 39.0737 127.957 39.0737C127.74 39.0737 127.581 39.0591 127.472 39.0263C127.363 38.9971 127.246 38.9569 127.121 38.9094C126.995 38.862 126.853 38.8218 126.69 38.7926C126.527 38.7598 126.305 38.7452 126.016 38.7452C125.155 38.7452 124.431 38.5042 123.837 38.0187C123.243 37.5331 122.77 36.9161 122.411 36.1641C122.051 35.412 121.792 34.5906 121.628 33.6998C121.47 32.809 121.386 31.973 121.386 31.1881C121.386 29.3116 121.503 27.5264 121.737 25.8398C121.971 24.1495 122.356 22.6563 122.896 21.3567C123.431 20.057 124.13 19.0275 124.992 18.2608C125.853 17.4942 126.891 17.1108 128.112 17.1108C128.827 17.1108 129.375 17.1656 129.752 17.2751C130.128 17.3846 130.48 17.5088 130.802 17.6512C131.124 17.7935 131.475 17.9396 131.852 18.0965C132.228 18.2535 132.755 18.3776 133.437 18.4726C134.19 18.8486 134.717 19.294 135.022 19.8124C135.328 20.3271 135.524 20.8857 135.612 21.4771C135.7 22.0722 135.729 22.6892 135.692 23.3317C135.654 23.9742 135.692 24.6058 135.8 25.2338C135.8 25.2666 135.88 25.3141 136.043 25.3761C136.206 25.4382 136.394 25.5112 136.608 25.5879C136.821 25.6682 137.013 25.7777 137.172 25.9164C137.331 26.0588 137.415 26.2377 137.415 26.4567V26.6429C137.055 27.4571 136.842 28.1762 136.771 28.8005C136.7 29.4248 136.662 30.1769 136.662 31.053C136.662 31.4911 136.687 31.9694 136.741 32.4841C136.796 32.9989 136.884 33.4844 137.013 33.9408C137.139 34.3935 137.327 34.7695 137.578 35.0652C137.829 35.3646 138.151 35.5106 138.548 35.5106C138.979 35.5106 139.364 35.3244 139.703 34.9484C140.042 34.5724 140.326 34.1416 140.565 33.656C140.799 33.1705 140.995 32.6776 141.154 32.1775C141.318 31.6773 141.414 31.3013 141.451 31.053C141.523 30.677 141.702 30.4908 141.991 30.4908C142.171 30.4908 142.338 30.5784 142.501 30.75C142.664 30.9216 142.744 31.2283 142.744 31.6664C142.744 31.7905 142.744 31.9073 142.744 32.0168C142.744 32.1227 142.723 32.2578 142.69 32.4148ZM132.743 24.8103C132.743 24.4671 132.705 24.0582 132.634 23.5909C132.563 23.1236 132.437 22.6855 132.257 22.2766C132.077 21.8714 131.81 21.5246 131.45 21.2435C131.09 20.9624 130.605 20.82 129.999 20.82C128.995 20.82 128.179 21.2179 127.552 22.0174C126.924 22.8133 126.43 23.7552 126.075 24.8322C125.715 25.9128 125.485 27.0226 125.376 28.1653C125.268 29.308 125.213 30.2061 125.213 30.8632C125.213 31.3634 125.238 31.9657 125.293 32.6703C125.347 33.3749 125.443 34.0394 125.59 34.6636C125.732 35.2879 125.941 35.8209 126.209 36.259C126.476 36.6971 126.828 36.9161 127.259 36.9161C128.296 36.9161 129.095 36.5657 129.651 35.8611C130.208 35.1565 130.63 34.2803 130.915 33.2325C131.199 32.1848 131.408 31.0603 131.534 29.8519C131.659 28.6472 131.776 27.5447 131.881 26.5444C131.952 26.0114 132.115 25.6755 132.366 25.5331C132.617 25.3944 132.743 25.2922 132.743 25.2301V24.8103Z" fill="#CCCCCC"/>
<path d="M158.928 38.7487C158.928 39.0626 158.769 39.2817 158.447 39.4058C158.125 39.5299 157.819 39.592 157.531 39.592L156.456 39.4971C156.276 39.4971 156.184 39.592 156.184 39.7782L156.129 40.3404C156.167 41.1837 156.184 42.2497 156.184 43.5311C156.184 44.8125 156.184 46.0501 156.184 47.2366C156.184 48.4888 156.138 49.7155 156.05 50.9202C155.958 52.125 155.753 53.202 155.431 54.1585C155.109 55.1113 154.653 55.878 154.059 56.4584C153.469 57.0352 152.653 57.3273 151.612 57.3273C150.717 57.3273 149.775 57.2871 148.788 57.2105C147.801 57.1338 146.906 56.9367 146.099 56.6227C145.291 56.3087 144.626 55.8488 144.108 55.2391C143.585 54.6294 143.325 53.808 143.325 52.7748C143.325 51.7417 143.459 50.6866 143.731 49.606C144.003 48.5254 144.388 47.4776 144.894 46.4627C145.4 45.4441 146.002 44.4767 146.705 43.553C147.408 42.6294 148.173 41.808 149.006 41.0888C149.441 40.7128 149.918 40.3294 150.44 39.9388C150.963 39.5482 151.424 39.2269 151.821 38.9787V38.9312C151.892 38.2741 151.946 37.6169 151.984 36.9598C152.017 36.3027 152.034 35.6309 152.034 34.9409C151.854 35.222 151.641 35.6054 151.386 36.0909C151.135 36.5765 150.838 37.0401 150.495 37.4745C150.152 37.9126 149.763 38.296 149.332 38.6245C148.897 38.9531 148.412 39.1174 147.872 39.1174C147.584 39.1174 147.333 39.0699 147.115 38.9787C146.898 38.8837 146.592 38.8363 146.195 38.8363C145.187 38.7742 144.346 38.5406 143.681 38.1317C143.016 37.7264 142.493 37.1642 142.116 36.4414C141.74 35.7222 141.476 34.8679 141.33 33.8859C141.184 32.9002 141.113 31.7976 141.113 30.5783C141.113 29.107 141.209 27.592 141.41 26.0258C141.606 24.4596 141.958 23.0285 142.464 21.7325C142.966 20.4329 143.643 19.3705 144.488 18.5418C145.333 17.7131 146.404 17.2969 147.701 17.2969C147.843 17.2969 148.031 17.3443 148.265 17.4393C148.5 17.5342 148.751 17.6364 149.023 17.7459C149.29 17.8554 149.562 17.965 149.834 18.0745C150.102 18.184 150.311 18.2534 150.453 18.2862C151.173 18.4104 151.838 18.5673 152.448 18.7535C153.059 18.9397 153.582 19.1843 154.013 19.48C154.444 19.7757 154.787 20.1664 155.038 20.6519C155.289 21.1375 155.414 21.7398 155.414 22.459C155.414 22.9592 155.368 23.4155 155.28 23.8208C155.192 24.226 155.146 24.7444 155.146 25.3687C155.146 25.6206 155.247 25.7922 155.452 25.8834C155.657 25.9783 155.891 26.055 156.15 26.1171C156.414 26.1791 156.652 26.2522 156.866 26.3288C157.083 26.4091 157.188 26.5698 157.188 26.8217C157.188 26.8837 157.108 27.0334 156.945 27.2671C156.782 27.5007 156.681 27.6504 156.648 27.7125C156.539 27.9644 156.451 28.3623 156.38 28.9099C156.309 29.4575 156.255 30.0526 156.221 30.6915C156.184 31.334 156.159 31.9911 156.142 32.6629C156.121 33.3346 156.113 33.937 156.113 34.47C156.113 34.8752 156.113 35.4155 156.113 36.0873C156.113 36.7626 156.129 37.3176 156.167 37.752H156.384C156.456 37.752 156.527 37.7447 156.598 37.7301C156.669 37.7155 156.723 37.7082 156.757 37.7082C157.079 37.7082 157.518 37.7958 158.074 37.9674C158.647 38.1463 158.928 38.4018 158.928 38.7487ZM152.097 24.2479C152.097 23.9047 152.059 23.5141 151.988 23.076C151.917 22.6379 151.787 22.2254 151.608 21.8311C151.428 21.4405 151.164 21.1119 150.821 20.8454C150.478 20.5789 150.056 20.4475 149.55 20.4475C148.864 20.4475 148.224 20.6811 147.63 21.1521C147.031 21.6194 146.509 22.2874 146.057 23.1454C145.605 24.0069 145.245 25.0547 144.973 26.2887C144.702 27.5263 144.568 28.9245 144.568 30.487C144.568 31.1442 144.593 31.8232 144.647 32.5278C144.702 33.2324 144.789 33.864 144.915 34.4298C145.04 34.992 145.237 35.463 145.505 35.839C145.772 36.215 146.124 36.4012 146.555 36.4012C147.307 36.4012 147.968 36.1201 148.546 35.5543C149.119 34.992 149.596 34.2947 149.972 33.466C150.348 32.6373 150.633 31.7757 150.834 30.8849C151.03 29.9942 151.147 29.2202 151.185 28.5631C151.223 27.6577 151.281 27.0371 151.357 26.7085C151.432 26.3799 151.507 26.1682 151.587 26.0733C151.817 25.825 151.959 25.5257 152.013 25.1825C152.072 24.843 152.097 24.529 152.097 24.2479ZM151.884 40.5302C151.051 41.0304 150.265 41.735 149.524 42.6403C148.784 43.5494 148.14 44.5351 147.596 45.5975C147.052 46.6598 146.63 47.7404 146.32 48.8357C146.015 49.9309 145.86 50.9166 145.86 51.7928C145.86 52.1067 145.898 52.4499 145.969 52.8259C146.04 53.202 146.157 53.5524 146.32 53.881C146.483 54.2096 146.718 54.4834 147.027 54.7024C147.333 54.9215 147.705 55.031 148.14 55.031C148.897 55.031 149.524 54.7572 150.01 54.2096C150.499 53.6619 150.88 53.0121 151.152 52.2637C151.423 51.5117 151.603 50.745 151.695 49.9637C151.783 49.1825 151.829 48.5546 151.829 48.0873C151.829 47.9923 151.829 47.8536 151.829 47.6638C151.829 47.4776 151.838 47.1162 151.854 46.5832C151.871 46.0501 151.879 45.309 151.879 44.3526C151.884 43.3997 151.884 42.1256 151.884 40.5302Z" fill="#CCCCCC"/>
<path d="M175.003 30.9106C175.003 31.1296 174.923 31.6553 174.76 32.4841C174.597 33.3128 174.313 34.189 173.898 35.1126C173.484 36.0362 172.928 36.8577 172.229 37.5769C171.531 38.2961 170.644 38.6538 169.569 38.6538C168.423 38.6538 167.507 38.3034 166.825 37.5988C166.143 36.8942 165.625 36.0508 165.265 35.0651C164.905 34.0794 164.675 33.0463 164.566 31.9693C164.458 30.8887 164.407 29.9906 164.407 29.2714C164.407 28.4573 164.462 27.6359 164.566 26.8072C164.675 25.9784 164.746 25.157 164.78 24.3429C164.78 24.0947 164.637 23.9377 164.349 23.8756C164.06 23.8135 163.792 23.7807 163.541 23.7807C163.111 23.7807 162.843 23.8281 162.734 23.9231C162.625 24.018 162.554 24.1275 162.517 24.2516L162.303 25.7521C162.161 26.7524 162.006 27.7162 161.847 28.6398C161.688 29.5635 161.509 30.3739 161.308 31.0785C161.111 31.7831 160.877 32.3453 160.609 32.7688C160.342 33.1923 160.028 33.404 159.668 33.404H159.614C159.471 33.404 159.333 33.3748 159.208 33.3091C159.082 33.2471 159.02 33.0901 159.02 32.8418C159.02 32.7177 159.057 32.5279 159.128 32.2796C159.417 31.1844 159.593 30.279 159.668 29.5598C159.739 28.8406 159.794 28.1981 159.827 27.6359V27.3073C159.827 27.1503 159.835 26.9641 159.852 26.7451C159.869 26.526 159.877 26.2595 159.877 25.9456V24.7262C159.877 24.3831 159.877 24.0216 159.877 23.6456C159.877 23.2696 159.84 22.8643 159.768 22.4263L159.61 19.659C159.61 19.4692 159.697 19.3012 159.877 19.1442C160.057 18.9873 160.291 18.8485 160.576 18.7208C160.864 18.5966 161.166 18.5017 161.492 18.4396C161.814 18.3776 162.098 18.3447 162.354 18.3447C162.964 18.3447 163.27 18.6915 163.27 19.3779V19.6115L163.215 20.6447V20.9258C163.215 21.1448 163.27 21.2763 163.374 21.3237C163.483 21.3712 163.696 21.426 164.018 21.488H164.181C164.47 21.5209 164.934 21.5501 165.579 21.5829C166.223 21.6158 166.867 21.6779 167.515 21.7691C168.159 21.864 168.724 22.0137 169.209 22.2145C169.69 22.419 169.933 22.7074 169.933 23.0834C169.933 23.2075 169.895 23.3901 169.824 23.6237C169.753 23.8574 169.661 24.091 169.552 24.3283C169.444 24.5619 169.356 24.7737 169.285 24.9599C169.214 25.1461 169.176 25.2738 169.176 25.3359C168.532 27.4935 168.21 29.746 168.21 32.0934C168.21 32.2796 168.226 32.6264 168.264 33.1266C168.297 33.6267 168.373 34.1415 168.477 34.6745C168.586 35.2075 168.745 35.6748 168.963 36.0837C169.176 36.4926 169.448 36.6934 169.77 36.6934C170.309 36.6934 170.791 36.405 171.221 35.8245C171.652 35.244 172.029 34.5723 172.351 33.8056C172.673 33.039 172.932 32.265 173.129 31.4838C173.325 30.7025 173.459 30.122 173.535 29.746C173.606 29.4028 173.723 29.1911 173.882 29.1144C174.045 29.0378 174.195 28.9976 174.338 28.9976C174.84 28.9976 175.091 29.2787 175.091 29.8409C175.091 29.903 175.082 30.0673 175.065 30.3338C175.065 30.5893 175.04 30.7865 175.003 30.9106Z" fill="#CCCCCC"/>
<path d="M194.738 32.4148C194.667 32.8529 194.487 33.3676 194.198 33.9627C193.91 34.5578 193.542 35.1273 193.094 35.6749C192.646 36.2225 192.128 36.6825 191.534 37.0585C190.944 37.4345 190.287 37.6207 189.572 37.6207C188.497 37.6207 187.556 37.263 186.748 36.5401C185.941 35.8209 185.448 34.806 185.272 33.4881C185.059 33.9882 184.808 34.5687 184.519 35.2258C184.23 35.883 183.875 36.4926 183.444 37.0549C183.013 37.6171 182.52 38.0953 181.963 38.486C181.407 38.8766 180.754 39.0737 180.001 39.0737C179.784 39.0737 179.625 39.0591 179.516 39.0263C179.407 38.9971 179.29 38.9569 179.165 38.9094C179.039 38.862 178.897 38.8218 178.734 38.7926C178.575 38.7598 178.349 38.7452 178.061 38.7452C177.199 38.7452 176.475 38.5042 175.881 38.0187C175.291 37.5331 174.815 36.9161 174.455 36.1641C174.095 35.412 173.836 34.5906 173.673 33.6998C173.509 32.809 173.43 31.973 173.43 31.1881C173.43 29.3116 173.547 27.5264 173.781 25.8398C174.016 24.1495 174.4 22.6563 174.936 21.3567C175.475 20.057 176.174 19.0275 177.031 18.2608C177.893 17.4942 178.931 17.1108 180.152 17.1108C180.867 17.1108 181.415 17.1656 181.792 17.2751C182.168 17.3846 182.52 17.5088 182.842 17.6512C183.164 17.7935 183.515 17.9396 183.892 18.0965C184.268 18.2535 184.795 18.3776 185.477 18.4726C186.23 18.8486 186.757 19.294 187.062 19.8124C187.363 20.3271 187.564 20.8857 187.652 21.4771C187.74 22.0722 187.769 22.6892 187.731 23.3317C187.694 23.9742 187.731 24.6058 187.84 25.2338C187.84 25.2666 187.92 25.3141 188.083 25.3761C188.242 25.4382 188.434 25.5112 188.648 25.5879C188.861 25.6682 189.053 25.7777 189.212 25.9164C189.371 26.0588 189.455 26.2377 189.455 26.4567V26.6429C189.095 27.4571 188.882 28.1762 188.811 28.8005C188.74 29.4248 188.702 30.1769 188.702 31.053C188.702 31.4911 188.727 31.9694 188.781 32.4841C188.836 32.9989 188.924 33.4844 189.049 33.9408C189.175 34.3935 189.363 34.7695 189.614 35.0652C189.865 35.3646 190.187 35.5106 190.58 35.5106C191.011 35.5106 191.396 35.3244 191.735 34.9484C192.073 34.5724 192.362 34.1416 192.596 33.656C192.83 33.1705 193.027 32.6776 193.186 32.1775C193.349 31.6773 193.445 31.3013 193.483 31.053C193.554 30.677 193.734 30.4908 194.023 30.4908C194.202 30.4908 194.37 30.5784 194.533 30.75C194.696 30.9216 194.776 31.2283 194.776 31.6664C194.776 31.7905 194.776 31.9073 194.776 32.0168C194.792 32.1227 194.771 32.2578 194.738 32.4148ZM184.791 24.8103C184.791 24.4671 184.753 24.0582 184.682 23.5909C184.611 23.1236 184.486 22.6855 184.306 22.2766C184.126 21.8714 183.858 21.5246 183.498 21.2435C183.139 20.9624 182.653 20.82 182.047 20.82C181.043 20.82 180.227 21.2179 179.6 22.0174C178.972 22.8133 178.479 23.7552 178.119 24.8322C177.759 25.9128 177.529 27.0226 177.421 28.1653C177.312 29.308 177.257 30.2061 177.257 30.8632C177.257 31.3634 177.287 31.9657 177.337 32.6703C177.391 33.3749 177.487 34.0394 177.634 34.6636C177.776 35.2879 177.985 35.8209 178.253 36.259C178.521 36.6971 178.872 36.9161 179.303 36.9161C180.34 36.9161 181.139 36.5657 181.695 35.8611C182.252 35.1565 182.674 34.2803 182.959 33.2325C183.243 32.1848 183.452 31.0603 183.578 29.8519C183.703 28.6472 183.82 27.5447 183.925 26.5444C183.996 26.0114 184.159 25.6755 184.41 25.5331C184.661 25.3944 184.787 25.2922 184.787 25.2301V24.8103H184.791Z" fill="#CCCCCC"/>
<path d="M211.189 25.9819C210.687 26.8252 210.219 27.7197 209.792 28.6579C209.361 29.5961 209.039 30.33 208.822 30.863C208.784 31.0199 208.688 31.3485 208.525 31.8487C208.366 32.3488 208.186 32.9037 207.985 33.5134C207.789 34.1231 207.617 34.7254 207.475 35.3205C207.333 35.9156 207.257 36.4011 207.257 36.7735C207.257 36.9305 207.098 37.0729 206.772 37.197C206.45 37.3211 206.036 37.3832 205.538 37.3832C204.748 37.3832 204.12 37.2883 203.656 37.1021C203.192 36.9159 202.84 36.6092 202.606 36.1857C202.372 35.7623 202.23 35.2073 202.175 34.521C202.121 33.8347 202.096 33.0059 202.096 32.0348V28.5155C202.096 28.2673 202.087 28.0154 202.071 27.7671C202.05 27.5152 201.991 27.3619 201.882 27.2962C201.702 27.3582 201.481 27.7671 201.209 28.5155C200.941 29.2676 200.69 30.1839 200.456 31.2609C200.222 32.3415 200.017 33.4732 199.837 34.6634C199.657 35.8535 199.569 36.9159 199.569 37.8541C199.569 38.1973 199.364 38.4017 198.95 38.4638C198.54 38.5259 198.08 38.5587 197.578 38.5587C197.436 38.5587 197.193 38.5332 196.85 38.4894C196.511 38.4419 196.168 38.3871 195.83 38.3251C195.487 38.263 195.177 38.1754 194.888 38.0659C194.6 37.9564 194.424 37.8249 194.353 37.6679C194.173 37.2627 194.039 36.5873 193.947 35.6491C193.855 34.7108 193.813 33.2578 193.813 31.2864C193.813 30.1292 193.839 28.782 193.893 27.2524C193.947 25.7191 194.01 23.9192 194.081 21.8566C194.081 21.5755 194.064 21.2067 194.027 20.754C193.989 20.3014 193.972 20.0421 193.972 19.9801C193.972 19.7318 194.09 19.5822 194.324 19.5347C194.558 19.4872 194.725 19.4653 194.834 19.4653C195.085 19.4653 195.382 19.4909 195.721 19.5347C196.06 19.5822 196.403 19.6369 196.741 19.699C197.08 19.761 197.394 19.8341 197.683 19.9107C197.971 19.991 198.168 20.0604 198.272 20.1225V31.4325C198.452 30.8082 198.657 30.0781 198.892 29.2493C199.126 28.4206 199.393 27.5992 199.699 26.7851C200.004 25.971 200.335 25.2226 200.694 24.5326C201.05 23.8462 201.426 23.3461 201.824 23.0321C201.966 22.9372 202.238 22.8678 202.631 22.8204C203.024 22.7729 203.346 22.751 203.602 22.751C203.781 22.751 204.003 22.7729 204.275 22.8204C204.543 22.8678 204.802 22.9372 205.053 23.0321C205.304 23.127 205.526 23.2439 205.726 23.3826C205.923 23.525 206.04 23.6892 206.074 23.8754V31.4763V31.8998C206.074 32.086 206.111 32.1809 206.182 32.1809C206.249 32.1809 206.458 31.7574 206.797 30.9141C207.136 30.0707 207.538 29.0704 208.002 27.9095C208.466 26.7522 208.964 25.5621 209.499 24.3427C210.035 23.1234 210.516 22.1559 210.943 21.4331C211.014 21.309 211.252 21.2396 211.666 21.2213C212.076 21.2067 212.44 21.1994 212.762 21.1994C213.009 21.1994 213.348 21.2688 213.779 21.4112C214.205 21.5536 214.624 21.747 215.038 21.9989C215.448 22.2508 215.803 22.532 216.113 22.8423C216.418 23.1562 216.569 23.4848 216.569 23.828C216.569 23.89 216.46 24.0689 216.247 24.3683C216.033 24.6676 215.887 24.9707 215.816 25.2846C215.565 26.1608 215.393 27.0224 215.305 27.8657C215.213 28.709 215.172 29.7896 215.172 31.1039C215.172 31.6661 215.197 32.232 215.251 32.7942C215.305 33.3564 215.393 33.8675 215.519 34.3202C215.644 34.7729 215.816 35.1416 216.029 35.4227C216.242 35.7038 216.531 35.8462 216.891 35.8462C217.393 35.8462 217.84 35.6965 218.233 35.4008C218.627 35.1051 218.965 34.7035 219.254 34.2034C219.543 33.7032 219.794 33.1155 220.007 32.4437C220.224 31.772 220.4 31.0747 220.547 30.3555C220.726 29.6035 221.049 29.2274 221.513 29.2274C221.801 29.2274 221.986 29.2895 222.078 29.4173C222.17 29.5414 222.211 29.8225 222.211 30.2606C222.211 30.5125 222.19 30.6841 222.157 30.7753C222.119 31.1842 221.969 31.8158 221.701 32.6774C221.433 33.539 221.057 34.3969 220.572 35.2585C220.086 36.12 219.488 36.8684 218.773 37.511C218.054 38.1535 217.23 38.4748 216.297 38.4748C215.188 38.4748 214.285 38.2484 213.574 37.7957C212.867 37.343 212.319 36.7334 211.926 35.9631C211.537 35.1964 211.26 34.3129 211.102 33.3126C210.943 32.3123 210.863 31.2645 210.863 30.1693V29.8407L211.189 25.9819Z" fill="#CCCCCC"/>
</svg>
